{
.appVersion = "1268";
DisplayStrings = (
"HAHBHCHDHEHFH\012HCHGHIH\012HJHKH\012HLHMHNHOHPHOQH\012HPRHSHTHUHAHVHWH\012HXHYZH \012 HDOHHDH",
"nanbnen\012nfngnmn\012nonrnsn\012nuntn\012ninvn\012noncn\012nbnbdn\012nbndn\012nhnin/jdotless njn\012hnknln\012nbpn\012nnnbnnpn\012obonoIFEpbo\012npnudqn\012nvnwn",
"NENELM ",
"0123456789.\012ABC1023"
);
classes = (
{
automatic = 1;

glyphs = (
{
glyphname = A;
layers = (
{
anchors = (
{
name = bottom;
position = "{250, 0}";
},
{
name = ogonek;
position = "{414, 0}";
},
{
name = top;
position = "{250, 623}";
}
);
background = {
paths = (
{
closed = 1;
nodes = (
"368 182 LINE",
"354 236 LINE",
"158 236 LINE",
"142 182 LINE"
);
},
{
closed = 1;
nodes = (
"414 0 LINE",
"483 0 LINE",
"253 634 LINE",
"245 634 LINE",
"15 0 LINE",
"87 0 LINE",
"250 474 LINE"
);
}
);
};
layerId = "051EFAE4-8BBE-4FBB-A016-4335C3E52F59";
paths = (
{
closed = 1;
nodes = (
"341 236 LINE",
"145 236 LINE",
"131 182 LINE",
"357 182 LINE"
);
},
{
closed = 1;
nodes = (
"412 0 LINE",
"484 0 LINE",
"254 634 LINE",
"246 634 LINE",
"16 0 LINE",
"85 0 LINE",
"249 474 LINE"
);
}
);
width = 500;
},
{
anchors = (
{
name = bottom;
position = "{250, 0}";
},
{
name = ogonek;
position = "{414, 0}";
},
{
name = top;
position = "{250, 623}";
}
);
background = {
paths = (
{
closed = 1;
nodes = (
"368 182 LINE",
"354 236 LINE",
"158 236 LINE",
"142 182 LINE"
);
},
{
closed = 1;
nodes = (
"414 0 LINE",
"483 0 LINE",
"253 634 LINE",
"245 634 LINE",
"15 0 LINE",
"87 0 LINE",
"250 474 LINE"
);
}
);
};
layerId = "4196E4A4-01D0-4BE0-B812-9D3AF152A0E4";
paths = (
{
closed = 1;
nodes = (
"368 236 LINE",
"125 236 LINE",
"119 212 LINE",
"377 212 LINE"
);
},
{
closed = 1;
nodes = (
"434 0 LINE",
"464 0 LINE",
"254 634 LINE",
"246 634 LINE",
"36 0 LINE",
"65 0 LINE",
"250 569 LINE"
);
}
);
width = 500;
},
{
anchors = (
{
name = bottom;
position = "{250, 0}";
},
{
name = ogonek;
position = "{426, 0}";
},
{
name = top;
position = "{251, 623}";
}
);
background = {
paths = (
{
closed = 1;
nodes = (
"383 161 LINE",
"366 239 LINE",
"148 239 LINE",
"128 161 LINE"
);
},
{
closed = 1;
nodes = (
"386 0 LINE",
"501 0 LINE",
"283 623 LINE",
"218 623 LINE",
"0 0 LINE",
"117 0 LINE",
"250 446 LINE"
);
}
);
};
layerId = "37FE174D-E85B-4C4C-A1AE-51D7E67A9FC9";
paths = (
{
closed = 1;
nodes = (
"353 219 LINE",
"135 219 LINE",
"118 121 LINE",
"373 121 LINE"
);
},
{
closed = 1;
nodes = (
"349 0 LINE",
"491 0 LINE",
"293 623 LINE",
"208 623 LINE",
"10 0 LINE",
"150 0 LINE",
"251 381 LINE"
);
}
);
width = 500;
},
{
anchors = (
{
name = bottom;
position = "{125, 0}";
},
{
name = ogonek;
position = "{217, 0}";
},
{
name = top;
position = "{125, 623}";
}
);
background = {
paths = (
{
closed = 1;
nodes = (
"368 182 LINE",
"354 236 LINE",
"158 236 LINE",
"142 182 LINE"
);
},
{
closed = 1;
nodes = (
"414 0 LINE",
"483 0 LINE",
"253 634 LINE",
"245 634 LINE",
"15 0 LINE",
"87 0 LINE",
"250 474 LINE"
);
}
);
};
layerId = "7EB90DB1-9188-465D-93C7-E6C577A18003";
paths = (
{
closed = 1;
nodes = (
"171 236 LINE",
"73 236 LINE",
"66 182 LINE",
"179 182 LINE"
);
},
{
closed = 1;
nodes = (
"190 0 LINE",
"242 0 LINE",
"137 634 LINE",
"113 634 LINE",
"8 0 LINE",
"59 0 LINE",
"125 441 LINE"
);
}
);
width = 250;
},
{
anchors = (
{
name = bottom;
position = "{125, 0}";
},
{
name = ogonek;
position = "{228, 0}";
},
{
name = top;
position = "{125, 623}";
}
);
background = {
paths = (
{
closed = 1;
nodes = (
"368 182 LINE",
"354 236 LINE",
"158 236 LINE",
"142 182 LINE"
);
},
{
closed = 1;
nodes = (
"414 0 LINE",
"483 0 LINE",
"253 634 LINE",
"245 634 LINE",
"15 0 LINE",
"87 0 LINE",
"250 474 LINE"
);
}
);
};
layerId = "0E826D2B-F2D1-4058-A5E0-936DF7ED7520";
paths = (
{
closed = 1;
nodes = (
"190 216 LINE",
"63 216 LINE",
"56 197 LINE",
"198 197 LINE"
);
},
{
closed = 1;
nodes = (
"222 0 LINE",
"242 0 LINE",
"129 634 LINE",
"121 634 LINE",
"8 0 LINE",
"28 0 LINE",
"125 536 LINE"
);
}
);
width = 250;
},
{
anchors = (
{
name = bottom;
position = "{484, 0}";
},
{
name = ogonek;
position = "{880, 0}";
},
{
name = top;
position = "{484, 623}";
}
);
background = {
paths = (
{
closed = 1;
nodes = (
"368 182 LINE",
"354 236 LINE",
"158 236 LINE",
"142 182 LINE"
);
},
{
closed = 1;
nodes = (
"414 0 LINE",
"483 0 LINE",
"253 634 LINE",
"245 634 LINE",
"15 0 LINE",
"87 0 LINE",
"250 474 LINE"
);
}
);
};
layerId = "16CD5438-0A7A-495F-951A-DBB915DF0BEC";
paths = (
{
closed = 1;
nodes = (
"788 215 LINE",
"228 215 LINE",
"208 187 LINE",
"802 187 LINE"
);
},
{
closed = 1;
nodes = (
"914 0 LINE",
"948 0 LINE",
"518 634 LINE",
"502 634 LINE",
"52 0 LINE",
"88 0 LINE",
"509 595 LINE"
);
}
);
width = 1000;
},
{
anchors = (
{
name = bottom;
position = "{125, 0}";
},
{
name = ogonek;
position = "{207, 0}";
},
{
name = top;
position = "{125, 623}";
}
);
background = {
paths = (
{
closed = 1;
nodes = (
"368 182 LINE",
"354 236 LINE",
"158 236 LINE",
"142 182 LINE"
);
},
{
closed = 1;
nodes = (
"414 0 LINE",
"483 0 LINE",
"253 634 LINE",
"245 634 LINE",
"15 0 LINE",
"87 0 LINE",
"250 474 LINE"
);
}
);
};
layerId = "E49A0581-9397-4BB7-ADB1-45D6EDC9C316";
paths = (
{
closed = 1;
nodes = (
"171 206 LINE",
"73 206 LINE",
"66 132 LINE",
"179 132 LINE"
);
},
{
closed = 1;
nodes = (
"156 0 LINE",
"246 0 LINE",
"157 634 LINE",
"93 634 LINE",
"4 0 LINE",
"93 0 LINE",
"125 381 LINE"
);
}
);
width = 250;
},
{
anchors = (
{
name = bottom;
position = "{500, 0}";
},
{
name = ogonek;
position = "{896, 0}";
},
{
name = top;
position = "{500, 623}";
}
);
background = {
paths = (
{
closed = 1;
nodes = (
"368 182 LINE",
"354 236 LINE",
"158 236 LINE",
"142 182 LINE"
);
},
{
closed = 1;
nodes = (
"414 0 LINE",
"483 0 LINE",
"253 634 LINE",
"245 634 LINE",
"15 0 LINE",
"87 0 LINE",
"250 474 LINE"
);
}
);
};
layerId = "382F13D7-0CC9-4B85-A585-CBE12F4435D4";
paths = (
{
closed = 1;
nodes = (
"718 245 LINE",
"290 245 LINE",
"230 173 LINE",
"762 173 LINE"
);
},
{
closed = 1;
nodes = (
"860 0 LINE",
"968 0 LINE",
"508 634 LINE",
"492 634 LINE",
"32 0 LINE",
"134 0 LINE",
"498 500 LINE"
);
}
);
width = 1000;
},
{
anchors = (
{
name = bottom;
position = "{500, 0}";
},
{
name = ogonek;
position = "{896, 0}";
},
{
name = top;
position = "{500, 623}";
}
);
background = {
paths = (
{
closed = 1;
nodes = (
"368 182 LINE",
"354 236 LINE",
"158 236 LINE",
"142 182 LINE"
);
},
{
closed = 1;
nodes = (
"414 0 LINE",
"483 0 LINE",
"253 634 LINE",
"245 634 LINE",
"15 0 LINE",
"87 0 LINE",
"250 474 LINE"
);
}
);
};
layerId = "CC486EF6-6464-4B93-9956-4F2B932959EA";
paths = (
{
closed = 1;
nodes = (
"718 265 LINE",
"290 265 LINE",
"230 153 LINE",
"762 153 LINE"
);
},
{
closed = 1;
nodes = (
"794 0 LINE",
"978 0 LINE",
"528 634 LINE",
"472 634 LINE",
"22 0 LINE",
"200 0 LINE",
"498 424 LINE"
);
}
);
width = 1000;
}
);
unicode = 0041;
},
{
glyphname = Aacute;
layers = (
{
components = (
{
name = A;
},
{
name = acutecomb.case;
transform = "{1, 0, 0, 1, -19, 0}";
}
);
layerId = "051EFAE4-8BBE-4FBB-A016-4335C3E52F59";
width = 500;
},
{
components = (
{
name = A;
},
{
name = acutecomb.case;
transform = "{1, 0, 0, 1, -19, 0}";
}
);
layerId = "4196E4A4-01D0-4BE0-B812-9D3AF152A0E4";
width = 500;
},
{
background = {
paths = (
{
closed = 1;
nodes = (
"84 0 LINE",
"144 182 LINE",
"342 182 LINE",
"411 0 LINE",
"483 0 LINE",
"243 634 LINE",
"235 634 LINE",
"15 0 LINE"
);
},
{
closed = 1;
nodes = (
"158 236 LINE",
"238 474 LINE",
"326 236 LINE"
);
},
{
closed = 1;
nodes = (
"157 702 LINE",
"180 660 LINE",
"349 721 LINE",
"309 791 LINE"
);
}
);
};
components = (
{
name = A;
},
{
name = acutecomb.case;
transform = "{1, 0, 0, 1, -19, 0}";
}
);
layerId = "37FE174D-E85B-4C4C-A1AE-51D7E67A9FC9";
width = 500;
},
{
components = (
{
name = A;
},
{
name = acutecomb.case;
transform = "{1, 0, 0, 1, -144, 0}";
}
);
layerId = "7EB90DB1-9188-465D-93C7-E6C577A18003";
width = 250;
},
{
components = (
{
name = A;
},
{
name = acutecomb.case;
transform = "{1, 0, 0, 1, -144, 0}";
}
);
layerId = "0E826D2B-F2D1-4058-A5E0-936DF7ED7520";
width = 250;
},
{
components = (
{
name = A;
},
{
name = acutecomb.case;
transform = "{1, 0, 0, 1, 215, 0}";
}
);
layerId = "16CD5438-0A7A-495F-951A-DBB915DF0BEC";
width = 1000;
},
{
components = (
{
name = A;
},
{
name = acutecomb.case;
transform = "{1, 0, 0, 1, -144, 0}";
}
);
layerId = "E49A0581-9397-4BB7-ADB1-45D6EDC9C316";
width = 250;
},
{
components = (
{
name = A;
},
{
name = acutecomb.case;
transform = "{1, 0, 0, 1, 231, 0}";
}
);
layerId = "382F13D7-0CC9-4B85-A585-CBE12F4435D4";
width = 1000;
},
{
components = (
{
name = A;
},
{
name = acutecomb.case;
transform = "{1, 0, 0, 1, 231, 0}";
}
);
layerId = "CC486EF6-6464-4B93-9956-4F2B932959EA";
width = 1000;
}
);
unicode = 00C1;
},
{
glyphname = Abreve;
layers = (
{
components = (
{
name = A;
},
{
name = brevecomb.case;
}
);
layerId = "051EFAE4-8BBE-4FBB-A016-4335C3E52F59";
width = 500;
},
{
components = (
{
name = A;
},
{
name = brevecomb.case;
}
);
layerId = "4196E4A4-01D0-4BE0-B812-9D3AF152A0E4";
width = 500;
},
{
background = {
paths = (
{
closed = 1;
nodes = (
"84 0 LINE",
"144 182 LINE",
"342 182 LINE",
"411 0 LINE",
"483 0 LINE",
"243 634 LINE",
"235 634 LINE",
"15 0 LINE"
);
},
{
closed = 1;
nodes = (
"158 236 LINE",
"238 474 LINE",
"326 236 LINE"
);
},
{
closed = 1;
nodes = (
"91 739 LINE",
"134 688 OFFCURVE",
"185 662 OFFCURVE",
"242 662 CURVE SMOOTH",
"298 662 OFFCURVE",
"352 694 OFFCURVE",
"387 742 CURVE",
"359 784 LINE",
"323 737 OFFCURVE",
"283 714 OFFCURVE",
"240 714 CURVE SMOOTH",
"195 714 OFFCURVE",
"153 744 OFFCURVE",
"128 784 CURVE"
);
}
);
};
components = (
{
name = A;
},
{
name = brevecomb.case;
transform = "{1, 0, 0, 1, 1, 0}";
}
);
layerId = "37FE174D-E85B-4C4C-A1AE-51D7E67A9FC9";
width = 500;
},
{
components = (
{
name = A;
},
{
name = brevecomb.case;
transform = "{1, 0, 0, 1, -125, 0}";
}
);
layerId = "7EB90DB1-9188-465D-93C7-E6C577A18003";
width = 250;
},
{
components = (
{
name = A;
},
{
name = brevecomb.case;
transform = "{1, 0, 0, 1, -125, 0}";
}
);
layerId = "0E826D2B-F2D1-4058-A5E0-936DF7ED7520";
width = 250;
},
{
components = (
{
name = A;
},
{
name = brevecomb.case;
transform = "{1, 0, 0, 1, 234, 0}";
}
);
layerId = "16CD5438-0A7A-495F-951A-DBB915DF0BEC";
width = 1000;
},
{
components = (
{
name = A;
},
{
name = brevecomb.case;
transform = "{1, 0, 0, 1, -125, 0}";
}
);
layerId = "E49A0581-9397-4BB7-ADB1-45D6EDC9C316";
width = 250;
},
{
components = (
{
name = A;
},
{
name = brevecomb.case;
transform = "{1, 0, 0, 1, 250, 0}";
}
);
layerId = "382F13D7-0CC9-4B85-A585-CBE12F4435D4";
width = 1000;
},
{
components = (
{
name = A;
},
{
name = brevecomb.case;
transform = "{1, 0, 0, 1, 250, 0}";
}
);
layerId = "CC486EF6-6464-4B93-9956-4F2B932959EA";
width = 1000;
}
);
unicode = 0102;
},
{
glyphname = Acircumflex;
layers = (
{
components = (
{
name = A;
},
{
name = circumflexcomb.case;
}
);
layerId = "051EFAE4-8BBE-4FBB-A016-4335C3E52F59";
width = 500;
},
{
components = (
{
name = A;
},
{
name = circumflexcomb.case;
}
);
layerId = "4196E4A4-01D0-4BE0-B812-9D3AF152A0E4";
width = 500;
},
{
background = {
paths = (
{
closed = 1;
nodes = (
"84 0 LINE",
"144 182 LINE",
"342 182 LINE",
"411 0 LINE",
"483 0 LINE",
"243 634 LINE",
"235 634 LINE",
"15 0 LINE"
);
},
{
closed = 1;
nodes = (
"158 236 LINE",
"238 474 LINE",
"326 236 LINE"
);
},
{
closed = 1;
nodes = (
"131 658 LINE",
"243 726 LINE",
"346 655 LINE",
"379 693 LINE",
"256 791 LINE",
"234 791 LINE",
"103 692 LINE"
);
}
);
};
components = (
{
name = A;
},
{
name = circumflexcomb.case;
transform = "{1, 0, 0, 1, -1, 0}";
}
);
layerId = "37FE174D-E85B-4C4C-A1AE-51D7E67A9FC9";
width = 500;
},
{
components = (
{
name = A;
},
{
name = circumflexcomb.case;
transform = "{1, 0, 0, 1, -125, 0}";
}
);
layerId = "7EB90DB1-9188-465D-93C7-E6C577A18003";
width = 250;
},
{
components = (
{
name = A;
},
{
name = circumflexcomb.case;
transform = "{1, 0, 0, 1, -125, 0}";
}
);
layerId = "0E826D2B-F2D1-4058-A5E0-936DF7ED7520";
width = 250;
},
{
components = (
{
name = A;
},
{
name = circumflexcomb.case;
transform = "{1, 0, 0, 1, 234, 0}";
}
);
layerId = "16CD5438-0A7A-495F-951A-DBB915DF0BEC";
width = 1000;
},
{
components = (
{
name = A;
},
{
name = circumflexcomb.case;
transform = "{1, 0, 0, 1, -125, 0}";
}
);
layerId = "E49A0581-9397-4BB7-ADB1-45D6EDC9C316";
width = 250;
},
{
components = (
{
name = A;
},
{
name = circumflexcomb.case;
transform = "{1, 0, 0, 1, 250, 0}";
}
);
layerId = "382F13D7-0CC9-4B85-A585-CBE12F4435D4";
width = 1000;
},
{
components = (
{
name = A;
},
{
name = circumflexcomb.case;
transform = "{1, 0, 0, 1, 250, 0}";
}
);
layerId = "CC486EF6-6464-4B93-9956-4F2B932959EA";
width = 1000;
}
);
unicode = 00C2;
},
{
glyphname = Adieresis;
layers = (
{
components = (
{
name = A;
},
{
name = dieresiscomb.case;
transform = "{1, 0, 0, 1, -1, 0}";
}
);
layerId = "051EFAE4-8BBE-4FBB-A016-4335C3E52F59";
width = 500;
},
{
components = (
{
name = A;
},
{
name = dieresiscomb.case;
transform = "{1, 0, 0, 1, -1, 0}";
}
);
layerId = "4196E4A4-01D0-4BE0-B812-9D3AF152A0E4";
width = 500;
},
{
background = {
paths = (
{
closed = 1;
nodes = (
"84 0 LINE",
"144 182 LINE",
"342 182 LINE",
"411 0 LINE",
"483 0 LINE",
"243 634 LINE",
"235 634 LINE",
"15 0 LINE"
);
},
{
closed = 1;
nodes = (
"158 236 LINE",
"238 474 LINE",
"326 236 LINE"
);
},
{
closed = 1;
nodes = (
"177 784 OFFCURVE",
"165 789 OFFCURVE",
"151 789 CURVE SMOOTH",
"124 789 OFFCURVE",
"101 765 OFFCURVE",
"101 738 CURVE SMOOTH",
"101 711 OFFCURVE",
"124 688 OFFCURVE",
"151 688 CURVE SMOOTH",
"179 688 OFFCURVE",
"202 711 OFFCURVE",
"202 738 CURVE SMOOTH",
"202 752 OFFCURVE",
"197 764 OFFCURVE",
"187 774 CURVE SMOOTH"
);
},
{
closed = 1;
nodes = (
"355 784 OFFCURVE",
"343 789 OFFCURVE",
"329 789 CURVE SMOOTH",
"302 789 OFFCURVE",
"280 766 OFFCURVE",
"280 738 CURVE SMOOTH",
"280 710 OFFCURVE",
"302 688 OFFCURVE",
"329 688 CURVE SMOOTH",
"357 688 OFFCURVE",
"380 711 OFFCURVE",
"380 738 CURVE SMOOTH",
"380 752 OFFCURVE",
"375 764 OFFCURVE",
"365 774 CURVE SMOOTH"
);
}
);
};
components = (
{
name = A;
},
{
name = dieresiscomb.case;
transform = "{1, 0, 0, 1, 1, 0}";
}
);
layerId = "37FE174D-E85B-4C4C-A1AE-51D7E67A9FC9";
width = 500;
},
{
components = (
{
name = A;
},
{
name = dieresiscomb.case;
transform = "{1, 0, 0, 1, -126, 0}";
}
);
layerId = "7EB90DB1-9188-465D-93C7-E6C577A18003";
width = 250;
},
{
components = (
{
name = A;
},
{
name = dieresiscomb.case;
transform = "{1, 0, 0, 1, -126, 0}";
}
);
layerId = "0E826D2B-F2D1-4058-A5E0-936DF7ED7520";
width = 250;
},
{
components = (
{
name = A;
},
{
name = dieresiscomb.case;
transform = "{1, 0, 0, 1, 233, 0}";
}
);
layerId = "16CD5438-0A7A-495F-951A-DBB915DF0BEC";
width = 1000;
},
{
components = (
{
name = A;
},
{
name = dieresiscomb.case;
transform = "{1, 0, 0, 1, -126, 0}";
}
);
layerId = "E49A0581-9397-4BB7-ADB1-45D6EDC9C316";
width = 250;
},
{
components = (
{
name = A;
},
{
name = dieresiscomb.case;
transform = "{1, 0, 0, 1, 249, 0}";
}
);
layerId = "382F13D7-0CC9-4B85-A585-CBE12F4435D4";
width = 1000;
},
{
components = (
{
name = A;
},
{
name = dieresiscomb.case;
transform = "{1, 0, 0, 1, 249, 0}";
}
);
layerId = "CC486EF6-6464-4B93-9956-4F2B932959EA";
width = 1000;
}
);
unicode = 00C4;
},
{
glyphname = Agrave;
layers = (
{
components = (
{
name = A;
},
{
name = gravecomb.case;
transform = "{1, 0, 0, 1, -14, 0}";
}
);
layerId = "051EFAE4-8BBE-4FBB-A016-4335C3E52F59";
width = 500;
},
{
components = (
{
name = A;
},
{
name = gravecomb.case;
transform = "{1, 0, 0, 1, -14, 0}";
}
);
layerId = "4196E4A4-01D0-4BE0-B812-9D3AF152A0E4";
width = 500;
},
{
background = {
paths = (
{
closed = 1;
nodes = (
"84 0 LINE",
"144 182 LINE",
"342 182 LINE",
"411 0 LINE",
"483 0 LINE",
"243 634 LINE",
"235 634 LINE",
"15 0 LINE"
);
},
{
closed = 1;
nodes = (
"158 236 LINE",
"238 474 LINE",
"326 236 LINE"
);
},
{
closed = 1;
nodes = (
"143 721 LINE",
"313 660 LINE",
"336 702 LINE",
"183 791 LINE"
);
}
);
};
components = (
{
name = A;
},
{
name = gravecomb.case;
transform = "{1, 0, 0, 1, -22, 0}";
}
);
layerId = "37FE174D-E85B-4C4C-A1AE-51D7E67A9FC9";
width = 500;
},
{
components = (
{
name = A;
},
{
name = gravecomb.case;
transform = "{1, 0, 0, 1, -139, 0}";
}
);
layerId = "7EB90DB1-9188-465D-93C7-E6C577A18003";
width = 250;
},
{
components = (
{
name = A;
},
{
name = gravecomb.case;
transform = "{1, 0, 0, 1, -139, 0}";
}
);
layerId = "0E826D2B-F2D1-4058-A5E0-936DF7ED7520";
width = 250;
},
{
components = (
{
name = A;
},
{
name = gravecomb.case;
transform = "{1, 0, 0, 1, 220, 0}";
}
);
layerId = "16CD5438-0A7A-495F-951A-DBB915DF0BEC";
width = 1000;
},
{
components = (
{
name = A;
},
{
name = gravecomb.case;
transform = "{1, 0, 0, 1, -139, 0}";
}
);
layerId = "E49A0581-9397-4BB7-ADB1-45D6EDC9C316";
width = 250;
},
{
components = (
{
name = A;
},
{
name = gravecomb.case;
transform = "{1, 0, 0, 1, 236, 0}";
}
);
layerId = "382F13D7-0CC9-4B85-A585-CBE12F4435D4";
width = 1000;
},
{
components = (
{
name = A;
},
{
name = gravecomb.case;
transform = "{1, 0, 0, 1, 236, 0}";
}
);
layerId = "CC486EF6-6464-4B93-9956-4F2B932959EA";
width = 1000;
}
);
unicode = 00C0;
},
{
glyphname = Aogonek;
layers = (
{
components = (
{
name = A;
},
{
name = ogonekcomb;
transform = "{1, 0, 0, 1, 165, 0}";
}
);
layerId = "051EFAE4-8BBE-4FBB-A016-4335C3E52F59";
width = 500;
},
{
components = (
{
name = A;
},
{
name = ogonekcomb;
transform = "{1, 0, 0, 1, 165, 0}";
}
);
layerId = "4196E4A4-01D0-4BE0-B812-9D3AF152A0E4";
width = 500;
},
{
background = {
paths = (
{
closed = 1;
nodes = (
"158 236 LINE",
"238 474 LINE",
"326 236 LINE"
);
},
{
closed = 1;
nodes = (
"84 -1 LINE",
"144 182 LINE",
"342 182 LINE",
"411 0 LINE",
"418 0 LINE",
"365 -43 OFFCURVE",
"338 -82 OFFCURVE",
"338 -115 CURVE SMOOTH",
"338 -150 OFFCURVE",
"366 -176 OFFCURVE",
"419 -176 CURVE SMOOTH",
"445 -176 OFFCURVE",
"467 -168 OFFCURVE",
"486 -153 CURVE",
"486 -107 LINE",
"467 -122 OFFCURVE",
"447 -130 OFFCURVE",
"428 -130 CURVE SMOOTH",
"412 -130 OFFCURVE",
"400 -118 OFFCURVE",
"400 -102 CURVE SMOOTH",
"400 -84 OFFCURVE",
"428 -50 OFFCURVE",
"484 0 CURVE",
"243 634 LINE",
"235 634 LINE",
"15 -1 LINE"
);
}
);
};
components = (
{
name = A;
},
{
name = ogonekcomb;
transform = "{1, 0, 0, 1, 168, 0}";
}
);
layerId = "37FE174D-E85B-4C4C-A1AE-51D7E67A9FC9";
width = 500;
},
{
components = (
{
name = A;
},
{
name = ogonekcomb;
transform = "{1, 0, 0, 1, -32, 0}";
}
);
layerId = "7EB90DB1-9188-465D-93C7-E6C577A18003";
width = 250;
},
{
components = (
{
name = A;
},
{
name = ogonekcomb;
transform = "{1, 0, 0, 1, -21, 0}";
}
);
layerId = "0E826D2B-F2D1-4058-A5E0-936DF7ED7520";
width = 250;
},
{
components = (
{
name = A;
},
{
name = ogonekcomb;
transform = "{1, 0, 0, 1, 631, 0}";
}
);
layerId = "16CD5438-0A7A-495F-951A-DBB915DF0BEC";
width = 1000;
},
{
components = (
{
name = A;
},
{
name = ogonekcomb;
transform = "{1, 0, 0, 1, -42, 0}";
}
);
layerId = "E49A0581-9397-4BB7-ADB1-45D6EDC9C316";
width = 250;
},
{
components = (
{
name = A;
},
{
name = ogonekcomb;
transform = "{1, 0, 0, 1, 647, 0}";
}
);
layerId = "382F13D7-0CC9-4B85-A585-CBE12F4435D4";
width = 1000;
},
{
components = (
{
name = A;
},
{
name = ogonekcomb;
transform = "{1, 0, 0, 1, 647, 0}";
}
);
layerId = "CC486EF6-6464-4B93-9956-4F2B932959EA";
width = 1000;
}
);
unicode = 0104;
},
{
glyphname = Aring;
layers = (
{
components = (
{
name = A;
},
{
name = ringcomb.case;
transform = "{1, 0, 0, 1, -1, 0}";
}
);
layerId = "051EFAE4-8BBE-4FBB-A016-4335C3E52F59";
width = 500;
},
{
components = (
{
name = A;
},
{
name = ringcomb.case;
transform = "{1, 0, 0, 1, -1, 0}";
}
);
layerId = "4196E4A4-01D0-4BE0-B812-9D3AF152A0E4";
width = 500;
},
{
background = {
paths = (
{
closed = 1;
nodes = (
"264 753 OFFCURVE",
"282 734 OFFCURVE",
"282 707 CURVE SMOOTH",
"282 682 OFFCURVE",
"264 662 OFFCURVE",
"241 662 CURVE SMOOTH",
"218 662 OFFCURVE",
"199 682 OFFCURVE",
"199 707 CURVE SMOOTH",
"199 734 OFFCURVE",
"218 753 OFFCURVE",
"241 753 CURVE SMOOTH"
);
},
{
closed = 1;
nodes = (
"158 236 LINE",
"238 474 LINE",
"326 236 LINE"
);
},
{
closed = 1;
nodes = (
"248 619 LINE",
"296 623 OFFCURVE",
"331 661 OFFCURVE",
"331 708 CURVE SMOOTH",
"331 755 OFFCURVE",
"291 795 OFFCURVE",
"240 795 CURVE SMOOTH",
"188 795 OFFCURVE",
"148 755 OFFCURVE",
"148 708 CURVE SMOOTH",
"148 661 OFFCURVE",
"183 624 OFFCURVE",
"230 619 CURVE",
"15 -1 LINE",
"84 -1 LINE",
"144 182 LINE",
"342 182 LINE",
"411 0 LINE",
"483 0 LINE"
);
}
);
};
components = (
{
name = A;
},
{
name = ringcomb.case;
transform = "{1, 0, 0, 1, 1, 0}";
}
);
layerId = "37FE174D-E85B-4C4C-A1AE-51D7E67A9FC9";
width = 500;
},
{
components = (
{
name = A;
},
{
name = ringcomb.case;
transform = "{1, 0, 0, 1, -126, 0}";
}
);
layerId = "7EB90DB1-9188-465D-93C7-E6C577A18003";
width = 250;
},
{
components = (
{
name = A;
},
{
name = ringcomb.case;
transform = "{1, 0, 0, 1, -126, 0}";
}
);
layerId = "0E826D2B-F2D1-4058-A5E0-936DF7ED7520";
width = 250;
},
{
components = (
{
name = A;
},
{
name = ringcomb.case;
transform = "{1, 0, 0, 1, 233, 0}";
}
);
layerId = "16CD5438-0A7A-495F-951A-DBB915DF0BEC";
width = 1000;
},
{
components = (
{
name = A;
},
{
name = ringcomb.case;
transform = "{1, 0, 0, 1, -126, 0}";
}
);
layerId = "E49A0581-9397-4BB7-ADB1-45D6EDC9C316";
width = 250;
},
{
components = (
{
name = A;
},
{
name = ringcomb.case;
transform = "{1, 0, 0, 1, 249, 0}";
}
);
layerId = "382F13D7-0CC9-4B85-A585-CBE12F4435D4";
width = 1000;
},
{
components = (
{
name = A;
},
{
name = ringcomb.case;
transform = "{1, 0, 0, 1, 249, 0}";
}
);
layerId = "CC486EF6-6464-4B93-9956-4F2B932959EA";
width = 1000;
}
);
unicode = 00C5;
},
{
glyphname = Atilde;
layers = (
{
components = (
{
name = A;
},
{
name = tildecomb.case;
transform = "{1, 0, 0, 1, -1, 0}";
}
);
layerId = "051EFAE4-8BBE-4FBB-A016-4335C3E52F59";
width = 500;
},
{
components = (
{
name = A;
},
{
name = tildecomb.case;
transform = "{1, 0, 0, 1, -1, 0}";
}
);
layerId = "4196E4A4-01D0-4BE0-B812-9D3AF152A0E4";
width = 500;
},
{
background = {
paths = (
{
closed = 1;
nodes = (
"84 0 LINE",
"144 182 LINE",
"342 182 LINE",
"411 0 LINE",
"483 0 LINE",
"243 634 LINE",
"235 634 LINE",
"15 0 LINE"
);
},
{
closed = 1;
nodes = (
"158 236 LINE",
"238 474 LINE",
"326 236 LINE"
);
},
{
closed = 1;
nodes = (
"131 683 LINE",
"159 730 OFFCURVE",
"171 745 OFFCURVE",
"200 745 CURVE SMOOTH",
"232 745 OFFCURVE",
"268 669 OFFCURVE",
"328 669 CURVE SMOOTH",
"359 669 OFFCURVE",
"385 692 OFFCURVE",
"425 740 CURVE",
"387 780 LINE",
"366 751 OFFCURVE",
"356 727 OFFCURVE",
"325 727 CURVE SMOOTH",
"307 727 OFFCURVE",
"247 802 OFFCURVE",
"199 802 CURVE SMOOTH",
"160 802 OFFCURVE",
"123 773 OFFCURVE",
"86 715 CURVE",
"131 683 LINE"
);
}
);
};
components = (
{
name = A;
},
{
name = tildecomb.case;
transform = "{1, 0, 0, 1, -3, 0}";
}
);
layerId = "37FE174D-E85B-4C4C-A1AE-51D7E67A9FC9";
width = 500;
},
{
components = (
{
name = A;
},
{
name = tildecomb.case;
transform = "{1, 0, 0, 1, -126, 0}";
}
);
layerId = "7EB90DB1-9188-465D-93C7-E6C577A18003";
width = 250;
},
{
components = (
{
name = A;
},
{
name = tildecomb.case;
transform = "{1, 0, 0, 1, -126, 0}";
}
);
layerId = "0E826D2B-F2D1-4058-A5E0-936DF7ED7520";
width = 250;
},
{
components = (
{
name = A;
},
{
name = tildecomb.case;
transform = "{1, 0, 0, 1, 233, 0}";
}
);
layerId = "16CD5438-0A7A-495F-951A-DBB915DF0BEC";
width = 1000;
},
{
components = (
{
name = A;
},
{
name = tildecomb.case;
transform = "{1, 0, 0, 1, -126, 0}";
}
);
layerId = "E49A0581-9397-4BB7-ADB1-45D6EDC9C316";
width = 250;
},
{
components = (
{
name = A;
},
{
name = tildecomb.case;
transform = "{1, 0, 0, 1, 249, 0}";
}
);
layerId = "382F13D7-0CC9-4B85-A585-CBE12F4435D4";
width = 1000;
},
{
components = (
{
name = A;
},
{
name = tildecomb.case;
transform = "{1, 0, 0, 1, 249, 0}";
}
);
layerId = "CC486EF6-6464-4B93-9956-4F2B932959EA";
width = 1000;
}
);
unicode = 00C3;
},
{
glyphname = AE;
layers = (
{
layerId = "051EFAE4-8BBE-4FBB-A016-4335C3E52F59";
paths = (
{
closed = 1;
nodes = (
"79 0 LINE",
"133 169 LINE",
"263 169 LINE",
"263 0 LINE",
"493 0 LINE",
"493 62 LINE",
"324 62 LINE",
"324 293 LINE",
"469 293 LINE",
"469 357 LINE",
"324 357 LINE",
"324 562 LINE",
"495 562 LINE",
"495 624 LINE",
"211 624 LINE",
"15 0 LINE"
);
},
{
closed = 1;
nodes = (
"252 562 LINE",
"263 562 LINE",
"263 227 LINE",
"147 227 LINE"
);
}
);
width = 500;
},
{
layerId = "4196E4A4-01D0-4BE0-B812-9D3AF152A0E4";
paths = (
{
closed = 1;
nodes = (
"79 0 LINE",
"133 169 LINE",
"263 169 LINE",
"263 0 LINE",
"493 0 LINE",
"493 62 LINE",
"324 62 LINE",
"324 293 LINE",
"469 293 LINE",
"469 357 LINE",
"324 357 LINE",
"324 562 LINE",
"495 562 LINE",
"495 624 LINE",
"211 624 LINE",
"15 0 LINE"
);
},
{
closed = 1;
nodes = (
"252 562 LINE",
"263 562 LINE",
"263 227 LINE",
"147 227 LINE"
);
}
);
width = 500;
},
{
background = {
paths = (
{
closed = 1;
nodes = (
"6 0 LINE",
"70 0 LINE",
"124 169 LINE",
"254 169 LINE",
"254 0 LINE",
"484 0 LINE",
"484 62 LINE",
"315 62 LINE",
"315 293 LINE",
"460 293 LINE",
"460 357 LINE",
"315 357 LINE",
"315 562 LINE",
"486 562 LINE",
"486 624 LINE",
"202 624 LINE"
);
},
{
closed = 1;
nodes = (
"254 227 LINE",
"138 227 LINE",
"243 562 LINE",
"254 562 LINE"
);
}
);
};
layerId = "37FE174D-E85B-4C4C-A1AE-51D7E67A9FC9";
paths = (
{
closed = 1;
nodes = (
"108 0 LINE",
"152 159 LINE",
"237 159 LINE",
"237 0 LINE",
"496 0 LINE",
"496 96 LINE",
"341 96 LINE",
"341 275 LINE",
"473 275 LINE",
"473 373 LINE",
"341 373 LINE",
"341 528 LINE",
"498 528 LINE",
"498 623 LINE",
"192 623 LINE",
"0 0 LINE"
);
},
{
closed = 1;
nodes = (
"236 472 LINE",
"238 472 LINE",
"238 251 LINE",
"177 251 LINE"
);
}
);
width = 500;
},
{
layerId = "7EB90DB1-9188-465D-93C7-E6C577A18003";
paths = (
{
closed = 1;
nodes = (
"79 0 LINE",
"133 169 LINE",
"263 169 LINE",
"263 0 LINE",
"493 0 LINE",
"493 62 LINE",
"324 62 LINE",
"324 293 LINE",
"469 293 LINE",
"469 357 LINE",
"324 357 LINE",
"324 562 LINE",
"495 562 LINE",
"495 624 LINE",
"211 624 LINE",
"15 0 LINE"
);
},
{
closed = 1;
nodes = (
"252 562 LINE",
"263 562 LINE",
"263 227 LINE",
"147 227 LINE"
);
}
);
width = 500;
},
{
layerId = "0E826D2B-F2D1-4058-A5E0-936DF7ED7520";
paths = (
{
closed = 1;
nodes = (
"79 0 LINE",
"133 169 LINE",
"263 169 LINE",
"263 0 LINE",
"493 0 LINE",
"493 62 LINE",
"324 62 LINE",
"324 293 LINE",
"469 293 LINE",
"469 357 LINE",
"324 357 LINE",
"324 562 LINE",
"495 562 LINE",
"495 624 LINE",
"211 624 LINE",
"15 0 LINE"
);
},
{
closed = 1;
nodes = (
"252 562 LINE",
"263 562 LINE",
"263 227 LINE",
"147 227 LINE"
);
}
);
width = 500;
},
{
layerId = "16CD5438-0A7A-495F-951A-DBB915DF0BEC";
paths = (
{
closed = 1;
nodes = (
"79 0 LINE",
"133 169 LINE",
"263 169 LINE",
"263 0 LINE",
"493 0 LINE",
"493 62 LINE",
"324 62 LINE",
"324 293 LINE",
"469 293 LINE",
"469 357 LINE",
"324 357 LINE",
"324 562 LINE",
"495 562 LINE",
"495 624 LINE",
"211 624 LINE",
"15 0 LINE"
);
},
{
closed = 1;
nodes = (
"252 562 LINE",
"263 562 LINE",
"263 227 LINE",
"147 227 LINE"
);
}
);
width = 500;
},
{
layerId = "E49A0581-9397-4BB7-ADB1-45D6EDC9C316";
paths = (
{
closed = 1;
nodes = (
"79 0 LINE",
"133 169 LINE",
"263 169 LINE",
"263 0 LINE",
"493 0 LINE",
"493 62 LINE",
"324 62 LINE",
"324 293 LINE",
"469 293 LINE",
"469 357 LINE",
"324 357 LINE",
"324 562 LINE",
"495 562 LINE",
"495 624 LINE",
"211 624 LINE",
"15 0 LINE"
);
},
{
closed = 1;
nodes = (
"252 562 LINE",
"263 562 LINE",
"263 227 LINE",
"147 227 LINE"
);
}
);
width = 500;
},
{
layerId = "382F13D7-0CC9-4B85-A585-CBE12F4435D4";
paths = (
{
closed = 1;
nodes = (
"79 0 LINE",
"133 169 LINE",
"263 169 LINE",
"263 0 LINE",
"493 0 LINE",
"493 62 LINE",
"324 62 LINE",
"324 293 LINE",
"469 293 LINE",
"469 357 LINE",
"324 357 LINE",
"324 562 LINE",
"495 562 LINE",
"495 624 LINE",
"211 624 LINE",
"15 0 LINE"
);
},
{
closed = 1;
nodes = (
"252 562 LINE",
"263 562 LINE",
"263 227 LINE",
"147 227 LINE"
);
}
);
width = 500;
},
{
layerId = "CC486EF6-6464-4B93-9956-4F2B932959EA";
paths = (
{
closed = 1;
nodes = (
"79 0 LINE",
"133 169 LINE",
"263 169 LINE",
"263 0 LINE",
"493 0 LINE",
"493 62 LINE",
"324 62 LINE",
"324 293 LINE",
"469 293 LINE",
"469 357 LINE",
"324 357 LINE",
"324 562 LINE",
"495 562 LINE",
"495 624 LINE",
"211 624 LINE",
"15 0 LINE"
);
},
{
closed = 1;
nodes = (
"252 562 LINE",
"263 562 LINE",
"263 227 LINE",
"147 227 LINE"
);
}
);
width = 500;
}
);
unicode = 00C6;
},
{
glyphname = B;
layers = (
{
anchors = (
{
name = bottom;
position = "{250, 0}";
},
{
name = top;
position = "{250, 623}";
}
);
layerId = "051EFAE4-8BBE-4FBB-A016-4335C3E52F59";
paths = (
{
closed = 1;
nodes = (
"224 0 LINE SMOOTH",
"385 0 OFFCURVE",
"457 70 OFFCURVE",
"457 175 CURVE SMOOTH",
"457 244 OFFCURVE",
"410 310 OFFCURVE",
"340 334 CURVE",
"399 355 OFFCURVE",
"432 413 OFFCURVE",
"432 472 CURVE SMOOTH",
"432 561 OFFCURVE",
"369 623 OFFCURVE",
"225 623 CURVE SMOOTH",
"48 623 LINE",
"48 0 LINE"
);
},
{
closed = 1;
nodes = (
"117 306 LINE",
"219 306 LINE",
"340 306 OFFCURVE",
"383 253 OFFCURVE",
"383 179 CURVE SMOOTH",
"383 92 OFFCURVE",
"323 61 OFFCURVE",
"236 61 CURVE SMOOTH",
"117 61 LINE"
);
},
{
closed = 1;
nodes = (
"117 564 LINE",
"226 564 LINE",
"324 564 OFFCURVE",
"362 519 OFFCURVE",
"362 464 CURVE SMOOTH",
"362 407 OFFCURVE",
"325 365 OFFCURVE",
"215 365 CURVE SMOOTH",
"117 365 LINE"
);
}
);
width = 500;
},
{
anchors = (
{
name = bottom;
position = "{250, 0}";
},
{
name = top;
position = "{250, 623}";
}
);
layerId = "4196E4A4-01D0-4BE0-B812-9D3AF152A0E4";
paths = (
{
closed = 1;
nodes = (
"229 0 LINE SMOOTH",
"390 0 OFFCURVE",
"452 70 OFFCURVE",
"452 175 CURVE SMOOTH",
"452 246 OFFCURVE",
"383 316 OFFCURVE",
"301 325 CURVE",
"380 340 OFFCURVE",
"427 402 OFFCURVE",
"427 472 CURVE SMOOTH",
"427 561 OFFCURVE",
"374 623 OFFCURVE",
"230 623 CURVE SMOOTH",
"73 623 LINE",
"73 0 LINE"
);
},
{
closed = 1;
nodes = (
"100 312 LINE",
"224 312 LINE",
"375 312 OFFCURVE",
"427 235 OFFCURVE",
"425 171 CURVE SMOOTH",
"422 73 OFFCURVE",
"360 24 OFFCURVE",
"241 24 CURVE SMOOTH",
"100 24 LINE"
);
},
{
closed = 1;
nodes = (
"100 599 LINE",
"231 599 LINE",
"360 599 OFFCURVE",
"400 548 OFFCURVE",
"400 466 CURVE SMOOTH",
"400 409 OFFCURVE",
"360 336 OFFCURVE",
"220 336 CURVE SMOOTH",
"100 336 LINE"
);
}
);
width = 500;
},
{
anchors = (
{
name = bottom;
position = "{250, 0}";
},
{
name = top;
position = "{250, 623}";
}
);
background = {
paths = (
{
closed = 1;
nodes = (
"48 0 LINE",
"224 0 LINE SMOOTH",
"385 0 OFFCURVE",
"457 70 OFFCURVE",
"457 175 CURVE SMOOTH",
"457 244 OFFCURVE",
"410 310 OFFCURVE",
"340 334 CURVE",
"399 355 OFFCURVE",
"432 413 OFFCURVE",
"432 472 CURVE SMOOTH",
"432 561 OFFCURVE",
"369 623 OFFCURVE",
"225 623 CURVE SMOOTH",
"48 623 LINE"
);
},
{
closed = 1;
nodes = (
"226 564 LINE",
"324 564 OFFCURVE",
"357 519 OFFCURVE",
"362 464 CURVE",
"357 407 OFFCURVE",
"325 365 OFFCURVE",
"215 365 CURVE SMOOTH",
"117 365 LINE",
"117 564 LINE"
);
},
{
closed = 1;
nodes = (
"219 306 LINE",
"340 306 OFFCURVE",
"378 253 OFFCURVE",
"383 179 CURVE",
"380 145 OFFCURVE",
"368 117 OFFCURVE",
"347 94 CURVE SMOOTH",
"326 72 OFFCURVE",
"289 61 OFFCURVE",
"236 61 CURVE SMOOTH",
"117 61 LINE",
"117 306 LINE"
);
}
);
};
layerId = "37FE174D-E85B-4C4C-A1AE-51D7E67A9FC9";
paths = (
{
closed = 1;
nodes = (
"228 0 LINE SMOOTH",
"395 0 OFFCURVE",
"481 73 OFFCURVE",
"481 183 CURVE SMOOTH",
"481 243 OFFCURVE",
"438 297 OFFCURVE",
"371 329 CURVE",
"427 352 OFFCURVE",
"457 413 OFFCURVE",
"457 462 CURVE SMOOTH",
"457 557 OFFCURVE",
"380 623 OFFCURVE",
"229 623 CURVE SMOOTH",
"30 623 LINE",
"30 0 LINE"
);
},
{
closed = 1;
nodes = (
"172 269 LINE",
"223 269 LINE SMOOTH",
"305 269 OFFCURVE",
"334 236 OFFCURVE",
"334 186 CURVE SMOOTH",
"334 146 OFFCURVE",
"300 115 OFFCURVE",
"239 115 CURVE SMOOTH",
"172 115 LINE"
);
},
{
closed = 1;
nodes = (
"172 510 LINE",
"230 510 LINE SMOOTH",
"287 510 OFFCURVE",
"314 489 OFFCURVE",
"314 450 CURVE SMOOTH",
"314 407 OFFCURVE",
"294 380 OFFCURVE",
"220 380 CURVE SMOOTH",
"172 380 LINE"
);
}
);
width = 500;
},
{
anchors = (
{
name = bottom;
position = "{125, 0}";
},
{
name = top;
position = "{125, 623}";
}
);
layerId = "7EB90DB1-9188-465D-93C7-E6C577A18003";
paths = (
{
closed = 1;
nodes = (
"112 0 LINE SMOOTH",
"193 0 OFFCURVE",
"229 56 OFFCURVE",
"229 175 CURVE SMOOTH",
"229 264 OFFCURVE",
"201 315 OFFCURVE",
"169 334 CURVE",
"203 353 OFFCURVE",
"216 382 OFFCURVE",
"216 472 CURVE SMOOTH",
"216 589 OFFCURVE",
"167 623 OFFCURVE",
"113 623 CURVE SMOOTH",
"24 623 LINE",
"24 0 LINE"
);
},
{
closed = 1;
nodes = (
"75 308 LINE",
"110 308 LINE",
"153 308 OFFCURVE",
"178 253 OFFCURVE",
"178 179 CURVE SMOOTH",
"178 92 OFFCURVE",
"156 56 OFFCURVE",
"118 56 CURVE SMOOTH",
"75 56 LINE"
);
},
{
closed = 1;
nodes = (
"75 568 LINE",
"113 568 LINE SMOOTH",
"153 568 OFFCURVE",
"167 519 OFFCURVE",
"167 464 CURVE SMOOTH",
"167 407 OFFCURVE",
"157 363 OFFCURVE",
"108 363 CURVE SMOOTH",
"75 363 LINE"
);
}
);
width = 250;
},
{
anchors = (
{
name = bottom;
position = "{125, 0}";
},
{
name = top;
position = "{125, 623}";
}
);
layerId = "0E826D2B-F2D1-4058-A5E0-936DF7ED7520";
paths = (
{
closed = 1;
nodes = (
"112 0 LINE SMOOTH",
"190 0 OFFCURVE",
"225 56 OFFCURVE",
"225 175 CURVE SMOOTH",
"225 264 OFFCURVE",
"189 317 OFFCURVE",
"152 335 CURVE",
"186 354 OFFCURVE",
"212 382 OFFCURVE",
"212 478 CURVE SMOOTH",
"212 589 OFFCURVE",
"167 623 OFFCURVE",
"113 623 CURVE SMOOTH",
"28 623 LINE",
"28 0 LINE"
);
},
{
closed = 1;
nodes = (
"50 326 LINE",
"110 326 LINE",
"169 326 OFFCURVE",
"204 256 OFFCURVE",
"204 179 CURVE SMOOTH",
"204 65 OFFCURVE",
"174 20 OFFCURVE",
"118 20 CURVE SMOOTH",
"50 20 LINE"
);
},
{
closed = 1;
nodes = (
"50 603 LINE",
"113 603 LINE SMOOTH",
"153 603 OFFCURVE",
"193 579 OFFCURVE",
"193 470 CURVE SMOOTH",
"193 382 OFFCURVE",
"157 346 OFFCURVE",
"108 346 CURVE SMOOTH",
"50 346 LINE"
);
}
);
width = 250;
},
{
anchors = (
{
name = bottom;
position = "{501, 0}";
},
{
name = top;
position = "{501, 623}";
}
);
layerId = "16CD5438-0A7A-495F-951A-DBB915DF0BEC";
paths = (
{
closed = 1;
nodes = (
"449 0 LINE SMOOTH",
"813 0 OFFCURVE",
"905 70 OFFCURVE",
"905 175 CURVE SMOOTH",
"905 277 OFFCURVE",
"761 325 OFFCURVE",
"638 336 CURVE",
"767 359 OFFCURVE",
"855 400 OFFCURVE",
"855 476 CURVE SMOOTH",
"855 584 OFFCURVE",
"766 623 OFFCURVE",
"451 623 CURVE SMOOTH",
"107 623 LINE",
"107 0 LINE"
);
},
{
closed = 1;
nodes = (
"138 321 LINE",
"489 321 LINE",
"737 315 OFFCURVE",
"876 265 OFFCURVE",
"876 173 CURVE SMOOTH",
"876 83 OFFCURVE",
"780 28 OFFCURVE",
"473 28 CURVE SMOOTH",
"138 28 LINE"
);
},
{
closed = 1;
nodes = (
"138 595 LINE",
"453 595 LINE",
"742 594 OFFCURVE",
"826 572 OFFCURVE",
"826 476 CURVE SMOOTH",
"826 403 OFFCURVE",
"695 349 OFFCURVE",
"481 349 CURVE SMOOTH",
"138 349 LINE"
);
}
);
width = 1000;
},
{
anchors = (
{
name = bottom;
position = "{125, 0}";
},
{
name = top;
position = "{125, 623}";
}
);
layerId = "E49A0581-9397-4BB7-ADB1-45D6EDC9C316";
paths = (
{
closed = 1;
nodes = (
"112 0 LINE SMOOTH",
"193 0 OFFCURVE",
"235 56 OFFCURVE",
"235 175 CURVE SMOOTH",
"235 264 OFFCURVE",
"211 316 OFFCURVE",
"181 334 CURVE",
"210 345 OFFCURVE",
"226 382 OFFCURVE",
"226 472 CURVE SMOOTH",
"226 589 OFFCURVE",
"167 623 OFFCURVE",
"113 623 CURVE SMOOTH",
"18 623 LINE",
"18 0 LINE"
);
},
{
closed = 1;
nodes = (
"100 288 LINE",
"115 288 LINE",
"140 288 OFFCURVE",
"153 253 OFFCURVE",
"153 179 CURVE SMOOTH",
"153 113 OFFCURVE",
"140 94 OFFCURVE",
"123 94 CURVE SMOOTH",
"100 94 LINE"
);
},
{
closed = 1;
nodes = (
"100 528 LINE",
"118 528 LINE SMOOTH",
"136 528 OFFCURVE",
"146 509 OFFCURVE",
"146 464 CURVE SMOOTH",
"146 407 OFFCURVE",
"135 383 OFFCURVE",
"113 383 CURVE SMOOTH",
"100 383 LINE"
);
}
);
width = 250;
},
{
anchors = (
{
name = bottom;
position = "{501, 0}";
},
{
name = top;
position = "{501, 623}";
}
);
layerId = "382F13D7-0CC9-4B85-A585-CBE12F4435D4";
paths = (
{
closed = 1;
nodes = (
"449 0 LINE SMOOTH",
"813 0 OFFCURVE",
"915 50 OFFCURVE",
"915 175 CURVE SMOOTH",
"915 262 OFFCURVE",
"808 323 OFFCURVE",
"684 338 CURVE",
"802 351 OFFCURVE",
"865 389 OFFCURVE",
"865 472 CURVE SMOOTH",
"865 561 OFFCURVE",
"761 623 OFFCURVE",
"451 623 CURVE SMOOTH",
"97 623 LINE",
"97 0 LINE"
);
},
{
closed = 1;
nodes = (
"189 300 LINE",
"439 300 LINE",
"681 300 OFFCURVE",
"821 253 OFFCURVE",
"821 179 CURVE SMOOTH",
"821 99 OFFCURVE",
"705 74 OFFCURVE",
"473 74 CURVE SMOOTH",
"189 74 LINE"
);
},
{
closed = 1;
nodes = (
"189 551 LINE",
"453 551 LINE",
"681 550 OFFCURVE",
"770 518 OFFCURVE",
"770 464 CURVE SMOOTH",
"770 407 OFFCURVE",
"651 371 OFFCURVE",
"431 371 CURVE SMOOTH",
"189 371 LINE"
);
}
);
width = 1000;
},
{
anchors = (
{
name = bottom;
position = "{501, 0}";
},
{
name = top;
position = "{501, 623}";
}
);
layerId = "CC486EF6-6464-4B93-9956-4F2B932959EA";
paths = (
{
closed = 1;
nodes = (
"449 0 LINE SMOOTH",
"813 0 OFFCURVE",
"925 50 OFFCURVE",
"925 175 CURVE SMOOTH",
"925 262 OFFCURVE",
"854 317 OFFCURVE",
"740 332 CURVE",
"834 345 OFFCURVE",
"875 406 OFFCURVE",
"875 472 CURVE SMOOTH",
"875 561 OFFCURVE",
"784 623 OFFCURVE",
"451 623 CURVE SMOOTH",
"87 623 LINE",
"87 0 LINE"
);
},
{
closed = 1;
nodes = (
"240 269 LINE",
"439 269 LINE",
"653 269 OFFCURVE",
"770 245 OFFCURVE",
"770 179 CURVE SMOOTH",
"770 131 OFFCURVE",
"665 110 OFFCURVE",
"473 110 CURVE SMOOTH",
"240 110 LINE"
);
},
{
closed = 1;
nodes = (
"240 513 LINE",
"453 513 LINE",
"631 512 OFFCURVE",
"720 488 OFFCURVE",
"720 449 CURVE SMOOTH",
"720 397 OFFCURVE",
"640 379 OFFCURVE",
"431 379 CURVE SMOOTH",
"240 379 LINE"
);
}
);
width = 1000;
}
);
unicode = 0042;
},
{
glyphname = C;
layers = (
{
anchors = (
{
name = bottom;
position = "{280, 0}";
},
{
name = top;
position = "{270, 623}";
}
);
hints = (
{
origin = "{0, 15}";
type = Corner;
name = _corner.rightSpur;
}
);
layerId = "051EFAE4-8BBE-4FBB-A016-4335C3E52F59";
paths = (
{
closed = 1;
nodes = (
"366 -10 OFFCURVE",
"420 25 OFFCURVE",
"460 92 CURVE",
"408 126 LINE",
"380 79 OFFCURVE",
"332 50 OFFCURVE",
"282 50 CURVE SMOOTH",
"186 50 OFFCURVE",
"109 156 OFFCURVE",
"109 313 CURVE SMOOTH",
"109 476 OFFCURVE",
"174 572 OFFCURVE",
"279 572 CURVE SMOOTH",
"326 572 OFFCURVE",
"371 553 OFFCURVE",
"408 477 CURVE",
"469 505 LINE",
"437 579 OFFCURVE",
"371 628 OFFCURVE",
"281 628 CURVE SMOOTH",
"169 628 OFFCURVE",
"41 553 OFFCURVE",
"41 308 CURVE",
"42 87 OFFCURVE",
"150 -10 OFFCURVE",
"285 -10 CURVE SMOOTH"
);
}
);
width = 500;
},
{
anchors = (
{
name = bottom;
position = "{280, 0}";
},
{
name = top;
position = "{270, 623}";
}
);
hints = (
{
origin = "{0, 15}";
type = Corner;
name = _corner.rightSpur;
}
);
layerId = "4196E4A4-01D0-4BE0-B812-9D3AF152A0E4";
paths = (
{
closed = 1;
nodes = (
"366 -10 OFFCURVE",
"413 25 OFFCURVE",
"450 92 CURVE",
"429 104 LINE",
"397 46 OFFCURVE",
"352 14 OFFCURVE",
"282 14 CURVE SMOOTH",
"157 14 OFFCURVE",
"78 113 OFFCURVE",
"78 313 CURVE SMOOTH",
"78 534 OFFCURVE",
"177 602 OFFCURVE",
"279 604 CURVE SMOOTH",
"345 605 OFFCURVE",
"400 571 OFFCURVE",
"437 495 CURVE",
"459 505 LINE",
"427 579 OFFCURVE",
"371 628 OFFCURVE",
"281 628 CURVE SMOOTH",
"169 628 OFFCURVE",
"51 553 OFFCURVE",
"51 308 CURVE",
"52 87 OFFCURVE",
"150 -10 OFFCURVE",
"285 -10 CURVE SMOOTH"
);
}
);
width = 500;
},
{
anchors = (
{
name = bottom;
position = "{270, 0}";
},
{
name = top;
position = "{270, 623}";
}
);
background = {
paths = (
{
closed = 1;
nodes = (
"398 477 OFFCURVE",
"399 474 OFFCURVE",
"402 472 CURVE",
"469 505 LINE",
"437 579 OFFCURVE",
"358 628 OFFCURVE",
"276 628 CURVE SMOOTH",
"176 628 OFFCURVE",
"41 553 OFFCURVE",
"41 308 CURVE",
"42 87 OFFCURVE",
"150 -10 OFFCURVE",
"285 -10 CURVE SMOOTH",
"345 -10 OFFCURVE",
"420 25 OFFCURVE",
"460 92 CURVE",
"408 126 LINE",
"380 79 OFFCURVE",
"330 50 OFFCURVE",
"281 50 CURVE SMOOTH",
"184 50 OFFCURVE",
"109 156 OFFCURVE",
"109 313 CURVE SMOOTH",
"109 476 OFFCURVE",
"184 572 OFFCURVE",
"275 572 CURVE SMOOTH",
"323 572 OFFCURVE",
"368 544 OFFCURVE",
"395 500 CURVE SMOOTH",
"397 496 OFFCURVE",
"398 490 OFFCURVE",
"398 482 CURVE SMOOTH"
);
}
);
};
hints = (
{
origin = "{0, 15}";
type = Corner;
name = _corner.rightSpur;
}
);
layerId = "37FE174D-E85B-4C4C-A1AE-51D7E67A9FC9";
paths = (
{
closed = 1;
nodes = (
"364 -12 OFFCURVE",
"431 12 OFFCURVE",
"482 94 CURVE",
"386 167 LINE",
"357 116 OFFCURVE",
"330 104 OFFCURVE",
"282 104 CURVE SMOOTH",
"212 104 OFFCURVE",
"165 177 OFFCURVE",
"165 313 CURVE SMOOTH",
"165 454 OFFCURVE",
"238 520 OFFCURVE",
"296 520 CURVE SMOOTH",
"339 520 OFFCURVE",
"378 504 OFFCURVE",
"408 443 CURVE",
"487 514 LINE",
"450 593 OFFCURVE",
"381 635 OFFCURVE",
"284 635 CURVE SMOOTH",
"165 635 OFFCURVE",
"24 553 OFFCURVE",
"24 308 CURVE SMOOTH",
"24 87 OFFCURVE",
"138 -12 OFFCURVE",
"275 -12 CURVE SMOOTH"
);
}
);
width = 500;
},
{
anchors = (
{
name = bottom;
position = "{141, 0}";
},
{
name = top;
position = "{136, 623}";
}
);
hints = (
{
origin = "{0, 15}";
type = Corner;
name = _corner.rightSpur;
}
);
layerId = "7EB90DB1-9188-465D-93C7-E6C577A18003";
paths = (
{
closed = 1;
nodes = (
"184 -10 OFFCURVE",
"209 13 OFFCURVE",
"231 65 CURVE",
"200 109 LINE",
"186 69 OFFCURVE",
"170 48 OFFCURVE",
"145 48 CURVE SMOOTH",
"105 48 OFFCURVE",
"72 136 OFFCURVE",
"72 313 CURVE SMOOTH",
"72 496 OFFCURVE",
"101 570 OFFCURVE",
"143 570 CURVE SMOOTH",
"167 570 OFFCURVE",
"187 557 OFFCURVE",
"203 497 CURVE",
"235 533 LINE",
"222 598 OFFCURVE",
"189 628 OFFCURVE",
"144 628 CURVE SMOOTH",
"88 628 OFFCURVE",
"20 573 OFFCURVE",
"21 308 CURVE SMOOTH",
"22 67 OFFCURVE",
"76 -10 OFFCURVE",
"143 -10 CURVE SMOOTH"
);
}
);
width = 250;
},
{
anchors = (
{
name = bottom;
position = "{141, 0}";
},
{
name = top;
position = "{136, 623}";
}
);
hints = (
{
origin = "{0, 15}";
type = Corner;
name = _corner.rightSpur;
}
);
layerId = "0E826D2B-F2D1-4058-A5E0-936DF7ED7520";
paths = (
{
closed = 1;
nodes = (
"184 -10 OFFCURVE",
"209 13 OFFCURVE",
"231 65 CURVE",
"214 76 LINE",
"200 36 OFFCURVE",
"170 10 OFFCURVE",
"145 10 CURVE SMOOTH",
"90 10 OFFCURVE",
"53 86 OFFCURVE",
"53 313 CURVE SMOOTH",
"53 559 OFFCURVE",
"103 608 OFFCURVE",
"143 608 CURVE SMOOTH",
"174 608 OFFCURVE",
"204 584 OFFCURVE",
"220 524 CURVE",
"235 533 LINE",
"222 598 OFFCURVE",
"189 628 OFFCURVE",
"144 628 CURVE SMOOTH",
"88 628 OFFCURVE",
"30 573 OFFCURVE",
"31 308 CURVE SMOOTH",
"32 67 OFFCURVE",
"76 -10 OFFCURVE",
"143 -10 CURVE SMOOTH"
);
}
);
width = 250;
},
{
anchors = (
{
name = bottom;
position = "{559, 0}";
},
{
name = top;
position = "{539, 623}";
}
);
hints = (
{
origin = "{0, 15}";
type = Corner;
name = _corner.rightSpur;
}
);
layerId = "16CD5438-0A7A-495F-951A-DBB915DF0BEC";
paths = (
{
closed = 1;
nodes = (
"731 -10 OFFCURVE",
"839 25 OFFCURVE",
"919 92 CURVE",
"897 109 LINE",
"820 46 OFFCURVE",
"717 19 OFFCURVE",
"568 19 CURVE SMOOTH",
"285 19 OFFCURVE",
"132 141 OFFCURVE",
"132 313 CURVE SMOOTH",
"132 502 OFFCURVE",
"322 600 OFFCURVE",
"560 600 CURVE SMOOTH",
"704 600 OFFCURVE",
"845 560 OFFCURVE",
"919 484 CURVE",
"937 505 LINE",
"873 579 OFFCURVE",
"741 628 OFFCURVE",
"561 628 CURVE SMOOTH",
"305 628 OFFCURVE",
"101 523 OFFCURVE",
"101 308 CURVE SMOOTH",
"101 115 OFFCURVE",
"285 -10 OFFCURVE",
"569 -10 CURVE SMOOTH"
);
}
);
width = 1000;
},
{
anchors = (
{
name = bottom;
position = "{141, 0}";
},
{
name = top;
position = "{136, 623}";
}
);
hints = (
{
origin = "{0, 15}";
type = Corner;
name = _corner.rightSpur;
}
);
layerId = "E49A0581-9397-4BB7-ADB1-45D6EDC9C316";
paths = (
{
closed = 1;
nodes = (
"184 -10 OFFCURVE",
"209 10 OFFCURVE",
"231 48 CURVE",
"222 146 LINE",
"207 115 OFFCURVE",
"186 84 OFFCURVE",
"161 84 CURVE SMOOTH",
"131 84 OFFCURVE",
"98 132 OFFCURVE",
"98 309 CURVE SMOOTH",
"98 492 OFFCURVE",
"131 529 OFFCURVE",
"159 529 CURVE SMOOTH",
"183 529 OFFCURVE",
"206 508 OFFCURVE",
"221 461 CURVE",
"241 567 LINE",
"226 597 OFFCURVE",
"199 627 OFFCURVE",
"154 627 CURVE SMOOTH",
"98 627 OFFCURVE",
"11 584 OFFCURVE",
"13 308 CURVE SMOOTH",
"15 52 OFFCURVE",
"76 -10 OFFCURVE",
"143 -10 CURVE SMOOTH"
);
}
);
width = 250;
},
{
anchors = (
{
name = bottom;
position = "{559, 0}";
},
{
name = top;
position = "{539, 623}";
}
);
hints = (
{
origin = "{0, 15}";
type = Corner;
name = _corner.rightSpur;
}
);
layerId = "382F13D7-0CC9-4B85-A585-CBE12F4435D4";
paths = (
{
closed = 1;
nodes = (
"731 -10 OFFCURVE",
"839 25 OFFCURVE",
"919 92 CURVE",
"848 138 LINE",
"792 91 OFFCURVE",
"663 64 OFFCURVE",
"563 64 CURVE SMOOTH",
"356 64 OFFCURVE",
"185 139 OFFCURVE",
"185 313 CURVE SMOOTH",
"185 495 OFFCURVE",
"369 554 OFFCURVE",
"557 554 CURVE SMOOTH",
"689 554 OFFCURVE",
"795 538 OFFCURVE",
"869 462 CURVE",
"937 505 LINE",
"873 579 OFFCURVE",
"741 628 OFFCURVE",
"561 628 CURVE SMOOTH",
"337 628 OFFCURVE",
"91 543 OFFCURVE",
"91 308 CURVE SMOOTH",
"91 105 OFFCURVE",
"285 -10 OFFCURVE",
"569 -10 CURVE SMOOTH"
);
}
);
width = 1000;
},
{
anchors = (
{
name = bottom;
position = "{559, 0}";
},
{
name = top;
position = "{539, 623}";
}
);
hints = (
{
origin = "{0, 15}";
type = Corner;
name = _corner.rightSpur;
}
);
layerId = "CC486EF6-6464-4B93-9956-4F2B932959EA";
paths = (
{
closed = 1;
nodes = (
"731 -10 OFFCURVE",
"839 16 OFFCURVE",
"919 83 CURVE",
"848 185 LINE",
"792 138 OFFCURVE",
"663 115 OFFCURVE",
"563 115 CURVE SMOOTH",
"371 115 OFFCURVE",
"235 185 OFFCURVE",
"235 313 CURVE SMOOTH",
"235 441 OFFCURVE",
"377 503 OFFCURVE",
"557 503 CURVE SMOOTH",
"689 503 OFFCURVE",
"796 481 OFFCURVE",
"858 420 CURVE",
"937 513 LINE",
"873 587 OFFCURVE",
"741 628 OFFCURVE",
"561 628 CURVE SMOOTH",
"337 628 OFFCURVE",
"81 543 OFFCURVE",
"81 308 CURVE SMOOTH",
"81 105 OFFCURVE",
"285 -10 OFFCURVE",
"569 -10 CURVE SMOOTH"
);
}
);
width = 1000;
}
);
unicode = 0043;
},
{
glyphname = Cacute;
layers = (
{
components = (
{
name = C;
},
{
name = acutecomb.case;
transform = "{1, 0, 0, 1, 1, 0}";
}
);
layerId = "051EFAE4-8BBE-4FBB-A016-4335C3E52F59";
width = 500;
},
{
components = (
{
name = C;
},
{
name = acutecomb.case;
transform = "{1, 0, 0, 1, 1, 0}";
}
);
layerId = "4196E4A4-01D0-4BE0-B812-9D3AF152A0E4";
width = 500;
},
{
background = {
paths = (
{
closed = 1;
nodes = (
"398 477 OFFCURVE",
"399 474 OFFCURVE",
"402 472 CURVE",
"469 505 LINE",
"437 579 OFFCURVE",
"358 628 OFFCURVE",
"276 628 CURVE SMOOTH",
"176 628 OFFCURVE",
"41 553 OFFCURVE",
"41 308 CURVE",
"42 87 OFFCURVE",
"150 -10 OFFCURVE",
"285 -10 CURVE SMOOTH",
"345 -10 OFFCURVE",
"420 25 OFFCURVE",
"460 92 CURVE",
"408 126 LINE",
"380 79 OFFCURVE",
"330 50 OFFCURVE",
"281 50 CURVE SMOOTH",
"184 50 OFFCURVE",
"109 156 OFFCURVE",
"109 313 CURVE SMOOTH",
"109 476 OFFCURVE",
"184 572 OFFCURVE",
"275 572 CURVE SMOOTH",
"323 572 OFFCURVE",
"368 544 OFFCURVE",
"395 500 CURVE SMOOTH",
"397 496 OFFCURVE",
"398 490 OFFCURVE",
"398 482 CURVE SMOOTH"
);
},
{
closed = 1;
nodes = (
"156 702 LINE",
"179 660 LINE",
"348 721 LINE",
"308 791 LINE"
);
}
);
};
components = (
{
name = C;
},
{
name = acutecomb.case;
}
);
layerId = "37FE174D-E85B-4C4C-A1AE-51D7E67A9FC9";
width = 500;
},
{
components = (
{
name = C;
},
{
name = acutecomb.case;
transform = "{1, 0, 0, 1, -133, 0}";
}
);
layerId = "7EB90DB1-9188-465D-93C7-E6C577A18003";
width = 250;
},
{
components = (
{
name = C;
},
{
name = acutecomb.case;
transform = "{1, 0, 0, 1, -133, 0}";
}
);
layerId = "0E826D2B-F2D1-4058-A5E0-936DF7ED7520";
width = 250;
},
{
components = (
{
name = C;
},
{
name = acutecomb.case;
transform = "{1, 0, 0, 1, 270, 0}";
}
);
layerId = "16CD5438-0A7A-495F-951A-DBB915DF0BEC";
width = 1000;
},
{
components = (
{
name = C;
},
{
name = acutecomb.case;
transform = "{1, 0, 0, 1, -133, 0}";
}
);
layerId = "E49A0581-9397-4BB7-ADB1-45D6EDC9C316";
width = 250;
},
{
components = (
{
name = C;
},
{
name = acutecomb.case;
transform = "{1, 0, 0, 1, 270, 0}";
}
);
layerId = "382F13D7-0CC9-4B85-A585-CBE12F4435D4";
width = 1000;
},
{
components = (
{
name = C;
},
{
name = acutecomb.case;
transform = "{1, 0, 0, 1, 270, 0}";
}
);
layerId = "CC486EF6-6464-4B93-9956-4F2B932959EA";
width = 1000;
}
);
unicode = 0106;
},
{
glyphname = Ccaron;
layers = (
{
components = (
{
name = C;
},
{
name = caroncomb.case;
transform = "{1, 0, 0, 1, 20, 0}";
}
);
layerId = "051EFAE4-8BBE-4FBB-A016-4335C3E52F59";
width = 500;
},
{
components = (
{
name = C;
},
{
name = caroncomb.case;
transform = "{1, 0, 0, 1, 20, 0}";
}
);
layerId = "4196E4A4-01D0-4BE0-B812-9D3AF152A0E4";
width = 500;
},
{
background = {
paths = (
{
closed = 1;
nodes = (
"398 477 OFFCURVE",
"399 474 OFFCURVE",
"402 472 CURVE",
"469 505 LINE",
"437 579 OFFCURVE",
"358 628 OFFCURVE",
"276 628 CURVE SMOOTH",
"176 628 OFFCURVE",
"41 553 OFFCURVE",
"41 308 CURVE",
"42 87 OFFCURVE",
"150 -10 OFFCURVE",
"285 -10 CURVE SMOOTH",
"345 -10 OFFCURVE",
"420 25 OFFCURVE",
"460 92 CURVE",
"408 126 LINE",
"380 79 OFFCURVE",
"330 50 OFFCURVE",
"281 50 CURVE SMOOTH",
"184 50 OFFCURVE",
"109 156 OFFCURVE",
"109 313 CURVE SMOOTH",
"109 476 OFFCURVE",
"184 572 OFFCURVE",
"275 572 CURVE SMOOTH",
"323 572 OFFCURVE",
"368 544 OFFCURVE",
"395 500 CURVE SMOOTH",
"397 496 OFFCURVE",
"398 490 OFFCURVE",
"398 482 CURVE SMOOTH"
);
},
{
closed = 1;
nodes = (
"385 788 LINE",
"273 720 LINE",
"170 791 LINE",
"137 753 LINE",
"260 655 LINE",
"282 655 LINE",
"413 755 LINE"
);
}
);
};
components = (
{
name = C;
},
{
name = caroncomb.case;
transform = "{1, 0, 0, 1, 22, 0}";
}
);
layerId = "37FE174D-E85B-4C4C-A1AE-51D7E67A9FC9";
width = 500;
},
{
components = (
{
name = C;
},
{
name = caroncomb.case;
transform = "{1, 0, 0, 1, -114, 0}";
}
);
layerId = "7EB90DB1-9188-465D-93C7-E6C577A18003";
width = 250;
},
{
components = (
{
name = C;
},
{
name = caroncomb.case;
transform = "{1, 0, 0, 1, -114, 0}";
}
);
layerId = "0E826D2B-F2D1-4058-A5E0-936DF7ED7520";
width = 250;
},
{
components = (
{
name = C;
},
{
name = caroncomb.case;
transform = "{1, 0, 0, 1, 289, 0}";
}
);
layerId = "16CD5438-0A7A-495F-951A-DBB915DF0BEC";
width = 1000;
},
{
components = (
{
name = C;
},
{
name = caroncomb.case;
transform = "{1, 0, 0, 1, -114, 0}";
}
);
layerId = "E49A0581-9397-4BB7-ADB1-45D6EDC9C316";
width = 250;
},
{
components = (
{
name = C;
},
{
name = caroncomb.case;
transform = "{1, 0, 0, 1, 289, 0}";
}
);
layerId = "382F13D7-0CC9-4B85-A585-CBE12F4435D4";
width = 1000;
},
{
components = (
{
name = C;
},
{
name = caroncomb.case;
transform = "{1, 0, 0, 1, 289, 0}";
}
);
layerId = "CC486EF6-6464-4B93-9956-4F2B932959EA";
width = 1000;
}
);
unicode = 010C;
},
{
glyphname = Ccedilla;
layers = (
{
components = (
{
name = C;
},
{
name = cedillacomb;
transform = "{1, 0, 0, 1, 9, 0}";
}
);
layerId = "051EFAE4-8BBE-4FBB-A016-4335C3E52F59";
width = 500;
},
{
components = (
{
name = C;
},
{
name = cedillacomb;
transform = "{1, 0, 0, 1, 9, 0}";
}
);
layerId = "4196E4A4-01D0-4BE0-B812-9D3AF152A0E4";
width = 500;
},
{
background = {
paths = (
{
closed = 1;
nodes = (
"327 -122 OFFCURVE",
"316 -134 OFFCURVE",
"281 -134 CURVE SMOOTH",
"244 -134 OFFCURVE",
"211 -122 OFFCURVE",
"182 -98 CURVE",
"157 -140 LINE",
"192 -165 OFFCURVE",
"229 -177 OFFCURVE",
"268 -177 CURVE SMOOTH",
"347 -177 OFFCURVE",
"384 -140 OFFCURVE",
"384 -103 CURVE SMOOTH",
"384 -70 OFFCURVE",
"361 -51 OFFCURVE",
"316 -48 CURVE SMOOTH",
"299 -47 LINE",
"304 -9 LINE",
"368 -1 OFFCURVE",
"425 36 OFFCURVE",
"460 92 CURVE",
"408 126 LINE",
"380 79 OFFCURVE",
"330 50 OFFCURVE",
"281 50 CURVE SMOOTH",
"184 50 OFFCURVE",
"109 156 OFFCURVE",
"109 313 CURVE SMOOTH",
"109 476 OFFCURVE",
"185 572 OFFCURVE",
"275 572 CURVE SMOOTH",
"323 572 OFFCURVE",
"368 544 OFFCURVE",
"395 500 CURVE SMOOTH",
"397 496 OFFCURVE",
"398 490 OFFCURVE",
"398 482 CURVE SMOOTH",
"398 477 OFFCURVE",
"399 474 OFFCURVE",
"402 472 CURVE",
"469 505 LINE",
"437 579 OFFCURVE",
"358 628 OFFCURVE",
"276 628 CURVE SMOOTH",
"177 628 OFFCURVE",
"41 559 OFFCURVE",
"41 303 CURVE SMOOTH",
"41 94 OFFCURVE",
"147 1 OFFCURVE",
"260 -10 CURVE",
"250 -85 LINE",
"280 -85 LINE SMOOTH",
"311 -85 OFFCURVE",
"327 -93 OFFCURVE",
"327 -109 CURVE SMOOTH"
);
}
);
};
components = (
{
name = C;
},
{
name = cedillacomb;
transform = "{1, 0, 0, 1, -1, 0}";
}
);
layerId = "37FE174D-E85B-4C4C-A1AE-51D7E67A9FC9";
width = 500;
},
{
components = (
{
name = C;
},
{
name = cedillacomb;
transform = "{1, 0, 0, 1, -130, 0}";
}
);
layerId = "7EB90DB1-9188-465D-93C7-E6C577A18003";
width = 250;
},
{
components = (
{
name = C;
},
{
name = cedillacomb;
transform = "{1, 0, 0, 1, -130, 0}";
}
);
layerId = "0E826D2B-F2D1-4058-A5E0-936DF7ED7520";
width = 250;
},
{
components = (
{
name = C;
},
{
name = cedillacomb;
transform = "{1, 0, 0, 1, 288, 0}";
}
);
layerId = "16CD5438-0A7A-495F-951A-DBB915DF0BEC";
width = 1000;
},
{
components = (
{
name = C;
},
{
name = cedillacomb;
transform = "{1, 0, 0, 1, -130, 0}";
}
);
layerId = "E49A0581-9397-4BB7-ADB1-45D6EDC9C316";
width = 250;
},
{
components = (
{
name = C;
},
{
name = cedillacomb;
transform = "{1, 0, 0, 1, 288, 0}";
}
);
layerId = "382F13D7-0CC9-4B85-A585-CBE12F4435D4";
width = 1000;
},
{
components = (
{
name = C;
},
{
name = cedillacomb;
transform = "{1, 0, 0, 1, 288, 0}";
}
);
layerId = "CC486EF6-6464-4B93-9956-4F2B932959EA";
width = 1000;
}
);
unicode = 00C7;
},
{
glyphname = D;
layers = (
{
anchors = (
{
name = bottom;
position = "{250, 0}";
},
{
name = center;
position = "{250, 312}";
},
{
name = top;
position = "{220, 623}";
}
);
layerId = "051EFAE4-8BBE-4FBB-A016-4335C3E52F59";
paths = (
{
closed = 1;
nodes = (
"187 -1 LINE SMOOTH",
"381 -1 OFFCURVE",
"452 117 OFFCURVE",
"460 308 CURVE",
"460 405 OFFCURVE",
"440 483 OFFCURVE",
"399 538 CURVE SMOOTH",
"358 593 OFFCURVE",
"306 623 OFFCURVE",
"199 623 CURVE SMOOTH",
"54 623 LINE",
"54 -1 LINE"
);
},
{
closed = 1;
nodes = (
"120 564 LINE",
"195 564 LINE",
"335 564 OFFCURVE",
"389 467 OFFCURVE",
"390 304 CURVE SMOOTH",
"391 143 OFFCURVE",
"327 54 OFFCURVE",
"184 54 CURVE SMOOTH",
"120 54 LINE"
);
}
);
width = 500;
},
{
anchors = (
{
name = bottom;
position = "{250, 0}";
},
{
name = center;
position = "{250, 312}";
},
{
name = top;
position = "{220, 623}";
}
);
layerId = "4196E4A4-01D0-4BE0-B812-9D3AF152A0E4";
paths = (
{
closed = 1;
nodes = (
"187 -1 LINE SMOOTH",
"381 -1 OFFCURVE",
"446 109 OFFCURVE",
"450 308 CURVE",
"450 405 OFFCURVE",
"437 483 OFFCURVE",
"396 538 CURVE SMOOTH",
"355 593 OFFCURVE",
"306 623 OFFCURVE",
"199 623 CURVE SMOOTH",
"74 623 LINE",
"74 -1 LINE"
);
},
{
closed = 1;
nodes = (
"101 599 LINE",
"195 599 LINE",
"367 598 OFFCURVE",
"423 507 OFFCURVE",
"423 304 CURVE SMOOTH",
"423 123 OFFCURVE",
"362 23 OFFCURVE",
"184 23 CURVE SMOOTH",
"101 23 LINE"
);
}
);
width = 500;
},
{
anchors = (
{
name = bottom;
position = "{241, 0}";
},
{
name = center;
position = "{250, 312}";
},
{
name = top;
position = "{220, 623}";
}
);
background = {
paths = (
{
closed = 1;
nodes = (
"54 -1 LINE",
"187 -1 LINE SMOOTH",
"381 -2 OFFCURVE",
"452 117 OFFCURVE",
"460 308 CURVE",
"460 405 OFFCURVE",
"440 483 OFFCURVE",
"399 538 CURVE SMOOTH",
"358 593 OFFCURVE",
"306 623 OFFCURVE",
"199 623 CURVE SMOOTH",
"54 623 LINE"
);
},
{
closed = 1;
nodes = (
"195 564 LINE",
"335 564 OFFCURVE",
"389 467 OFFCURVE",
"390 304 CURVE SMOOTH",
"390 143 OFFCURVE",
"327 54 OFFCURVE",
"184 54 CURVE SMOOTH",
"120 54 LINE",
"120 564 LINE"
);
}
);
};
layerId = "37FE174D-E85B-4C4C-A1AE-51D7E67A9FC9";
paths = (
{
closed = 1;
nodes = (
"193 0 LINE SMOOTH",
"394 0 OFFCURVE",
"481 118 OFFCURVE",
"481 307 CURVE SMOOTH",
"481 402 OFFCURVE",
"454 479 OFFCURVE",
"412 536 CURVE SMOOTH",
"370 592 OFFCURVE",
"316 623 OFFCURVE",
"205 623 CURVE SMOOTH",
"34 623 LINE",
"34 0 LINE"
);
},
{
closed = 1;
nodes = (
"173 513 LINE",
"201 513 LINE SMOOTH",
"317 513 OFFCURVE",
"344 428 OFFCURVE",
"344 307 CURVE SMOOTH",
"344 196 OFFCURVE",
"309 111 OFFCURVE",
"191 111 CURVE SMOOTH",
"173 111 LINE"
);
}
);
width = 500;
},
{
anchors = (
{
name = bottom;
position = "{125, 0}";
},
{
name = center;
position = "{125, 312}";
},
{
name = top;
position = "{110, 623}";
}
);
layerId = "7EB90DB1-9188-465D-93C7-E6C577A18003";
paths = (
{
closed = 1;
nodes = (
"94 -1 LINE SMOOTH",
"191 -1 OFFCURVE",
"232 112 OFFCURVE",
"232 308 CURVE SMOOTH",
"232 420 OFFCURVE",
"224 488 OFFCURVE",
"204 543 CURVE SMOOTH",
"184 598 OFFCURVE",
"153 623 OFFCURVE",
"100 623 CURVE SMOOTH",
"25 623 LINE",
"25 -1 LINE"
);
},
{
closed = 1;
nodes = (
"80 567 LINE",
"98 567 LINE SMOOTH",
"162 567 OFFCURVE",
"182 457 OFFCURVE",
"182 304 CURVE SMOOTH",
"182 152 OFFCURVE",
"140 55 OFFCURVE",
"92 55 CURVE SMOOTH",
"80 55 LINE"
);
}
);
width = 250;
},
{
anchors = (
{
name = bottom;
position = "{122, 0}";
},
{
name = center;
position = "{122, 312}";
},
{
name = top;
position = "{107, 623}";
}
);
layerId = "0E826D2B-F2D1-4058-A5E0-936DF7ED7520";
paths = (
{
closed = 1;
nodes = (
"91 -1 LINE SMOOTH",
"188 -1 OFFCURVE",
"229 120 OFFCURVE",
"229 308 CURVE SMOOTH",
"229 420 OFFCURVE",
"217 484 OFFCURVE",
"197 539 CURVE SMOOTH",
"177 594 OFFCURVE",
"141 623 OFFCURVE",
"97 623 CURVE SMOOTH",
"28 623 LINE",
"28 -1 LINE"
);
},
{
closed = 1;
nodes = (
"50 603 LINE",
"95 603 LINE SMOOTH",
"159 603 OFFCURVE",
"207 525 OFFCURVE",
"207 304 CURVE SMOOTH",
"207 84 OFFCURVE",
"150 19 OFFCURVE",
"89 19 CURVE SMOOTH",
"50 19 LINE"
);
}
);
width = 250;
},
{
anchors = (
{
name = bottom;
position = "{446, 0}";
},
{
name = center;
position = "{446, 312}";
},
{
name = top;
position = "{386, 623}";
}
);
layerId = "16CD5438-0A7A-495F-951A-DBB915DF0BEC";
paths = (
{
closed = 1;
nodes = (
"374 -1 LINE SMOOTH",
"762 -1 OFFCURVE",
"892 113 OFFCURVE",
"900 308 CURVE",
"900 405 OFFCURVE",
"864 487 OFFCURVE",
"783 538 CURVE SMOOTH",
"698 592 OFFCURVE",
"612 623 OFFCURVE",
"398 623 CURVE SMOOTH",
"118 623 LINE",
"118 -1 LINE"
);
},
{
closed = 1;
nodes = (
"149 595 LINE",
"390 595 LINE",
"706 595 OFFCURVE",
"869 509 OFFCURVE",
"869 304 CURVE SMOOTH",
"869 104 OFFCURVE",
"692 27 OFFCURVE",
"368 27 CURVE SMOOTH",
"149 27 LINE"
);
}
);
width = 1000;
},
{
anchors = (
{
name = bottom;
position = "{125, 0}";
},
{
name = center;
position = "{125, 312}";
},
{
name = top;
position = "{110, 623}";
}
);
layerId = "E49A0581-9397-4BB7-ADB1-45D6EDC9C316";
paths = (
{
closed = 1;
nodes = (
"94 -1 LINE SMOOTH",
"191 -1 OFFCURVE",
"242 93 OFFCURVE",
"242 308 CURVE SMOOTH",
"242 436 OFFCURVE",
"231 496 OFFCURVE",
"211 551 CURVE SMOOTH",
"191 606 OFFCURVE",
"153 623 OFFCURVE",
"100 623 CURVE SMOOTH",
"15 623 LINE",
"15 -1 LINE"
);
},
{
closed = 1;
nodes = (
"100 529 LINE",
"118 529 LINE SMOOTH",
"144 529 OFFCURVE",
"156 457 OFFCURVE",
"156 304 CURVE SMOOTH",
"156 152 OFFCURVE",
"137 93 OFFCURVE",
"112 93 CURVE SMOOTH",
"100 93 LINE"
);
}
);
width = 250;
},
{
anchors = (
{
name = bottom;
position = "{446, 0}";
},
{
name = center;
position = "{446, 312}";
},
{
name = top;
position = "{386, 623}";
}
);
layerId = "382F13D7-0CC9-4B85-A585-CBE12F4435D4";
paths = (
{
closed = 1;
nodes = (
"374 -1 LINE SMOOTH",
"762 -1 OFFCURVE",
"912 113 OFFCURVE",
"920 308 CURVE",
"920 405 OFFCURVE",
"874 478 OFFCURVE",
"792 533 CURVE SMOOTH",
"710 588 OFFCURVE",
"612 623 OFFCURVE",
"398 623 CURVE SMOOTH",
"108 623 LINE",
"108 -1 LINE"
);
},
{
closed = 1;
nodes = (
"200 549 LINE",
"390 549 LINE",
"670 549 OFFCURVE",
"826 467 OFFCURVE",
"828 304 CURVE SMOOTH",
"830 143 OFFCURVE",
"670 69 OFFCURVE",
"368 69 CURVE SMOOTH",
"200 69 LINE"
);
}
);
width = 1000;
},
{
anchors = (
{
name = bottom;
position = "{446, 0}";
},
{
name = center;
position = "{446, 312}";
},
{
name = top;
position = "{386, 623}";
}
);
layerId = "CC486EF6-6464-4B93-9956-4F2B932959EA";
paths = (
{
closed = 1;
nodes = (
"374 -1 LINE SMOOTH",
"762 -1 OFFCURVE",
"932 113 OFFCURVE",
"940 308 CURVE",
"940 405 OFFCURVE",
"883 478 OFFCURVE",
"801 533 CURVE SMOOTH",
"719 588 OFFCURVE",
"612 623 OFFCURVE",
"398 623 CURVE SMOOTH",
"88 623 LINE",
"88 -1 LINE"
);
},
{
closed = 1;
nodes = (
"242 499 LINE",
"390 499 LINE",
"670 499 OFFCURVE",
"788 420 OFFCURVE",
"788 304 CURVE SMOOTH",
"788 193 OFFCURVE",
"670 123 OFFCURVE",
"368 123 CURVE SMOOTH",
"242 123 LINE"
);
}
);
width = 1000;
}
);
unicode = 0044;
},
{
glyphname = Eth;
layers = (
{
layerId = "051EFAE4-8BBE-4FBB-A016-4335C3E52F59";
paths = (
{
closed = 1;
nodes = (
"206 -1 LINE SMOOTH",
"255 -1 OFFCURVE",
"293 5 OFFCURVE",
"319 18 CURVE",
"413 61 OFFCURVE",
"466 187 OFFCURVE",
"466 306 CURVE SMOOTH",
"466 495 OFFCURVE",
"396 623 OFFCURVE",
"218 623 CURVE SMOOTH",
"79 623 LINE",
"79 359 LINE",
"30 359 LINE",
"30 301 LINE",
"79 301 LINE",
"79 -1 LINE"
);
},
{
closed = 1;
nodes = (
"143 301 LINE",
"248 301 LINE",
"248 359 LINE",
"143 359 LINE",
"143 564 LINE",
"214 564 LINE SMOOTH",
"342 564 OFFCURVE",
"399 466 OFFCURVE",
"399 306 CURVE SMOOTH",
"399 149 OFFCURVE",
"331 57 OFFCURVE",
"203 57 CURVE SMOOTH",
"143 57 LINE"
);
}
);
width = 500;
},
{
layerId = "4196E4A4-01D0-4BE0-B812-9D3AF152A0E4";
paths = (
{
closed = 1;
nodes = (
"206 -1 LINE SMOOTH",
"255 -1 OFFCURVE",
"293 5 OFFCURVE",
"319 18 CURVE",
"413 61 OFFCURVE",
"466 187 OFFCURVE",
"466 306 CURVE SMOOTH",
"466 495 OFFCURVE",
"396 623 OFFCURVE",
"218 623 CURVE SMOOTH",
"79 623 LINE",
"79 359 LINE",
"30 359 LINE",
"30 301 LINE",
"79 301 LINE",
"79 -1 LINE"
);
},
{
closed = 1;
nodes = (
"143 301 LINE",
"248 301 LINE",
"248 359 LINE",
"143 359 LINE",
"143 564 LINE",
"214 564 LINE SMOOTH",
"342 564 OFFCURVE",
"399 466 OFFCURVE",
"399 306 CURVE SMOOTH",
"399 149 OFFCURVE",
"331 57 OFFCURVE",
"203 57 CURVE SMOOTH",
"143 57 LINE"
);
}
);
width = 500;
},
{
background = {
paths = (
{
closed = 1;
nodes = (
"79 359 LINE",
"30 359 LINE",
"30 301 LINE",
"79 301 LINE",
"79 -1 LINE",
"206 -1 LINE SMOOTH",
"255 -1 OFFCURVE",
"293 5 OFFCURVE",
"319 18 CURVE",
"413 61 OFFCURVE",
"466 187 OFFCURVE",
"466 306 CURVE SMOOTH",
"466 495 OFFCURVE",
"396 623 OFFCURVE",
"218 623 CURVE SMOOTH",
"79 623 LINE"
);
},
{
closed = 1;
nodes = (
"248 301 LINE",
"248 359 LINE",
"143 359 LINE",
"143 564 LINE",
"214 564 LINE SMOOTH",
"342 564 OFFCURVE",
"399 466 OFFCURVE",
"399 306 CURVE SMOOTH",
"399 149 OFFCURVE",
"331 57 OFFCURVE",
"203 57 CURVE SMOOTH",
"143 57 LINE",
"143 301 LINE"
);
}
);
};
layerId = "37FE174D-E85B-4C4C-A1AE-51D7E67A9FC9";
paths = (
{
closed = 1;
nodes = (
"193 0 LINE SMOOTH",
"394 0 OFFCURVE",
"476 118 OFFCURVE",
"476 307 CURVE SMOOTH",
"476 402 OFFCURVE",
"454 479 OFFCURVE",
"412 536 CURVE SMOOTH",
"370 592 OFFCURVE",
"316 623 OFFCURVE",
"205 623 CURVE SMOOTH",
"44 623 LINE",
"44 375 LINE",
"5 375 LINE",
"5 283 LINE",
"44 283 LINE",
"44 0 LINE"
);
},
{
closed = 1;
nodes = (
"153 283 LINE",
"247 283 LINE",
"247 375 LINE",
"153 375 LINE",
"153 530 LINE",
"201 530 LINE",
"317 530 OFFCURVE",
"364 445 OFFCURVE",
"364 304 CURVE SMOOTH",
"364 165 OFFCURVE",
"309 88 OFFCURVE",
"191 88 CURVE SMOOTH",
"153 88 LINE"
);
}
);
width = 500;
},
{
layerId = "7EB90DB1-9188-465D-93C7-E6C577A18003";
paths = (
{
closed = 1;
nodes = (
"206 -1 LINE SMOOTH",
"255 -1 OFFCURVE",
"293 5 OFFCURVE",
"319 18 CURVE",
"413 61 OFFCURVE",
"466 187 OFFCURVE",
"466 306 CURVE SMOOTH",
"466 495 OFFCURVE",
"396 623 OFFCURVE",
"218 623 CURVE SMOOTH",
"79 623 LINE",
"79 359 LINE",
"30 359 LINE",
"30 301 LINE",
"79 301 LINE",
"79 -1 LINE"
);
},
{
closed = 1;
nodes = (
"143 301 LINE",
"248 301 LINE",
"248 359 LINE",
"143 359 LINE",
"143 564 LINE",
"214 564 LINE SMOOTH",
"342 564 OFFCURVE",
"399 466 OFFCURVE",
"399 306 CURVE SMOOTH",
"399 149 OFFCURVE",
"331 57 OFFCURVE",
"203 57 CURVE SMOOTH",
"143 57 LINE"
);
}
);
width = 500;
},
{
layerId = "0E826D2B-F2D1-4058-A5E0-936DF7ED7520";
paths = (
{
closed = 1;
nodes = (
"206 -1 LINE SMOOTH",
"255 -1 OFFCURVE",
"293 5 OFFCURVE",
"319 18 CURVE",
"413 61 OFFCURVE",
"466 187 OFFCURVE",
"466 306 CURVE SMOOTH",
"466 495 OFFCURVE",
"396 623 OFFCURVE",
"218 623 CURVE SMOOTH",
"79 623 LINE",
"79 359 LINE",
"30 359 LINE",
"30 301 LINE",
"79 301 LINE",
"79 -1 LINE"
);
},
{
closed = 1;
nodes = (
"143 301 LINE",
"248 301 LINE",
"248 359 LINE",
"143 359 LINE",
"143 564 LINE",
"214 564 LINE SMOOTH",
"342 564 OFFCURVE",
"399 466 OFFCURVE",
"399 306 CURVE SMOOTH",
"399 149 OFFCURVE",
"331 57 OFFCURVE",
"203 57 CURVE SMOOTH",
"143 57 LINE"
);
}
);
width = 500;
},
{
layerId = "16CD5438-0A7A-495F-951A-DBB915DF0BEC";
paths = (
{
closed = 1;
nodes = (
"206 -1 LINE SMOOTH",
"255 -1 OFFCURVE",
"293 5 OFFCURVE",
"319 18 CURVE",
"413 61 OFFCURVE",
"466 187 OFFCURVE",
"466 306 CURVE SMOOTH",
"466 495 OFFCURVE",
"396 623 OFFCURVE",
"218 623 CURVE SMOOTH",
"79 623 LINE",
"79 359 LINE",
"30 359 LINE",
"30 301 LINE",
"79 301 LINE",
"79 -1 LINE"
);
},
{
closed = 1;
nodes = (
"143 301 LINE",
"248 301 LINE",
"248 359 LINE",
"143 359 LINE",
"143 564 LINE",
"214 564 LINE SMOOTH",
"342 564 OFFCURVE",
"399 466 OFFCURVE",
"399 306 CURVE SMOOTH",
"399 149 OFFCURVE",
"331 57 OFFCURVE",
"203 57 CURVE SMOOTH",
"143 57 LINE"
);
}
);
width = 500;
},
{
layerId = "E49A0581-9397-4BB7-ADB1-45D6EDC9C316";
paths = (
{
closed = 1;
nodes = (
"206 -1 LINE SMOOTH",
"255 -1 OFFCURVE",
"293 5 OFFCURVE",
"319 18 CURVE",
"413 61 OFFCURVE",
"466 187 OFFCURVE",
"466 306 CURVE SMOOTH",
"466 495 OFFCURVE",
"396 623 OFFCURVE",
"218 623 CURVE SMOOTH",
"79 623 LINE",
"79 359 LINE",
"30 359 LINE",
"30 301 LINE",
"79 301 LINE",
"79 -1 LINE"
);
},
{
closed = 1;
nodes = (
"143 301 LINE",
"248 301 LINE",
"248 359 LINE",
"143 359 LINE",
"143 564 LINE",
"214 564 LINE SMOOTH",
"342 564 OFFCURVE",
"399 466 OFFCURVE",
"399 306 CURVE SMOOTH",
"399 149 OFFCURVE",
"331 57 OFFCURVE",
"203 57 CURVE SMOOTH",
"143 57 LINE"
);
}
);
width = 500;
},
{
layerId = "382F13D7-0CC9-4B85-A585-CBE12F4435D4";
paths = (
{
closed = 1;
nodes = (
"206 -1 LINE SMOOTH",
"255 -1 OFFCURVE",
"293 5 OFFCURVE",
"319 18 CURVE",
"413 61 OFFCURVE",
"466 187 OFFCURVE",
"466 306 CURVE SMOOTH",
"466 495 OFFCURVE",
"396 623 OFFCURVE",
"218 623 CURVE SMOOTH",
"79 623 LINE",
"79 359 LINE",
"30 359 LINE",
"30 301 LINE",
"79 301 LINE",
"79 -1 LINE"
);
},
{
closed = 1;
nodes = (
"143 301 LINE",
"248 301 LINE",
"248 359 LINE",
"143 359 LINE",
"143 564 LINE",
"214 564 LINE SMOOTH",
"342 564 OFFCURVE",
"399 466 OFFCURVE",
"399 306 CURVE SMOOTH",
"399 149 OFFCURVE",
"331 57 OFFCURVE",
"203 57 CURVE SMOOTH",
"143 57 LINE"
);
}
);
width = 500;
},
{
layerId = "CC486EF6-6464-4B93-9956-4F2B932959EA";
paths = (
{
closed = 1;
nodes = (
"206 -1 LINE SMOOTH",
"255 -1 OFFCURVE",
"293 5 OFFCURVE",
"319 18 CURVE",
"413 61 OFFCURVE",
"466 187 OFFCURVE",
"466 306 CURVE SMOOTH",
"466 495 OFFCURVE",
"396 623 OFFCURVE",
"218 623 CURVE SMOOTH",
"79 623 LINE",
"79 359 LINE",
"30 359 LINE",
"30 301 LINE",
"79 301 LINE",
"79 -1 LINE"
);
},
{
closed = 1;
nodes = (
"143 301 LINE",
"248 301 LINE",
"248 359 LINE",
"143 359 LINE",
"143 564 LINE",
"214 564 LINE SMOOTH",
"342 564 OFFCURVE",
"399 466 OFFCURVE",
"399 306 CURVE SMOOTH",
"399 149 OFFCURVE",
"331 57 OFFCURVE",
"203 57 CURVE SMOOTH",
"143 57 LINE"
);
}
);
width = 500;
}
);
unicode = 00D0;
},
{
glyphname = Dcaron;
layers = (
{
components = (
{
name = D;
},
{
name = caroncomb.case;
transform = "{1, 0, 0, 1, -30, 0}";
}
);
layerId = "051EFAE4-8BBE-4FBB-A016-4335C3E52F59";
width = 500;
},
{
components = (
{
name = D;
},
{
name = caroncomb.case;
transform = "{1, 0, 0, 1, -30, 0}";
}
);
layerId = "4196E4A4-01D0-4BE0-B812-9D3AF152A0E4";
width = 500;
},
{
background = {
paths = (
{
closed = 1;
nodes = (
"54 -1 LINE",
"187 -1 LINE SMOOTH",
"381 -2 OFFCURVE",
"452 117 OFFCURVE",
"460 308 CURVE",
"460 405 OFFCURVE",
"440 483 OFFCURVE",
"399 538 CURVE SMOOTH",
"358 593 OFFCURVE",
"306 623 OFFCURVE",
"199 623 CURVE SMOOTH",
"54 623 LINE"
);
},
{
closed = 1;
nodes = (
"195 564 LINE",
"335 564 OFFCURVE",
"389 467 OFFCURVE",
"390 304 CURVE SMOOTH",
"390 143 OFFCURVE",
"327 54 OFFCURVE",
"184 54 CURVE SMOOTH",
"120 54 LINE",
"120 564 LINE"
);
},
{
closed = 1;
nodes = (
"344 788 LINE",
"232 720 LINE",
"129 791 LINE",
"96 753 LINE",
"219 655 LINE",
"241 655 LINE",
"372 755 LINE"
);
}
);
};
components = (
{
name = D;
},
{
name = caroncomb.case;
transform = "{1, 0, 0, 1, -28, 0}";
}
);
layerId = "37FE174D-E85B-4C4C-A1AE-51D7E67A9FC9";
width = 500;
},
{
components = (
{
name = D;
},
{
name = caroncomb.case;
transform = "{1, 0, 0, 1, -140, 0}";
}
);
layerId = "7EB90DB1-9188-465D-93C7-E6C577A18003";
width = 250;
},
{
components = (
{
name = D;
},
{
name = caroncomb.case;
transform = "{1, 0, 0, 1, -143, 0}";
}
);
layerId = "0E826D2B-F2D1-4058-A5E0-936DF7ED7520";
width = 250;
},
{
components = (
{
name = D;
},
{
name = caroncomb.case;
transform = "{1, 0, 0, 1, 136, 0}";
}
);
layerId = "16CD5438-0A7A-495F-951A-DBB915DF0BEC";
width = 1000;
},
{
components = (
{
name = D;
},
{
name = caroncomb.case;
transform = "{1, 0, 0, 1, -140, 0}";
}
);
layerId = "E49A0581-9397-4BB7-ADB1-45D6EDC9C316";
width = 250;
},
{
components = (
{
name = D;
},
{
name = caroncomb.case;
transform = "{1, 0, 0, 1, 136, 0}";
}
);
layerId = "382F13D7-0CC9-4B85-A585-CBE12F4435D4";
width = 1000;
},
{
components = (
{
name = D;
},
{
name = caroncomb.case;
transform = "{1, 0, 0, 1, 136, 0}";
}
);
layerId = "CC486EF6-6464-4B93-9956-4F2B932959EA";
width = 1000;
}
);
unicode = 010E;
},
{
glyphname = Dcroat;
layers = (
{
components = (
{
name = Eth;
}
);
layerId = "051EFAE4-8BBE-4FBB-A016-4335C3E52F59";
width = 500;
},
{
components = (
{
name = Eth;
}
);
layerId = "4196E4A4-01D0-4BE0-B812-9D3AF152A0E4";
width = 500;
},
{
background = {
paths = (
{
closed = 1;
nodes = (
"79 359 LINE",
"30 359 LINE",
"30 301 LINE",
"79 301 LINE",
"79 -1 LINE",
"206 -1 LINE SMOOTH",
"255 -1 OFFCURVE",
"293 5 OFFCURVE",
"319 18 CURVE",
"413 61 OFFCURVE",
"466 187 OFFCURVE",
"466 306 CURVE SMOOTH",
"466 495 OFFCURVE",
"396 623 OFFCURVE",
"218 623 CURVE SMOOTH",
"79 623 LINE"
);
},
{
closed = 1;
nodes = (
"248 301 LINE",
"248 359 LINE",
"143 359 LINE",
"143 564 LINE",
"214 564 LINE SMOOTH",
"342 564 OFFCURVE",
"399 466 OFFCURVE",
"399 306 CURVE SMOOTH",
"399 149 OFFCURVE",
"331 57 OFFCURVE",
"203 57 CURVE SMOOTH",
"143 57 LINE",
"143 301 LINE"
);
}
);
};
components = (
{
name = Eth;
}
);
layerId = "37FE174D-E85B-4C4C-A1AE-51D7E67A9FC9";
width = 500;
},
{
components = (
{
name = Eth;
}
);
layerId = "7EB90DB1-9188-465D-93C7-E6C577A18003";
width = 500;
},
{
components = (
{
name = Eth;
}
);
layerId = "0E826D2B-F2D1-4058-A5E0-936DF7ED7520";
width = 500;
},
{
components = (
{
name = Eth;
}
);
layerId = "16CD5438-0A7A-495F-951A-DBB915DF0BEC";
width = 500;
},
{
components = (
{
name = Eth;
}
);
layerId = "E49A0581-9397-4BB7-ADB1-45D6EDC9C316";
width = 500;
},
{
components = (
{
name = Eth;
}
);
layerId = "382F13D7-0CC9-4B85-A585-CBE12F4435D4";
width = 500;
},
{
components = (
{
name = Eth;
}
);
layerId = "CC486EF6-6464-4B93-9956-4F2B932959EA";
width = 500;
}
);
unicode = 0110;
},
{
glyphname = E;
layers = (
{
anchors = (
{
name = bottom;
position = "{250, 0}";
},
{
name = ogonek;
position = "{450, 10}";
},
{
name = top;
position = "{270, 623}";
},
{
name = topleft;
position = "{20, 623}";
}
);
layerId = "051EFAE4-8BBE-4FBB-A016-4335C3E52F59";
paths = (
{
closed = 1;
nodes = (
"438 0 LINE",
"438 62 LINE",
"125 62 LINE",
"125 293 LINE",
"386 293 LINE",
"386 357 LINE",
"125 357 LINE",
"125 562 LINE",
"441 562 LINE",
"441 624 LINE",
"59 624 LINE",
"59 0 LINE"
);
}
);
width = 500;
},
{
anchors = (
{
name = bottom;
position = "{250, 0}";
},
{
name = ogonek;
position = "{450, 10}";
},
{
name = top;
position = "{270, 623}";
},
{
name = topleft;
position = "{20, 623}";
}
);
layerId = "4196E4A4-01D0-4BE0-B812-9D3AF152A0E4";
paths = (
{
closed = 1;
nodes = (
"418 0 LINE",
"418 24 LINE",
"101 24 LINE",
"101 313 LINE",
"366 313 LINE",
"366 337 LINE",
"101 337 LINE",
"101 600 LINE",
"421 600 LINE",
"421 624 LINE",
"74 624 LINE",
"74 0 LINE"
);
}
);
width = 500;
},
{
anchors = (
{
name = bottom;
position = "{250, 0}";
},
{
name = ogonek;
position = "{384, 1}";
},
{
name = top;
position = "{270, 623}";
},
{
name = topleft;
position = "{20, 623}";
}
);
background = {
paths = (
{
closed = 1;
nodes = (
"59 0 LINE",
"438 0 LINE",
"438 62 LINE",
"125 62 LINE",
"125 293 LINE",
"386 293 LINE",
"386 357 LINE",
"125 357 LINE",
"125 562 LINE",
"441 562 LINE",
"441 624 LINE",
"59 624 LINE"
);
}
);
};
layerId = "37FE174D-E85B-4C4C-A1AE-51D7E67A9FC9";
paths = (
{
closed = 1;
nodes = (
"465 0 LINE",
"465 112 LINE",
"185 112 LINE",
"185 268 LINE",
"416 268 LINE",
"416 380 LINE",
"185 380 LINE",
"185 511 LINE",
"467 511 LINE",
"467 623 LINE",
"46 623 LINE",
"46 0 LINE"
);
}
);
width = 500;
},
{
anchors = (
{
name = bottom;
position = "{125, 0}";
},
{
name = ogonek;
position = "{225, 10}";
},
{
name = top;
position = "{135, 623}";
},
{
name = topleft;
position = "{10, 623}";
}
);
layerId = "7EB90DB1-9188-465D-93C7-E6C577A18003";
paths = (
{
closed = 1;
nodes = (
"221 0 LINE",
"221 56 LINE",
"78 56 LINE",
"78 297 LINE",
"195 297 LINE",
"195 353 LINE",
"78 353 LINE",
"78 568 LINE",
"222 568 LINE",
"222 624 LINE",
"27 624 LINE",
"27 0 LINE"
);
}
);
width = 250;
},
{
anchors = (
{
name = bottom;
position = "{125, 0}";
},
{
name = ogonek;
position = "{225, 10}";
},
{
name = top;
position = "{135, 623}";
},
{
name = topleft;
position = "{10, 623}";
}
);
layerId = "0E826D2B-F2D1-4058-A5E0-936DF7ED7520";
paths = (
{
closed = 1;
nodes = (
"221 0 LINE",
"221 20 LINE",
"51 20 LINE",
"51 315 LINE",
"195 315 LINE",
"195 335 LINE",
"51 335 LINE",
"51 604 LINE",
"222 604 LINE",
"222 624 LINE",
"29 624 LINE",
"29 0 LINE"
);
}
);
width = 250;
},
{
anchors = (
{
name = bottom;
position = "{500, 0}";
},
{
name = ogonek;
position = "{900, 10}";
},
{
name = top;
position = "{540, 623}";
},
{
name = topleft;
position = "{40, 623}";
}
);
layerId = "16CD5438-0A7A-495F-951A-DBB915DF0BEC";
paths = (
{
closed = 1;
nodes = (
"876 0 LINE",
"876 28 LINE",
"149 28 LINE",
"149 311 LINE",
"772 311 LINE",
"772 339 LINE",
"149 339 LINE",
"149 596 LINE",
"882 596 LINE",
"882 624 LINE",
"118 624 LINE",
"118 0 LINE"
);
}
);
width = 1000;
},
{
anchors = (
{
name = bottom;
position = "{125, 0}";
},
{
name = ogonek;
position = "{225, 10}";
},
{
name = top;
position = "{135, 623}";
},
{
name = topleft;
position = "{10, 623}";
}
);
layerId = "E49A0581-9397-4BB7-ADB1-45D6EDC9C316";
paths = (
{
closed = 1;
nodes = (
"225 0 LINE",
"225 94 LINE",
"109 94 LINE",
"109 278 LINE",
"201 278 LINE",
"201 372 LINE",
"109 372 LINE",
"109 530 LINE",
"226 530 LINE",
"226 624 LINE",
"23 624 LINE",
"23 0 LINE"
);
}
);
width = 250;
},
{
anchors = (
{
name = bottom;
position = "{500, 0}";
},
{
name = ogonek;
position = "{900, 10}";
},
{
name = top;
position = "{540, 623}";
},
{
name = topleft;
position = "{40, 623}";
}
);
layerId = "382F13D7-0CC9-4B85-A585-CBE12F4435D4";
paths = (
{
closed = 1;
nodes = (
"886 0 LINE",
"886 74 LINE",
"200 74 LINE",
"200 288 LINE",
"782 288 LINE",
"782 362 LINE",
"200 362 LINE",
"200 550 LINE",
"892 550 LINE",
"892 624 LINE",
"108 624 LINE",
"108 0 LINE"
);
}
);
width = 1000;
},
{
anchors = (
{
name = bottom;
position = "{500, 0}";
},
{
name = ogonek;
position = "{900, 10}";
},
{
name = top;
position = "{540, 623}";
},
{
name = topleft;
position = "{40, 623}";
}
);
layerId = "CC486EF6-6464-4B93-9956-4F2B932959EA";
paths = (
{
closed = 1;
nodes = (
"906 0 LINE",
"906 120 LINE",
"242 120 LINE",
"242 265 LINE",
"802 265 LINE",
"802 385 LINE",
"242 385 LINE",
"242 504 LINE",
"912 504 LINE",
"912 624 LINE",
"88 624 LINE",
"88 0 LINE"
);
}
);
width = 1000;
}
);
unicode = 0045;
},
{
glyphname = Eacute;
layers = (
{
components = (
{
name = E;
},
{
name = acutecomb.case;
transform = "{1, 0, 0, 1, 1, 0}";
}
);
layerId = "051EFAE4-8BBE-4FBB-A016-4335C3E52F59";
width = 500;
},
{
components = (
{
name = E;
},
{
name = acutecomb.case;
transform = "{1, 0, 0, 1, 1, 0}";
}
);
layerId = "4196E4A4-01D0-4BE0-B812-9D3AF152A0E4";
width = 500;
},
{
background = {
paths = (
{
closed = 1;
nodes = (
"59 0 LINE",
"438 0 LINE",
"438 62 LINE",
"125 62 LINE",
"125 293 LINE",
"386 293 LINE",
"386 357 LINE",
"125 357 LINE",
"125 562 LINE",
"441 562 LINE",
"441 624 LINE",
"59 624 LINE"
);
},
{
closed = 1;
nodes = (
"173 702 LINE",
"196 660 LINE",
"365 721 LINE",
"325 791 LINE"
);
}
);
};
components = (
{
name = E;
},
{
name = acutecomb.case;
}
);
layerId = "37FE174D-E85B-4C4C-A1AE-51D7E67A9FC9";
width = 500;
},
{
components = (
{
name = E;
},
{
name = acutecomb.case;
transform = "{1, 0, 0, 1, -134, 0}";
}
);
layerId = "7EB90DB1-9188-465D-93C7-E6C577A18003";
width = 250;
},
{
components = (
{
name = E;
},
{
name = acutecomb.case;
transform = "{1, 0, 0, 1, -134, 0}";
}
);
layerId = "0E826D2B-F2D1-4058-A5E0-936DF7ED7520";
width = 250;
},
{
components = (
{
name = E;
},
{
name = acutecomb.case;
transform = "{1, 0, 0, 1, 271, 0}";
}
);
layerId = "16CD5438-0A7A-495F-951A-DBB915DF0BEC";
width = 1000;
},
{
components = (
{
name = E;
},
{
name = acutecomb.case;
transform = "{1, 0, 0, 1, -134, 0}";
}
);
layerId = "E49A0581-9397-4BB7-ADB1-45D6EDC9C316";
width = 250;
},
{
components = (
{
name = E;
},
{
name = acutecomb.case;
transform = "{1, 0, 0, 1, 271, 0}";
}
);
layerId = "382F13D7-0CC9-4B85-A585-CBE12F4435D4";
width = 1000;
},
{
components = (
{
name = E;
},
{
name = acutecomb.case;
transform = "{1, 0, 0, 1, 271, 0}";
}
);
layerId = "CC486EF6-6464-4B93-9956-4F2B932959EA";
width = 1000;
}
);
unicode = 00C9;
},
{
glyphname = Ecaron;
layers = (
{
components = (
{
name = E;
},
{
name = caroncomb.case;
transform = "{1, 0, 0, 1, 20, 0}";
}
);
layerId = "051EFAE4-8BBE-4FBB-A016-4335C3E52F59";
width = 500;
},
{
components = (
{
name = E;
},
{
name = caroncomb.case;
transform = "{1, 0, 0, 1, 20, 0}";
}
);
layerId = "4196E4A4-01D0-4BE0-B812-9D3AF152A0E4";
width = 500;
},
{
background = {
paths = (
{
closed = 1;
nodes = (
"59 0 LINE",
"438 0 LINE",
"438 62 LINE",
"125 62 LINE",
"125 293 LINE",
"386 293 LINE",
"386 357 LINE",
"125 357 LINE",
"125 562 LINE",
"441 562 LINE",
"441 624 LINE",
"59 624 LINE"
);
},
{
closed = 1;
nodes = (
"369 788 LINE",
"257 720 LINE",
"154 791 LINE",
"121 753 LINE",
"244 655 LINE",
"266 655 LINE",
"397 755 LINE"
);
}
);
};
components = (
{
name = E;
},
{
name = caroncomb.case;
transform = "{1, 0, 0, 1, 22, 0}";
}
);
layerId = "37FE174D-E85B-4C4C-A1AE-51D7E67A9FC9";
width = 500;
},
{
components = (
{
name = E;
},
{
name = caroncomb.case;
transform = "{1, 0, 0, 1, -115, 0}";
}
);
layerId = "7EB90DB1-9188-465D-93C7-E6C577A18003";
width = 250;
},
{
components = (
{
name = E;
},
{
name = caroncomb.case;
transform = "{1, 0, 0, 1, -115, 0}";
}
);
layerId = "0E826D2B-F2D1-4058-A5E0-936DF7ED7520";
width = 250;
},
{
components = (
{
name = E;
},
{
name = caroncomb.case;
transform = "{1, 0, 0, 1, 290, 0}";
}
);
layerId = "16CD5438-0A7A-495F-951A-DBB915DF0BEC";
width = 1000;
},
{
components = (
{
name = E;
},
{
name = caroncomb.case;
transform = "{1, 0, 0, 1, -115, 0}";
}
);
layerId = "E49A0581-9397-4BB7-ADB1-45D6EDC9C316";
width = 250;
},
{
components = (
{
name = E;
},
{
name = caroncomb.case;
transform = "{1, 0, 0, 1, 290, 0}";
}
);
layerId = "382F13D7-0CC9-4B85-A585-CBE12F4435D4";
width = 1000;
},
{
components = (
{
name = E;
},
{
name = caroncomb.case;
transform = "{1, 0, 0, 1, 290, 0}";
}
);
layerId = "CC486EF6-6464-4B93-9956-4F2B932959EA";
width = 1000;
}
);
unicode = 011A;
},
{
glyphname = Ecircumflex;
layers = (
{
components = (
{
name = E;
},
{
name = circumflexcomb.case;
transform = "{1, 0, 0, 1, 20, 0}";
}
);
layerId = "051EFAE4-8BBE-4FBB-A016-4335C3E52F59";
width = 500;
},
{
components = (
{
name = E;
},
{
name = circumflexcomb.case;
transform = "{1, 0, 0, 1, 20, 0}";
}
);
layerId = "4196E4A4-01D0-4BE0-B812-9D3AF152A0E4";
width = 500;
},
{
background = {
paths = (
{
closed = 1;
nodes = (
"59 0 LINE",
"438 0 LINE",
"438 62 LINE",
"125 62 LINE",
"125 293 LINE",
"386 293 LINE",
"386 357 LINE",
"125 357 LINE",
"125 562 LINE",
"441 562 LINE",
"441 624 LINE",
"59 624 LINE"
);
},
{
closed = 1;
nodes = (
"139 658 LINE",
"251 726 LINE",
"354 655 LINE",
"387 693 LINE",
"264 791 LINE",
"242 791 LINE",
"111 692 LINE"
);
}
);
};
components = (
{
name = E;
},
{
name = circumflexcomb.case;
transform = "{1, 0, 0, 1, 18, 0}";
}
);
layerId = "37FE174D-E85B-4C4C-A1AE-51D7E67A9FC9";
width = 500;
},
{
components = (
{
name = E;
},
{
name = circumflexcomb.case;
transform = "{1, 0, 0, 1, -115, 0}";
}
);
layerId = "7EB90DB1-9188-465D-93C7-E6C577A18003";
width = 250;
},
{
components = (
{
name = E;
},
{
name = circumflexcomb.case;
transform = "{1, 0, 0, 1, -115, 0}";
}
);
layerId = "0E826D2B-F2D1-4058-A5E0-936DF7ED7520";
width = 250;
},
{
components = (
{
name = E;
},
{
name = circumflexcomb.case;
transform = "{1, 0, 0, 1, 290, 0}";
}
);
layerId = "16CD5438-0A7A-495F-951A-DBB915DF0BEC";
width = 1000;
},
{
components = (
{
name = E;
},
{
name = circumflexcomb.case;
transform = "{1, 0, 0, 1, -115, 0}";
}
);
layerId = "E49A0581-9397-4BB7-ADB1-45D6EDC9C316";
width = 250;
},
{
components = (
{
name = E;
},
{
name = circumflexcomb.case;
transform = "{1, 0, 0, 1, 290, 0}";
}
);
layerId = "382F13D7-0CC9-4B85-A585-CBE12F4435D4";
width = 1000;
},
{
components = (
{
name = E;
},
{
name = circumflexcomb.case;
transform = "{1, 0, 0, 1, 290, 0}";
}
);
layerId = "CC486EF6-6464-4B93-9956-4F2B932959EA";
width = 1000;
}
);
unicode = 00CA;
},
{
glyphname = Edieresis;
layers = (
{
components = (
{
name = E;
},
{
name = dieresiscomb.case;
transform = "{1, 0, 0, 1, 19, 0}";
}
);
layerId = "051EFAE4-8BBE-4FBB-A016-4335C3E52F59";
width = 500;
},
{
components = (
{
name = E;
},
{
name = dieresiscomb.case;
transform = "{1, 0, 0, 1, 19, 0}";
}
);
layerId = "4196E4A4-01D0-4BE0-B812-9D3AF152A0E4";
width = 500;
},
{
background = {
paths = (
{
closed = 1;
nodes = (
"59 0 LINE",
"438 0 LINE",
"438 62 LINE",
"125 62 LINE",
"125 293 LINE",
"386 293 LINE",
"386 357 LINE",
"125 357 LINE",
"125 562 LINE",
"441 562 LINE",
"441 624 LINE",
"59 624 LINE"
);
},
{
closed = 1;
nodes = (
"183 784 OFFCURVE",
"171 789 OFFCURVE",
"157 789 CURVE SMOOTH",
"130 789 OFFCURVE",
"107 765 OFFCURVE",
"107 738 CURVE SMOOTH",
"107 711 OFFCURVE",
"130 688 OFFCURVE",
"157 688 CURVE SMOOTH",
"185 688 OFFCURVE",
"208 711 OFFCURVE",
"208 738 CURVE SMOOTH",
"208 752 OFFCURVE",
"203 764 OFFCURVE",
"193 774 CURVE SMOOTH"
);
},
{
closed = 1;
nodes = (
"361 784 OFFCURVE",
"349 789 OFFCURVE",
"335 789 CURVE SMOOTH",
"308 789 OFFCURVE",
"286 766 OFFCURVE",
"286 738 CURVE SMOOTH",
"286 710 OFFCURVE",
"308 688 OFFCURVE",
"335 688 CURVE SMOOTH",
"363 688 OFFCURVE",
"386 711 OFFCURVE",
"386 738 CURVE SMOOTH",
"386 752 OFFCURVE",
"381 764 OFFCURVE",
"371 774 CURVE SMOOTH"
);
}
);
};
components = (
{
name = E;
},
{
name = dieresiscomb.case;
transform = "{1, 0, 0, 1, 20, 0}";
}
);
layerId = "37FE174D-E85B-4C4C-A1AE-51D7E67A9FC9";
width = 500;
},
{
components = (
{
name = E;
},
{
name = dieresiscomb.case;
transform = "{1, 0, 0, 1, -116, 0}";
}
);
layerId = "7EB90DB1-9188-465D-93C7-E6C577A18003";
width = 250;
},
{
components = (
{
name = E;
},
{
name = dieresiscomb.case;
transform = "{1, 0, 0, 1, -116, 0}";
}
);
layerId = "0E826D2B-F2D1-4058-A5E0-936DF7ED7520";
width = 250;
},
{
components = (
{
name = E;
},
{
name = dieresiscomb.case;
transform = "{1, 0, 0, 1, 289, 0}";
}
);
layerId = "16CD5438-0A7A-495F-951A-DBB915DF0BEC";
width = 1000;
},
{
components = (
{
name = E;
},
{
name = dieresiscomb.case;
transform = "{1, 0, 0, 1, -116, 0}";
}
);
layerId = "E49A0581-9397-4BB7-ADB1-45D6EDC9C316";
width = 250;
},
{
components = (
{
name = E;
},
{
name = dieresiscomb.case;
transform = "{1, 0, 0, 1, 289, 0}";
}
);
layerId = "382F13D7-0CC9-4B85-A585-CBE12F4435D4";
width = 1000;
},
{
components = (
{
name = E;
},
{
name = dieresiscomb.case;
transform = "{1, 0, 0, 1, 289, 0}";
}
);
layerId = "CC486EF6-6464-4B93-9956-4F2B932959EA";
width = 1000;
}
);
unicode = 00CB;
},
{
glyphname = Egrave;
layers = (
{
components = (
{
name = E;
},
{
name = gravecomb.case;
transform = "{1, 0, 0, 1, 6, 0}";
}
);
layerId = "051EFAE4-8BBE-4FBB-A016-4335C3E52F59";
width = 500;
},
{
components = (
{
name = E;
},
{
name = gravecomb.case;
transform = "{1, 0, 0, 1, 6, 0}";
}
);
layerId = "4196E4A4-01D0-4BE0-B812-9D3AF152A0E4";
width = 500;
},
{
background = {
paths = (
{
closed = 1;
nodes = (
"59 0 LINE",
"438 0 LINE",
"438 62 LINE",
"125 62 LINE",
"125 293 LINE",
"386 293 LINE",
"386 357 LINE",
"125 357 LINE",
"125 562 LINE",
"441 562 LINE",
"441 624 LINE",
"59 624 LINE"
);
},
{
closed = 1;
nodes = (
"143 721 LINE",
"313 660 LINE",
"336 702 LINE",
"183 791 LINE"
);
}
);
};
components = (
{
name = E;
},
{
name = gravecomb.case;
transform = "{1, 0, 0, 1, -3, 0}";
}
);
layerId = "37FE174D-E85B-4C4C-A1AE-51D7E67A9FC9";
width = 500;
},
{
components = (
{
name = E;
},
{
name = gravecomb.case;
transform = "{1, 0, 0, 1, -129, 0}";
}
);
layerId = "7EB90DB1-9188-465D-93C7-E6C577A18003";
width = 250;
},
{
components = (
{
name = E;
},
{
name = gravecomb.case;
transform = "{1, 0, 0, 1, -129, 0}";
}
);
layerId = "0E826D2B-F2D1-4058-A5E0-936DF7ED7520";
width = 250;
},
{
components = (
{
name = E;
},
{
name = gravecomb.case;
transform = "{1, 0, 0, 1, 276, 0}";
}
);
layerId = "16CD5438-0A7A-495F-951A-DBB915DF0BEC";
width = 1000;
},
{
components = (
{
name = E;
},
{
name = gravecomb.case;
transform = "{1, 0, 0, 1, -129, 0}";
}
);
layerId = "E49A0581-9397-4BB7-ADB1-45D6EDC9C316";
width = 250;
},
{
components = (
{
name = E;
},
{
name = gravecomb.case;
transform = "{1, 0, 0, 1, 276, 0}";
}
);
layerId = "382F13D7-0CC9-4B85-A585-CBE12F4435D4";
width = 1000;
},
{
components = (
{
name = E;
},
{
name = gravecomb.case;
transform = "{1, 0, 0, 1, 276, 0}";
}
);
layerId = "CC486EF6-6464-4B93-9956-4F2B932959EA";
width = 1000;
}
);
unicode = 00C8;
},
{
glyphname = Eogonek;
layers = (
{
components = (
{
name = E;
},
{
name = ogonek;
}
);
layerId = "051EFAE4-8BBE-4FBB-A016-4335C3E52F59";
width = 500;
},
{
components = (
{
name = E;
},
{
name = ogonek;
}
);
layerId = "4196E4A4-01D0-4BE0-B812-9D3AF152A0E4";
width = 500;
},
{
background = {
paths = (
{
closed = 1;
nodes = (
"59 0 LINE",
"370 0 LINE",
"317 -43 OFFCURVE",
"291 -81 OFFCURVE",
"291 -115 CURVE SMOOTH",
"291 -150 OFFCURVE",
"319 -176 OFFCURVE",
"372 -176 CURVE SMOOTH",
"399 -176 OFFCURVE",
"421 -168 OFFCURVE",
"438 -153 CURVE",
"438 -107 LINE",
"419 -122 OFFCURVE",
"400 -130 OFFCURVE",
"380 -130 CURVE SMOOTH",
"365 -130 OFFCURVE",
"353 -118 OFFCURVE",
"353 -102 CURVE SMOOTH",
"353 -84 OFFCURVE",
"381 -50 OFFCURVE",
"437 0 CURVE",
"438 62 LINE",
"125 62 LINE",
"125 293 LINE",
"386 293 LINE",
"386 357 LINE",
"125 357 LINE",
"125 562 LINE",
"441 562 LINE",
"441 624 LINE",
"59 624 LINE"
);
}
);
};
components = (
{
name = E;
},
{
name = ogonek;
}
);
layerId = "37FE174D-E85B-4C4C-A1AE-51D7E67A9FC9";
width = 500;
},
{
components = (
{
name = E;
},
{
name = ogonek;
}
);
layerId = "7EB90DB1-9188-465D-93C7-E6C577A18003";
width = 500;
},
{
components = (
{
name = E;
},
{
name = ogonek;
}
);
layerId = "0E826D2B-F2D1-4058-A5E0-936DF7ED7520";
width = 500;
},
{
components = (
{
name = E;
},
{
name = ogonek;
}
);
layerId = "16CD5438-0A7A-495F-951A-DBB915DF0BEC";
width = 500;
},
{
components = (
{
name = E;
},
{
name = ogonek;
}
);
layerId = "E49A0581-9397-4BB7-ADB1-45D6EDC9C316";
width = 500;
},
{
components = (
{
name = E;
},
{
name = ogonek;
}
);
layerId = "382F13D7-0CC9-4B85-A585-CBE12F4435D4";
width = 500;
},
{
components = (
{
name = E;
},
{
name = ogonek;
}
);
layerId = "CC486EF6-6464-4B93-9956-4F2B932959EA";
width = 500;
}
);
unicode = 0118;
},
{
glyphname = Ezhreversed;
layers = (
{
background = {
paths = (
{
closed = 1;
nodes = (
"288 309 LINE",
"139 560 LINE",
"411 560 LINE",
"411 623 LINE",
"56 623 LINE",
"56 574 LINE",
"205 322 LINE"
);
}
);
};
guideLines = (
{
angle = 0.6031;
position = "{269, 352}";
},
{
angle = 180;
position = "{260, 560}";
}
);
hints = (
{
origin = "{0, 3}";
type = Corner;
name = _corner.topSpur;
}
);
layerId = "051EFAE4-8BBE-4FBB-A016-4335C3E52F59";
paths = (
{
closed = 1;
nodes = (
"331 -11 OFFCURVE",
"386 13 OFFCURVE",
"429 60 CURVE",
"387 114 LINE",
"353 73 OFFCURVE",
"332 49 OFFCURVE",
"275 49 CURVE SMOOTH",
"191 49 OFFCURVE",
"143 101 OFFCURVE",
"143 177 CURVE SMOOTH",
"143 284 OFFCURVE",
"220 326 OFFCURVE",
"338 320 CURVE",
"338 372 LINE",
"273 372 LINE",
"153 371 OFFCURVE",
"71 281 OFFCURVE",
"71 172 CURVE SMOOTH",
"71 75 OFFCURVE",
"137 -11 OFFCURVE",
"268 -11 CURVE SMOOTH"
);
},
{
closed = 1;
nodes = (
"338 372 LINE",
"166 560 LINE",
"393 560 LINE",
"393 623 LINE",
"88 623 LINE",
"88 560 LINE",
"268 368 LINE"
);
}
);
width = 500;
},
{
background = {
paths = (
{
closed = 1;
nodes = (
"288 309 LINE",
"139 560 LINE",
"411 560 LINE",
"411 623 LINE",
"56 623 LINE",
"56 574 LINE",
"205 322 LINE"
);
}
);
};
guideLines = (
{
angle = 0.6031;
position = "{269, 352}";
},
{
angle = 180;
position = "{260, 560}";
}
);
hints = (
{
origin = "{0, 3}";
type = Corner;
name = _corner.topSpur;
}
);
layerId = "4196E4A4-01D0-4BE0-B812-9D3AF152A0E4";
paths = (
{
closed = 1;
nodes = (
"331 -11 OFFCURVE",
"386 13 OFFCURVE",
"429 60 CURVE",
"387 114 LINE",
"353 73 OFFCURVE",
"332 49 OFFCURVE",
"275 49 CURVE SMOOTH",
"191 49 OFFCURVE",
"143 101 OFFCURVE",
"143 177 CURVE SMOOTH",
"143 284 OFFCURVE",
"220 326 OFFCURVE",
"338 320 CURVE",
"338 372 LINE",
"273 372 LINE",
"153 371 OFFCURVE",
"71 281 OFFCURVE",
"71 172 CURVE SMOOTH",
"71 75 OFFCURVE",
"137 -11 OFFCURVE",
"268 -11 CURVE SMOOTH"
);
},
{
closed = 1;
nodes = (
"338 372 LINE",
"166 560 LINE",
"393 560 LINE",
"393 623 LINE",
"88 623 LINE",
"88 560 LINE",
"268 368 LINE"
);
}
);
width = 500;
},
{
background = {
paths = (
{
closed = 1;
nodes = (
"311 -11 OFFCURVE",
"374 13 OFFCURVE",
"417 60 CURVE",
"375 114 LINE",
"341 73 OFFCURVE",
"310 49 OFFCURVE",
"253 49 CURVE SMOOTH",
"169 49 OFFCURVE",
"131 101 OFFCURVE",
"131 177 CURVE SMOOTH",
"131 284 OFFCURVE",
"208 326 OFFCURVE",
"326 320 CURVE",
"326 372 LINE",
"261 372 LINE",
"141 371 OFFCURVE",
"59 281 OFFCURVE",
"59 172 CURVE SMOOTH",
"59 75 OFFCURVE",
"125 -11 OFFCURVE",
"246 -11 CURVE SMOOTH"
);
},
{
closed = 1;
nodes = (
"326 372 LINE",
"154 560 LINE",
"381 560 LINE",
"381 623 LINE",
"76 623 LINE",
"76 560 LINE",
"256 368 LINE"
);
}
);
};
hints = (
{
origin = "{0, 3}";
type = Corner;
name = _corner.topSpur;
}
);
layerId = "37FE174D-E85B-4C4C-A1AE-51D7E67A9FC9";
paths = (
{
closed = 1;
nodes = (
"346 -19 OFFCURVE",
"405 7 OFFCURVE",
"453 62 CURVE",
"406 149 LINE",
"376 98 OFFCURVE",
"338 78 OFFCURVE",
"274 78 CURVE SMOOTH",
"212 78 OFFCURVE",
"160 112 OFFCURVE",
"160 179 CURVE SMOOTH",
"160 249 OFFCURVE",
"201 300 OFFCURVE",
"335 296 CURVE",
"335 386 LINE",
"301 386 LINE SMOOTH",
"151 386 OFFCURVE",
"48 305 OFFCURVE",
"48 173 CURVE SMOOTH",
"48 68 OFFCURVE",
"134 -19 OFFCURVE",
"267 -19 CURVE SMOOTH"
);
},
{
closed = 1;
nodes = (
"335 386 LINE",
"203 526 LINE",
"415 526 LINE",
"415 623 LINE",
"67 623 LINE",
"67 540 LINE",
"246 355 LINE"
);
}
);
width = 500;
},
{
background = {
paths = (
{
closed = 1;
nodes = (
"288 309 LINE",
"139 560 LINE",
"411 560 LINE",
"411 623 LINE",
"56 623 LINE",
"56 574 LINE",
"205 322 LINE"
);
}
);
};
guideLines = (
{
angle = 0.6031;
position = "{269, 352}";
},
{
angle = 180;
position = "{260, 560}";
}
);
hints = (
{
origin = "{0, 3}";
type = Corner;
name = _corner.topSpur;
}
);
layerId = "7EB90DB1-9188-465D-93C7-E6C577A18003";
paths = (
{
closed = 1;
nodes = (
"331 -11 OFFCURVE",
"386 13 OFFCURVE",
"429 60 CURVE",
"387 114 LINE",
"353 73 OFFCURVE",
"332 49 OFFCURVE",
"275 49 CURVE SMOOTH",
"191 49 OFFCURVE",
"143 101 OFFCURVE",
"143 177 CURVE SMOOTH",
"143 284 OFFCURVE",
"220 326 OFFCURVE",
"338 320 CURVE",
"338 372 LINE",
"273 372 LINE",
"153 371 OFFCURVE",
"71 281 OFFCURVE",
"71 172 CURVE SMOOTH",
"71 75 OFFCURVE",
"137 -11 OFFCURVE",
"268 -11 CURVE SMOOTH"
);
},
{
closed = 1;
nodes = (
"338 372 LINE",
"166 560 LINE",
"393 560 LINE",
"393 623 LINE",
"88 623 LINE",
"88 560 LINE",
"268 368 LINE"
);
}
);
width = 500;
},
{
background = {
paths = (
{
closed = 1;
nodes = (
"288 309 LINE",
"139 560 LINE",
"411 560 LINE",
"411 623 LINE",
"56 623 LINE",
"56 574 LINE",
"205 322 LINE"
);
}
);
};
guideLines = (
{
angle = 0.6031;
position = "{269, 352}";
},
{
angle = 180;
position = "{260, 560}";
}
);
hints = (
{
origin = "{0, 3}";
type = Corner;
name = _corner.topSpur;
}
);
layerId = "0E826D2B-F2D1-4058-A5E0-936DF7ED7520";
paths = (
{
closed = 1;
nodes = (
"331 -11 OFFCURVE",
"386 13 OFFCURVE",
"429 60 CURVE",
"387 114 LINE",
"353 73 OFFCURVE",
"332 49 OFFCURVE",
"275 49 CURVE SMOOTH",
"191 49 OFFCURVE",
"143 101 OFFCURVE",
"143 177 CURVE SMOOTH",
"143 284 OFFCURVE",
"220 326 OFFCURVE",
"338 320 CURVE",
"338 372 LINE",
"273 372 LINE",
"153 371 OFFCURVE",
"71 281 OFFCURVE",
"71 172 CURVE SMOOTH",
"71 75 OFFCURVE",
"137 -11 OFFCURVE",
"268 -11 CURVE SMOOTH"
);
},
{
closed = 1;
nodes = (
"338 372 LINE",
"166 560 LINE",
"393 560 LINE",
"393 623 LINE",
"88 623 LINE",
"88 560 LINE",
"268 368 LINE"
);
}
);
width = 500;
},
{
background = {
paths = (
{
closed = 1;
nodes = (
"288 309 LINE",
"139 560 LINE",
"411 560 LINE",
"411 623 LINE",
"56 623 LINE",
"56 574 LINE",
"205 322 LINE"
);
}
);
};
guideLines = (
{
angle = 0.6031;
position = "{269, 352}";
},
{
angle = 180;
position = "{260, 560}";
}
);
hints = (
{
origin = "{0, 3}";
type = Corner;
name = _corner.topSpur;
}
);
layerId = "16CD5438-0A7A-495F-951A-DBB915DF0BEC";
paths = (
{
closed = 1;
nodes = (
"331 -11 OFFCURVE",
"386 13 OFFCURVE",
"429 60 CURVE",
"387 114 LINE",
"353 73 OFFCURVE",
"332 49 OFFCURVE",
"275 49 CURVE SMOOTH",
"191 49 OFFCURVE",
"143 101 OFFCURVE",
"143 177 CURVE SMOOTH",
"143 284 OFFCURVE",
"220 326 OFFCURVE",
"338 320 CURVE",
"338 372 LINE",
"273 372 LINE",
"153 371 OFFCURVE",
"71 281 OFFCURVE",
"71 172 CURVE SMOOTH",
"71 75 OFFCURVE",
"137 -11 OFFCURVE",
"268 -11 CURVE SMOOTH"
);
},
{
closed = 1;
nodes = (
"338 372 LINE",
"166 560 LINE",
"393 560 LINE",
"393 623 LINE",
"88 623 LINE",
"88 560 LINE",
"268 368 LINE"
);
}
);
width = 500;
},
{
background = {
paths = (
{
closed = 1;
nodes = (
"288 309 LINE",
"139 560 LINE",
"411 560 LINE",
"411 623 LINE",
"56 623 LINE",
"56 574 LINE",
"205 322 LINE"
);
}
);
};
guideLines = (
{
angle = 0.6031;
position = "{269, 352}";
},
{
angle = 180;
position = "{260, 560}";
}
);
hints = (
{
origin = "{0, 3}";
type = Corner;
name = _corner.topSpur;
}
);
layerId = "E49A0581-9397-4BB7-ADB1-45D6EDC9C316";
paths = (
{
closed = 1;
nodes = (
"331 -11 OFFCURVE",
"386 13 OFFCURVE",
"429 60 CURVE",
"387 114 LINE",
"353 73 OFFCURVE",
"332 49 OFFCURVE",
"275 49 CURVE SMOOTH",
"191 49 OFFCURVE",
"143 101 OFFCURVE",
"143 177 CURVE SMOOTH",
"143 284 OFFCURVE",
"220 326 OFFCURVE",
"338 320 CURVE",
"338 372 LINE",
"273 372 LINE",
"153 371 OFFCURVE",
"71 281 OFFCURVE",
"71 172 CURVE SMOOTH",
"71 75 OFFCURVE",
"137 -11 OFFCURVE",
"268 -11 CURVE SMOOTH"
);
},
{
closed = 1;
nodes = (
"338 372 LINE",
"166 560 LINE",
"393 560 LINE",
"393 623 LINE",
"88 623 LINE",
"88 560 LINE",
"268 368 LINE"
);
}
);
width = 500;
},
{
background = {
paths = (
{
closed = 1;
nodes = (
"288 309 LINE",
"139 560 LINE",
"411 560 LINE",
"411 623 LINE",
"56 623 LINE",
"56 574 LINE",
"205 322 LINE"
);
}
);
};
guideLines = (
{
angle = 0.6031;
position = "{269, 352}";
},
{
angle = 180;
position = "{260, 560}";
}
);
hints = (
{
origin = "{0, 3}";
type = Corner;
name = _corner.topSpur;
}
);
layerId = "382F13D7-0CC9-4B85-A585-CBE12F4435D4";
paths = (
{
closed = 1;
nodes = (
"331 -11 OFFCURVE",
"386 13 OFFCURVE",
"429 60 CURVE",
"387 114 LINE",
"353 73 OFFCURVE",
"332 49 OFFCURVE",
"275 49 CURVE SMOOTH",
"191 49 OFFCURVE",
"143 101 OFFCURVE",
"143 177 CURVE SMOOTH",
"143 284 OFFCURVE",
"220 326 OFFCURVE",
"338 320 CURVE",
"338 372 LINE",
"273 372 LINE",
"153 371 OFFCURVE",
"71 281 OFFCURVE",
"71 172 CURVE SMOOTH",
"71 75 OFFCURVE",
"137 -11 OFFCURVE",
"268 -11 CURVE SMOOTH"
);
},
{
closed = 1;
nodes = (
"338 372 LINE",
"166 560 LINE",
"393 560 LINE",
"393 623 LINE",
"88 623 LINE",
"88 560 LINE",
"268 368 LINE"
);
}
);
width = 500;
},
{
background = {
paths = (
{
closed = 1;
nodes = (
"288 309 LINE",
"139 560 LINE",
"411 560 LINE",
"411 623 LINE",
"56 623 LINE",
"56 574 LINE",
"205 322 LINE"
);
}
);
};
guideLines = (
{
angle = 0.6031;
position = "{269, 352}";
},
{
angle = 180;
position = "{260, 560}";
}
);
hints = (
{
origin = "{0, 3}";
type = Corner;
name = _corner.topSpur;
}
);
layerId = "CC486EF6-6464-4B93-9956-4F2B932959EA";
paths = (
{
closed = 1;
nodes = (
"331 -11 OFFCURVE",
"386 13 OFFCURVE",
"429 60 CURVE",
"387 114 LINE",
"353 73 OFFCURVE",
"332 49 OFFCURVE",
"275 49 CURVE SMOOTH",
"191 49 OFFCURVE",
"143 101 OFFCURVE",
"143 177 CURVE SMOOTH",
"143 284 OFFCURVE",
"220 326 OFFCURVE",
"338 320 CURVE",
"338 372 LINE",
"273 372 LINE",
"153 371 OFFCURVE",
"71 281 OFFCURVE",
"71 172 CURVE SMOOTH",
"71 75 OFFCURVE",
"137 -11 OFFCURVE",
"268 -11 CURVE SMOOTH"
);
},
{
closed = 1;
nodes = (
"338 372 LINE",
"166 560 LINE",
"393 560 LINE",
"393 623 LINE",
"88 623 LINE",
"88 560 LINE",
"268 368 LINE"
);
}
);
width = 500;
}
);
unicode = 01B8;
},
{
glyphname = F;
layers = (
{
anchors = (
{
name = bottom;
position = "{250, 0}";
},
{
name = top;
position = "{250, 623}";
}
);
layerId = "051EFAE4-8BBE-4FBB-A016-4335C3E52F59";
paths = (
{
closed = 1;
nodes = (
"148 0 LINE",
"148 306 LINE",
"381 306 LINE",
"381 367 LINE",
"148 367 LINE",
"148 563 LINE",
"437 563 LINE",
"437 624 LINE",
"78 624 LINE",
"78 0 LINE"
);
}
);
width = 500;
},
{
anchors = (
{
name = bottom;
position = "{250, 0}";
},
{
name = top;
position = "{250, 623}";
}
);
layerId = "4196E4A4-01D0-4BE0-B812-9D3AF152A0E4";
paths = (
{
closed = 1;
nodes = (
"118 0 LINE",
"118 323 LINE",
"361 323 LINE",
"361 347 LINE",
"118 347 LINE",
"118 600 LINE",
"417 600 LINE",
"417 624 LINE",
"93 624 LINE",
"93 0 LINE"
);
}
);
width = 500;
},
{
anchors = (
{
name = bottom;
position = "{250, 0}";
},
{
name = top;
position = "{250, 623}";
}
);
background = {
paths = (
{
closed = 1;
nodes = (
"78 0 LINE",
"148 0 LINE",
"148 306 LINE",
"381 306 LINE",
"381 367 LINE",
"148 367 LINE",
"148 563 LINE",
"437 563 LINE",
"437 624 LINE",
"78 624 LINE"
);
}
);
};
layerId = "37FE174D-E85B-4C4C-A1AE-51D7E67A9FC9";
paths = (
{
closed = 1;
nodes = (
"180 0 LINE",
"180 279 LINE",
"412 279 LINE",
"412 391 LINE",
"180 391 LINE",
"180 511 LINE",
"465 511 LINE",
"465 623 LINE",
"58 623 LINE",
"58 0 LINE"
);
}
);
width = 500;
},
{
anchors = (
{
name = bottom;
position = "{125, 0}";
},
{
name = top;
position = "{125, 623}";
}
);
layerId = "7EB90DB1-9188-465D-93C7-E6C577A18003";
paths = (
{
closed = 1;
nodes = (
"90 0 LINE",
"90 309 LINE",
"191 309 LINE",
"191 364 LINE",
"90 364 LINE",
"90 568 LINE",
"219 568 LINE",
"219 624 LINE",
"39 624 LINE",
"39 0 LINE"
);
}
);
width = 250;
},
{
anchors = (
{
name = bottom;
position = "{125, 0}";
},
{
name = top;
position = "{125, 623}";
}
);
layerId = "0E826D2B-F2D1-4058-A5E0-936DF7ED7520";
paths = (
{
closed = 1;
nodes = (
"67 0 LINE",
"67 327 LINE",
"191 327 LINE",
"191 347 LINE",
"67 347 LINE",
"67 604 LINE",
"219 604 LINE",
"219 624 LINE",
"45 624 LINE",
"45 0 LINE"
);
}
);
width = 250;
},
{
anchors = (
{
name = bottom;
position = "{500, 0}";
},
{
name = top;
position = "{500, 623}";
}
);
layerId = "16CD5438-0A7A-495F-951A-DBB915DF0BEC";
paths = (
{
closed = 1;
nodes = (
"183 0 LINE",
"183 322 LINE",
"766 322 LINE",
"766 350 LINE",
"183 350 LINE",
"183 596 LINE",
"878 596 LINE",
"878 624 LINE",
"152 624 LINE",
"152 0 LINE"
);
}
);
width = 1000;
},
{
anchors = (
{
name = bottom;
position = "{125, 0}";
},
{
name = top;
position = "{125, 623}";
}
);
layerId = "E49A0581-9397-4BB7-ADB1-45D6EDC9C316";
paths = (
{
closed = 1;
nodes = (
"114 0 LINE",
"114 289 LINE",
"207 289 LINE",
"207 383 LINE",
"114 383 LINE",
"114 530 LINE",
"229 530 LINE",
"229 624 LINE",
"29 624 LINE",
"29 0 LINE"
);
}
);
width = 250;
},
{
anchors = (
{
name = bottom;
position = "{500, 0}";
},
{
name = top;
position = "{500, 623}";
}
);
layerId = "382F13D7-0CC9-4B85-A585-CBE12F4435D4";
paths = (
{
closed = 1;
nodes = (
"238 0 LINE",
"238 299 LINE",
"772 299 LINE",
"772 373 LINE",
"238 373 LINE",
"238 550 LINE",
"884 550 LINE",
"884 624 LINE",
"146 624 LINE",
"146 0 LINE"
);
}
);
width = 1000;
},
{
anchors = (
{
name = bottom;
position = "{500, 0}";
},
{
name = top;
position = "{500, 623}";
}
);
layerId = "CC486EF6-6464-4B93-9956-4F2B932959EA";
paths = (
{
closed = 1;
nodes = (
"279 0 LINE",
"279 276 LINE",
"792 276 LINE",
"792 396 LINE",
"279 396 LINE",
"279 504 LINE",
"904 504 LINE",
"904 624 LINE",
"126 624 LINE",
"126 0 LINE"
);
}
);
width = 1000;
}
);
unicode = 0046;
},
{
glyphname = G;
layers = (
{
anchors = (
{
name = bottom;
position = "{266, 0}";
},
{
name = top;
position = "{274, 623}";
}
);
hints = (
{
origin = "{0, 19}";
type = Corner;
name = _corner.rightSpur;
}
);
layerId = "051EFAE4-8BBE-4FBB-A016-4335C3E52F59";
paths = (
{
closed = 1;
nodes = (
"340 -10 OFFCURVE",
"401 12 OFFCURVE",
"460 55 CURVE",
"460 299 LINE",
"282 299 LINE",
"282 238 LINE",
"395 238 LINE",
"395 90 LINE",
"363 63 OFFCURVE",
"313 52 OFFCURVE",
"277 52 CURVE SMOOTH",
"171 52 OFFCURVE",
"105 146 OFFCURVE",
"105 319 CURVE SMOOTH",
"105 510 OFFCURVE",
"183 568 OFFCURVE",
"273 568 CURVE SMOOTH",
"333 568 OFFCURVE",
"365 542 OFFCURVE",
"408 485 CURVE",
"458 525 LINE",
"423 588 OFFCURVE",
"348 629 OFFCURVE",
"274 630 CURVE SMOOTH",
"183 631 OFFCURVE",
"33 573 OFFCURVE",
"36 304 CURVE",
"36 115 OFFCURVE",
"128 -10 OFFCURVE",
"277 -10 CURVE SMOOTH"
);
}
);
width = 500;
},
{
anchors = (
{
name = bottom;
position = "{266, 0}";
},
{
name = top;
position = "{274, 623}";
}
);
hints = (
{
origin = "{0, 19}";
type = Corner;
name = _corner.rightSpur;
}
);
layerId = "4196E4A4-01D0-4BE0-B812-9D3AF152A0E4";
paths = (
{
closed = 1;
nodes = (
"340 -10 OFFCURVE",
"381 12 OFFCURVE",
"440 55 CURVE",
"440 282 LINE",
"282 282 LINE",
"282 258 LINE",
"415 258 LINE",
"415 72 LINE",
"377 36 OFFCURVE",
"327 14 OFFCURVE",
"277 14 CURVE SMOOTH",
"144 14 OFFCURVE",
"83 130 OFFCURVE",
"83 319 CURVE SMOOTH",
"83 542 OFFCURVE",
"183 606 OFFCURVE",
"273 606 CURVE SMOOTH",
"333 606 OFFCURVE",
"382 571 OFFCURVE",
"423 509 CURVE",
"438 525 LINE",
"403 588 OFFCURVE",
"348 629 OFFCURVE",
"274 630 CURVE SMOOTH",
"183 631 OFFCURVE",
"53 573 OFFCURVE",
"56 304 CURVE",
"56 115 OFFCURVE",
"128 -10 OFFCURVE",
"277 -10 CURVE SMOOTH"
);
}
);
width = 500;
},
{
anchors = (
{
name = bottom;
position = "{264, 0}";
},
{
name = top;
position = "{267, 623}";
}
);
background = {
paths = (
{
closed = 1;
nodes = (
"458 525 LINE",
"423 588 OFFCURVE",
"353 629 OFFCURVE",
"277 629 CURVE SMOOTH",
"193 630 OFFCURVE",
"33 573 OFFCURVE",
"36 304 CURVE",
"36 115 OFFCURVE",
"128 -10 OFFCURVE",
"277 -10 CURVE SMOOTH",
"340 -10 OFFCURVE",
"401 12 OFFCURVE",
"460 55 CURVE",
"460 299 LINE",
"282 299 LINE",
"282 238 LINE",
"395 238 LINE",
"395 90 LINE",
"360 65 OFFCURVE",
"320 52 OFFCURVE",
"277 52 CURVE SMOOTH",
"178 52 OFFCURVE",
"105 146 OFFCURVE",
"105 319 CURVE SMOOTH",
"105 510 OFFCURVE",
"198 568 OFFCURVE",
"276 568 CURVE SMOOTH",
"332 568 OFFCURVE",
"376 538 OFFCURVE",
"396 494 CURVE SMOOTH",
"401 484 OFFCURVE",
"405 478 OFFCURVE",
"409 475 CURVE",
"458 525 LINE"
);
}
);
};
hints = (
{
origin = "{0, 19}";
type = Corner;
name = _corner.rightSpur;
}
);
layerId = "37FE174D-E85B-4C4C-A1AE-51D7E67A9FC9";
paths = (
{
closed = 1;
nodes = (
"349 -12 OFFCURVE",
"421 3 OFFCURVE",
"481 53 CURVE",
"481 335 LINE",
"259 335 LINE",
"259 220 LINE",
"355 220 LINE",
"355 126 LINE",
"329 106 OFFCURVE",
"306 100 OFFCURVE",
"276 100 CURVE SMOOTH",
"208 100 OFFCURVE",
"158 168 OFFCURVE",
"158 319 CURVE SMOOTH",
"158 462 OFFCURVE",
"217 520 OFFCURVE",
"281 520 CURVE SMOOTH",
"363 520 OFFCURVE",
"380 465 OFFCURVE",
"402 440 CURVE",
"480 524 LINE",
"440 597 OFFCURVE",
"361 635 OFFCURVE",
"276 635 CURVE SMOOTH",
"184 635 OFFCURVE",
"18 574 OFFCURVE",
"18 312 CURVE SMOOTH",
"18 117 OFFCURVE",
"113 -12 OFFCURVE",
"276 -12 CURVE SMOOTH"
);
}
);
width = 500;
},
{
anchors = (
{
name = bottom;
position = "{133, 0}";
},
{
name = top;
position = "{137, 623}";
}
);
hints = (
{
origin = "{0, 19}";
type = Corner;
name = _corner.rightSpur;
}
);
layerId = "7EB90DB1-9188-465D-93C7-E6C577A18003";
paths = (
{
closed = 1;
nodes = (
"170 -10 OFFCURVE",
"200 7 OFFCURVE",
"230 50 CURVE",
"230 295 LINE",
"131 295 LINE",
"131 241 LINE",
"179 241 LINE",
"179 74 LINE",
"167 54 OFFCURVE",
"151 46 OFFCURVE",
"135 46 CURVE SMOOTH",
"98 46 OFFCURVE",
"68 146 OFFCURVE",
"68 319 CURVE SMOOTH",
"68 510 OFFCURVE",
"97 573 OFFCURVE",
"136 573 CURVE SMOOTH",
"166 573 OFFCURVE",
"181 549 OFFCURVE",
"199 506 CURVE",
"229 538 LINE",
"218 590 OFFCURVE",
"185 630 OFFCURVE",
"137 630 CURVE SMOOTH",
"82 630 OFFCURVE",
"14 582 OFFCURVE",
"18 304 CURVE",
"18 90 OFFCURVE",
"64 -10 OFFCURVE",
"138 -10 CURVE SMOOTH"
);
}
);
width = 250;
},
{
anchors = (
{
name = bottom;
position = "{133, 0}";
},
{
name = top;
position = "{137, 623}";
}
);
hints = (
{
origin = "{0, 19}";
type = Corner;
name = _corner.rightSpur;
}
);
layerId = "0E826D2B-F2D1-4058-A5E0-936DF7ED7520";
paths = (
{
closed = 1;
nodes = (
"170 -10 OFFCURVE",
"211 12 OFFCURVE",
"230 50 CURVE",
"230 278 LINE",
"121 278 LINE",
"121 258 LINE",
"208 258 LINE",
"208 54 LINE",
"194 32 OFFCURVE",
"168 10 OFFCURVE",
"137 10 CURVE SMOOTH",
"81 10 OFFCURVE",
"44 101 OFFCURVE",
"44 319 CURVE SMOOTH",
"44 565 OFFCURVE",
"97 609 OFFCURVE",
"136 609 CURVE SMOOTH",
"168 609 OFFCURVE",
"195 573 OFFCURVE",
"213 525 CURVE",
"228 539 LINE",
"211 587 OFFCURVE",
"185 630 OFFCURVE",
"137 630 CURVE SMOOTH",
"82 630 OFFCURVE",
"18 582 OFFCURVE",
"22 304 CURVE",
"22 90 OFFCURVE",
"64 -10 OFFCURVE",
"138 -10 CURVE SMOOTH"
);
}
);
width = 250;
},
{
anchors = (
{
name = bottom;
position = "{526, 0}";
},
{
name = top;
position = "{542, 623}";
}
);
hints = (
{
origin = "{0, 19}";
type = Corner;
name = _corner.rightSpur;
}
);
layerId = "16CD5438-0A7A-495F-951A-DBB915DF0BEC";
paths = (
{
closed = 1;
nodes = (
"674 -10 OFFCURVE",
"790 12 OFFCURVE",
"908 55 CURVE",
"908 283 LINE",
"558 283 LINE",
"558 255 LINE",
"877 255 LINE",
"878 74 LINE",
"814 47 OFFCURVE",
"660 18 OFFCURVE",
"548 18 CURVE SMOOTH",
"271 18 OFFCURVE",
"103 135 OFFCURVE",
"103 312 CURVE SMOOTH",
"103 550 OFFCURVE",
"329 602 OFFCURVE",
"540 602 CURVE SMOOTH",
"660 602 OFFCURVE",
"824 563 OFFCURVE",
"886 506 CURVE",
"904 525 LINE",
"834 588 OFFCURVE",
"690 628 OFFCURVE",
"542 630 CURVE SMOOTH",
"315 633 OFFCURVE",
"72 564 OFFCURVE",
"72 311 CURVE",
"72 122 OFFCURVE",
"250 -10 OFFCURVE",
"548 -10 CURVE SMOOTH"
);
}
);
width = 1000;
},
{
anchors = (
{
name = bottom;
position = "{133, 0}";
},
{
name = top;
position = "{137, 623}";
}
);
hints = (
{
origin = "{0, 19}";
type = Corner;
name = _corner.rightSpur;
}
);
layerId = "E49A0581-9397-4BB7-ADB1-45D6EDC9C316";
paths = (
{
closed = 1;
nodes = (
"170 -10 OFFCURVE",
"204 7 OFFCURVE",
"234 50 CURVE",
"234 325 LINE",
"131 325 LINE",
"131 231 LINE",
"159 231 LINE",
"159 95 LINE",
"154 88 OFFCURVE",
"148 83 OFFCURVE",
"137 83 CURVE SMOOTH",
"112 83 OFFCURVE",
"100 146 OFFCURVE",
"100 319 CURVE SMOOTH",
"100 493 OFFCURVE",
"116 536 OFFCURVE",
"149 536 CURVE SMOOTH",
"175 536 OFFCURVE",
"191 509 OFFCURVE",
"203 481 CURVE",
"233 563 LINE",
"218 605 OFFCURVE",
"189 630 OFFCURVE",
"141 630 CURVE SMOOTH",
"73 630 OFFCURVE",
"10 563 OFFCURVE",
"14 304 CURVE",
"14 90 OFFCURVE",
"55 -10 OFFCURVE",
"138 -10 CURVE SMOOTH"
);
}
);
width = 250;
},
{
anchors = (
{
name = bottom;
position = "{523, 0}";
},
{
name = top;
position = "{539, 623}";
}
);
hints = (
{
origin = "{0, 19}";
type = Corner;
name = _corner.rightSpur;
}
);
layerId = "382F13D7-0CC9-4B85-A585-CBE12F4435D4";
paths = (
{
closed = 1;
nodes = (
"671 -10 OFFCURVE",
"793 12 OFFCURVE",
"911 55 CURVE",
"911 305 LINE",
"555 305 LINE",
"555 232 LINE",
"819 232 LINE",
"819 105 LINE",
"755 78 OFFCURVE",
"627 63 OFFCURVE",
"545 63 CURVE SMOOTH",
"333 63 OFFCURVE",
"155 146 OFFCURVE",
"155 319 CURVE SMOOTH",
"155 510 OFFCURVE",
"357 556 OFFCURVE",
"537 556 CURVE SMOOTH",
"657 556 OFFCURVE",
"782 526 OFFCURVE",
"844 469 CURVE",
"907 525 LINE",
"837 588 OFFCURVE",
"687 629 OFFCURVE",
"539 630 CURVE SMOOTH",
"357 631 OFFCURVE",
"57 573 OFFCURVE",
"63 304 CURVE",
"63 115 OFFCURVE",
"247 -10 OFFCURVE",
"545 -10 CURVE SMOOTH"
);
}
);
width = 1000;
},
{
anchors = (
{
name = bottom;
position = "{532, 0}";
},
{
name = top;
position = "{548, 623}";
}
);
hints = (
{
origin = "{0, 19}";
type = Corner;
name = _corner.rightSpur;
}
);
layerId = "CC486EF6-6464-4B93-9956-4F2B932959EA";
paths = (
{
closed = 1;
nodes = (
"670 -10 OFFCURVE",
"802 12 OFFCURVE",
"920 55 CURVE",
"920 340 LINE",
"554 340 LINE",
"554 217 LINE",
"768 217 LINE",
"768 152 LINE",
"704 125 OFFCURVE",
"616 114 OFFCURVE",
"544 114 CURVE SMOOTH",
"332 114 OFFCURVE",
"204 192 OFFCURVE",
"204 319 CURVE SMOOTH",
"204 457 OFFCURVE",
"356 505 OFFCURVE",
"536 505 CURVE SMOOTH",
"656 505 OFFCURVE",
"775 479 OFFCURVE",
"837 422 CURVE",
"916 525 LINE",
"846 588 OFFCURVE",
"686 629 OFFCURVE",
"538 630 CURVE SMOOTH",
"356 631 OFFCURVE",
"46 573 OFFCURVE",
"52 304 CURVE",
"52 115 OFFCURVE",
"246 -10 OFFCURVE",
"544 -10 CURVE SMOOTH"
);
}
);
width = 1000;
}
);
unicode = 0047;
},
{
glyphname = Gbreve;
layers = (
{
components = (
{
name = G;
},
{
name = brevecomb.case;
transform = "{1, 0, 0, 1, 24, 0}";
}
);
layerId = "051EFAE4-8BBE-4FBB-A016-4335C3E52F59";
width = 500;
},
{
components = (
{
name = G;
},
{
name = brevecomb.case;
transform = "{1, 0, 0, 1, 24, 0}";
}
);
layerId = "4196E4A4-01D0-4BE0-B812-9D3AF152A0E4";
width = 500;
},
{
background = {
paths = (
{
closed = 1;
nodes = (
"458 525 LINE",
"423 588 OFFCURVE",
"353 629 OFFCURVE",
"277 629 CURVE SMOOTH",
"193 630 OFFCURVE",
"33 573 OFFCURVE",
"36 304 CURVE",
"36 115 OFFCURVE",
"128 -10 OFFCURVE",
"277 -10 CURVE SMOOTH",
"340 -10 OFFCURVE",
"401 12 OFFCURVE",
"460 55 CURVE",
"460 299 LINE",
"282 299 LINE",
"282 238 LINE",
"395 238 LINE",
"395 90 LINE",
"360 65 OFFCURVE",
"320 52 OFFCURVE",
"277 52 CURVE SMOOTH",
"178 52 OFFCURVE",
"105 146 OFFCURVE",
"105 319 CURVE SMOOTH",
"105 510 OFFCURVE",
"198 568 OFFCURVE",
"276 568 CURVE SMOOTH",
"332 568 OFFCURVE",
"376 538 OFFCURVE",
"396 494 CURVE SMOOTH",
"401 484 OFFCURVE",
"405 478 OFFCURVE",
"409 475 CURVE",
"458 525 LINE"
);
},
{
closed = 1;
nodes = (
"110 745 LINE",
"153 694 OFFCURVE",
"204 668 OFFCURVE",
"261 668 CURVE SMOOTH",
"317 668 OFFCURVE",
"371 700 OFFCURVE",
"406 748 CURVE",
"378 790 LINE",
"342 743 OFFCURVE",
"302 720 OFFCURVE",
"259 720 CURVE SMOOTH",
"214 720 OFFCURVE",
"172 750 OFFCURVE",
"147 790 CURVE"
);
}
);
};
components = (
{
name = G;
},
{
name = brevecomb.case;
transform = "{1, 0, 0, 1, 17, 0}";
}
);
layerId = "37FE174D-E85B-4C4C-A1AE-51D7E67A9FC9";
width = 500;
},
{
components = (
{
name = G;
},
{
name = brevecomb.case;
transform = "{1, 0, 0, 1, -113, 0}";
}
);
layerId = "7EB90DB1-9188-465D-93C7-E6C577A18003";
width = 250;
},
{
components = (
{
name = G;
},
{
name = brevecomb.case;
transform = "{1, 0, 0, 1, -113, 0}";
}
);
layerId = "0E826D2B-F2D1-4058-A5E0-936DF7ED7520";
width = 250;
},
{
components = (
{
name = G;
},
{
name = brevecomb.case;
transform = "{1, 0, 0, 1, 292, 0}";
}
);
layerId = "16CD5438-0A7A-495F-951A-DBB915DF0BEC";
width = 1000;
},
{
components = (
{
name = G;
},
{
name = brevecomb.case;
transform = "{1, 0, 0, 1, -113, 0}";
}
);
layerId = "E49A0581-9397-4BB7-ADB1-45D6EDC9C316";
width = 250;
},
{
components = (
{
name = G;
},
{
name = brevecomb.case;
transform = "{1, 0, 0, 1, 289, 0}";
}
);
layerId = "382F13D7-0CC9-4B85-A585-CBE12F4435D4";
width = 1000;
},
{
components = (
{
name = G;
},
{
name = brevecomb.case;
transform = "{1, 0, 0, 1, 298, 0}";
}
);
layerId = "CC486EF6-6464-4B93-9956-4F2B932959EA";
width = 1000;
}
);
unicode = 011E;
},
{
glyphname = H;
layers = (
{
anchors = (
{
name = bottom;
position = "{250, 0}";
},
{
name = center;
position = "{250, 312}";
},
{
name = top;
position = "{250, 623}";
},
{
name = topleft;
position = "{20, 623}";
}
);
hints = (
{
origin = "{0, 9}";
type = Corner;
name = _corner.rightSpur;
},
{
origin = "{0, 5}";
type = Corner;
name = _corner.rightSpur;
}
);
layerId = "051EFAE4-8BBE-4FBB-A016-4335C3E52F59";
paths = (
{
closed = 1;
nodes = (
"123 0 LINE",
"123 297 LINE",
"366 297 LINE",
"366 0 LINE",
"440 0 LINE",
"440 623 LINE",
"367 623 LINE",
"367 357 LINE",
"123 357 LINE",
"123 623 LINE",
"50 623 LINE",
"50 0 LINE"
);
}
);
width = 500;
},
{
anchors = (
{
name = bottom;
position = "{250, 0}";
},
{
name = center;
position = "{250, 312}";
},
{
name = top;
position = "{250, 623}";
},
{
name = topleft;
position = "{20, 623}";
}
);
hints = (
{
origin = "{0, 5}";
type = Corner;
name = _corner.rightSpur;
},
{
origin = "{0, 9}";
type = Corner;
name = _corner.rightSpur;
}
);
layerId = "4196E4A4-01D0-4BE0-B812-9D3AF152A0E4";
paths = (
{
closed = 1;
nodes = (
"87 0 LINE",
"87 331 LINE",
"403 331 LINE",
"403 0 LINE",
"430 0 LINE",
"430 623 LINE",
"404 623 LINE",
"404 355 LINE",
"87 355 LINE",
"87 623 LINE",
"60 623 LINE",
"60 0 LINE"
);
}
);
width = 500;
},
{
anchors = (
{
name = bottom;
position = "{250, 0}";
},
{
name = center;
position = "{250, 312}";
},
{
name = top;
position = "{250, 623}";
},
{
name = topleft;
position = "{20, 623}";
}
);
background = {
paths = (
{
closed = 1;
nodes = (
"54 0 LINE",
"127 0 LINE",
"127 297 LINE",
"370 297 LINE",
"370 -1 LINE",
"441 -1 LINE",
"441 601 LINE",
"442 609 OFFCURVE",
"448 615 OFFCURVE",
"448 620 CURVE SMOOTH",
"448 621 OFFCURVE",
"448 622 OFFCURVE",
"447 623 CURVE",
"371 623 LINE",
"371 356 LINE",
"127 356 LINE",
"127 599 LINE",
"128 610 OFFCURVE",
"133 616 OFFCURVE",
"133 620 CURVE SMOOTH",
"133 621 OFFCURVE",
"133 622 OFFCURVE",
"132 623 CURVE",
"54 623 LINE"
);
}
);
};
hints = (
{
origin = "{0, 5}";
type = Corner;
name = _corner.rightSpur;
},
{
origin = "{0, 9}";
type = Corner;
name = _corner.rightSpur;
}
);
layerId = "37FE174D-E85B-4C4C-A1AE-51D7E67A9FC9";
paths = (
{
closed = 1;
nodes = (
"172 0 LINE",
"172 269 LINE",
"329 269 LINE",
"329 0 LINE",
"471 0 LINE",
"471 623 LINE",
"329 623 LINE",
"329 379 LINE",
"172 379 LINE",
"172 623 LINE",
"30 623 LINE",
"30 0 LINE"
);
}
);
width = 500;
},
{
anchors = (
{
name = bottom;
position = "{250, 0}";
},
{
name = center;
position = "{250, 312}";
},
{
name = top;
position = "{250, 623}";
},
{
name = topleft;
position = "{20, 623}";
}
);
hints = (
{
origin = "{0, 5}";
scale = "{0.5, 1}";
type = Corner;
name = _corner.rightSpur;
},
{
origin = "{0, 9}";
scale = "{0.5, 1}";
type = Corner;
name = _corner.rightSpur;
}
);
layerId = "7EB90DB1-9188-465D-93C7-E6C577A18003";
paths = (
{
closed = 1;
nodes = (
"76 0 LINE",
"76 299 LINE",
"168 299 LINE",
"168 0 LINE",
"220 0 LINE",
"220 623 LINE",
"168 623 LINE",
"168 355 LINE",
"76 355 LINE",
"76 623 LINE",
"25 623 LINE",
"25 0 LINE"
);
}
);
width = 250;
},
{
anchors = (
{
name = bottom;
position = "{126, 0}";
},
{
name = center;
position = "{126, 312}";
},
{
name = top;
position = "{126, 623}";
},
{
name = topleft;
position = "{11, 623}";
}
);
hints = (
{
origin = "{0, 5}";
scale = "{0.5, 1}";
type = Corner;
name = _corner.rightSpur;
},
{
origin = "{0, 9}";
scale = "{0.5, 1}";
type = Corner;
name = _corner.rightSpur;
}
);
layerId = "0E826D2B-F2D1-4058-A5E0-936DF7ED7520";
paths = (
{
closed = 1;
nodes = (
"50 0 LINE",
"50 333 LINE",
"197 333 LINE",
"197 0 LINE",
"219 0 LINE",
"219 623 LINE",
"197 623 LINE",
"197 353 LINE",
"50 353 LINE",
"50 623 LINE",
"28 623 LINE",
"28 0 LINE"
);
}
);
width = 250;
},
{
anchors = (
{
name = bottom;
position = "{500, 0}";
},
{
name = center;
position = "{501, 328}";
},
{
name = top;
position = "{499, 623}";
},
{
name = topleft;
position = "{135, 623}";
}
);
hints = (
{
origin = "{0, 5}";
type = Corner;
name = _corner.rightSpur;
},
{
origin = "{0, 9}";
type = Corner;
name = _corner.rightSpur;
}
);
layerId = "16CD5438-0A7A-495F-951A-DBB915DF0BEC";
paths = (
{
closed = 1;
nodes = (
"147 0 LINE",
"147 313 LINE",
"833 313 LINE",
"833 0 LINE",
"864 0 LINE",
"864 623 LINE",
"833 623 LINE",
"833 341 LINE",
"147 341 LINE",
"147 623 LINE",
"117 623 LINE",
"117 0 LINE"
);
}
);
width = 1000;
},
{
anchors = (
{
name = bottom;
position = "{250, 0}";
},
{
name = center;
position = "{250, 312}";
},
{
name = top;
position = "{250, 623}";
},
{
name = topleft;
position = "{20, 623}";
}
);
hints = (
{
origin = "{0, 5}";
scale = "{0.5, 1}";
type = Corner;
name = _corner.rightSpur;
},
{
origin = "{0, 9}";
scale = "{0.5, 1}";
type = Corner;
name = _corner.rightSpur;
}
);
layerId = "E49A0581-9397-4BB7-ADB1-45D6EDC9C316";
paths = (
{
closed = 1;
nodes = (
"101 0 LINE",
"101 279 LINE",
"143 279 LINE",
"143 0 LINE",
"230 0 LINE",
"230 623 LINE",
"143 623 LINE",
"143 375 LINE",
"101 375 LINE",
"101 623 LINE",
"15 623 LINE",
"15 0 LINE"
);
}
);
width = 250;
},
{
anchors = (
{
name = bottom;
position = "{500, 0}";
},
{
name = center;
position = "{500, 328}";
},
{
name = top;
position = "{500, 623}";
},
{
name = topleft;
position = "{136, 623}";
}
);
hints = (
{
origin = "{0, 5}";
type = Corner;
name = _corner.rightSpur;
},
{
origin = "{0, 9}";
type = Corner;
name = _corner.rightSpur;
}
);
layerId = "382F13D7-0CC9-4B85-A585-CBE12F4435D4";
paths = (
{
closed = 1;
nodes = (
"177 0 LINE",
"177 290 LINE",
"803 290 LINE",
"803 0 LINE",
"895 0 LINE",
"895 623 LINE",
"803 623 LINE",
"803 364 LINE",
"177 364 LINE",
"177 623 LINE",
"85 623 LINE",
"85 0 LINE"
);
}
);
width = 1000;
},
{
anchors = (
{
name = bottom;
position = "{499, 0}";
},
{
name = center;
position = "{500, 327}";
},
{
name = top;
position = "{499, 623}";
},
{
name = topleft;
position = "{132, 623}";
}
);
hints = (
{
origin = "{0, 5}";
type = Corner;
name = _corner.rightSpur;
},
{
origin = "{0, 9}";
type = Corner;
name = _corner.rightSpur;
}
);
layerId = "CC486EF6-6464-4B93-9956-4F2B932959EA";
paths = (
{
closed = 1;
nodes = (
"209 0 LINE",
"209 267 LINE",
"773 267 LINE",
"773 0 LINE",
"926 0 LINE",
"926 623 LINE",
"772 623 LINE",
"772 387 LINE",
"209 387 LINE",
"209 623 LINE",
"56 623 LINE",
"56 0 LINE"
);
}
);
width = 1000;
}
);
unicode = 0048;
},
{
glyphname = Hbar;
layers = (
{
components = (
{
name = H;
}
);
layerId = "051EFAE4-8BBE-4FBB-A016-4335C3E52F59";
paths = (
{
closed = 1;
nodes = (
"490 498 LINE",
"490 553 LINE",
"0 553 LINE",
"0 498 LINE"
);
}
);
width = 500;
},
{
components = (
{
name = H;
}
);
layerId = "4196E4A4-01D0-4BE0-B812-9D3AF152A0E4";
paths = (
{
closed = 1;
nodes = (
"490 498 LINE",
"490 553 LINE",
"0 553 LINE",
"0 498 LINE"
);
}
);
width = 500;
},
{
components = (
{
name = H;
}
);
layerId = "37FE174D-E85B-4C4C-A1AE-51D7E67A9FC9";
paths = (
{
closed = 1;
nodes = (
"498 493 LINE",
"498 564 LINE",
"3 564 LINE",
"3 493 LINE"
);
}
);
width = 500;
},
{
components = (
{
name = H;
}
);
layerId = "7EB90DB1-9188-465D-93C7-E6C577A18003";
paths = (
{
closed = 1;
nodes = (
"490 498 LINE",
"490 553 LINE",
"0 553 LINE",
"0 498 LINE"
);
}
);
width = 500;
},
{
components = (
{
name = H;
}
);
layerId = "0E826D2B-F2D1-4058-A5E0-936DF7ED7520";
paths = (
{
closed = 1;
nodes = (
"490 498 LINE",
"490 553 LINE",
"0 553 LINE",
"0 498 LINE"
);
}
);
width = 500;
},
{
components = (
{
name = H;
}
);
layerId = "16CD5438-0A7A-495F-951A-DBB915DF0BEC";
paths = (
{
closed = 1;
nodes = (
"490 498 LINE",
"490 553 LINE",
"0 553 LINE",
"0 498 LINE"
);
}
);
width = 500;
},
{
components = (
{
name = H;
}
);
layerId = "E49A0581-9397-4BB7-ADB1-45D6EDC9C316";
paths = (
{
closed = 1;
nodes = (
"490 498 LINE",
"490 553 LINE",
"0 553 LINE",
"0 498 LINE"
);
}
);
width = 500;
},
{
components = (
{
name = H;
}
);
layerId = "382F13D7-0CC9-4B85-A585-CBE12F4435D4";
paths = (
{
closed = 1;
nodes = (
"490 498 LINE",
"490 553 LINE",
"0 553 LINE",
"0 498 LINE"
);
}
);
width = 500;
},
{
components = (
{
name = H;
}
);
layerId = "CC486EF6-6464-4B93-9956-4F2B932959EA";
paths = (
{
closed = 1;
nodes = (
"490 498 LINE",
"490 553 LINE",
"0 553 LINE",
"0 498 LINE"
);
}
);
width = 500;
}
);
unicode = 0126;
},
{
glyphname = I;
layers = (
{
anchors = (
{
name = bottom;
position = "{250, 0}";
},
{
name = ogonek;
position = "{353, 0}";
},
{
name = top;
position = "{239, 623}";
},
{
name = topleft;
position = "{20, 623}";
}
);
layerId = "051EFAE4-8BBE-4FBB-A016-4335C3E52F59";
paths = (
{
closed = 1;
nodes = (
"403 0 LINE",
"403 58 LINE",
"274 58 LINE",
"274 564 LINE",
"397 564 LINE",
"397 623 LINE",
"88 623 LINE",
"88 564 LINE",
"204 564 LINE",
"204 59 LINE",
"81 59 LINE",
"81 0 LINE"
);
}
);
width = 500;
},
{
anchors = (
{
name = bottom;
position = "{250, 0}";
},
{
name = ogonek;
position = "{353, 0}";
},
{
name = top;
position = "{239, 623}";
},
{
name = topleft;
position = "{20, 623}";
}
);
layerId = "4196E4A4-01D0-4BE0-B812-9D3AF152A0E4";
paths = (
{
closed = 1;
nodes = (
"383 0 LINE",
"383 24 LINE",
"252 24 LINE",
"252 599 LINE",
"377 599 LINE",
"377 623 LINE",
"108 623 LINE",
"108 599 LINE",
"225 599 LINE",
"225 24 LINE",
"101 24 LINE",
"101 0 LINE"
);
}
);
width = 500;
},
{
anchors = (
{
name = bottom;
position = "{250, 0}";
},
{
name = ogonek;
position = "{356, 0}";
},
{
name = top;
position = "{250, 623}";
},
{
name = topleft;
position = "{20, 623}";
}
);
background = {
paths = (
{
closed = 1;
nodes = (
"88 564 LINE",
"204 564 LINE",
"204 58 LINE",
"81 58 LINE",
"81 -1 LINE",
"403 -1 LINE",
"403 57 LINE",
"274 57 LINE",
"274 564 LINE",
"397 564 LINE",
"397 623 LINE",
"88 623 LINE"
);
}
);
};
layerId = "37FE174D-E85B-4C4C-A1AE-51D7E67A9FC9";
paths = (
{
closed = 1;
nodes = (
"442 0 LINE",
"442 113 LINE",
"316 113 LINE",
"316 510 LINE",
"437 510 LINE",
"437 623 LINE",
"69 623 LINE",
"69 510 LINE",
"184 510 LINE",
"184 113 LINE",
"63 113 LINE",
"63 0 LINE"
);
}
);
width = 500;
},
{
anchors = (
{
name = bottom;
position = "{126, 0}";
},
{
name = ogonek;
position = "{177, 0}";
},
{
name = top;
position = "{120, 623}";
},
{
name = topleft;
position = "{11, 623}";
}
);
layerId = "7EB90DB1-9188-465D-93C7-E6C577A18003";
paths = (
{
closed = 1;
nodes = (
"202 0 LINE",
"202 55 LINE",
"146 55 LINE",
"146 567 LINE",
"199 567 LINE",
"199 623 LINE",
"42 623 LINE",
"42 567 LINE",
"95 567 LINE",
"95 56 LINE",
"41 56 LINE",
"41 0 LINE"
);
}
);
width = 250;
},
{
anchors = (
{
name = bottom;
position = "{126, 0}";
},
{
name = ogonek;
position = "{177, 0}";
},
{
name = top;
position = "{120, 623}";
},
{
name = topleft;
position = "{11, 623}";
}
);
layerId = "0E826D2B-F2D1-4058-A5E0-936DF7ED7520";
paths = (
{
closed = 1;
nodes = (
"202 0 LINE",
"202 19 LINE",
"132 19 LINE",
"132 603 LINE",
"199 603 LINE",
"199 623 LINE",
"42 623 LINE",
"42 603 LINE",
"110 603 LINE",
"110 20 LINE",
"41 20 LINE",
"41 0 LINE"
);
}
);
width = 250;
},
{
anchors = (
{
name = bottom;
position = "{499, 0}";
},
{
name = ogonek;
position = "{705, 0}";
},
{
name = top;
position = "{477, 623}";
},
{
name = topleft;
position = "{39, 623}";
}
);
layerId = "16CD5438-0A7A-495F-951A-DBB915DF0BEC";
paths = (
{
closed = 1;
nodes = (
"805 0 LINE",
"805 27 LINE",
"492 27 LINE",
"492 595 LINE",
"793 595 LINE",
"793 623 LINE",
"165 623 LINE",
"165 595 LINE",
"461 595 LINE",
"461 28 LINE",
"151 28 LINE",
"151 0 LINE"
);
}
);
width = 1000;
},
{
anchors = (
{
name = bottom;
position = "{126, 0}";
},
{
name = ogonek;
position = "{177, 0}";
},
{
name = top;
position = "{120, 623}";
},
{
name = topleft;
position = "{11, 623}";
}
);
layerId = "E49A0581-9397-4BB7-ADB1-45D6EDC9C316";
paths = (
{
closed = 1;
nodes = (
"218 0 LINE",
"218 93 LINE",
"163 93 LINE",
"163 525 LINE",
"215 525 LINE",
"215 623 LINE",
"26 623 LINE",
"26 525 LINE",
"78 525 LINE",
"78 94 LINE",
"25 94 LINE",
"25 0 LINE"
);
}
);
width = 250;
},
{
anchors = (
{
name = bottom;
position = "{499, 0}";
},
{
name = ogonek;
position = "{705, 0}";
},
{
name = top;
position = "{477, 623}";
},
{
name = topleft;
position = "{39, 623}";
}
);
layerId = "382F13D7-0CC9-4B85-A585-CBE12F4435D4";
paths = (
{
closed = 1;
nodes = (
"805 0 LINE",
"805 73 LINE",
"523 73 LINE",
"523 549 LINE",
"793 549 LINE",
"793 623 LINE",
"165 623 LINE",
"165 549 LINE",
"431 549 LINE",
"431 74 LINE",
"151 74 LINE",
"151 0 LINE"
);
}
);
width = 1000;
},
{
anchors = (
{
name = bottom;
position = "{499, 0}";
},
{
name = ogonek;
position = "{705, 0}";
},
{
name = top;
position = "{477, 623}";
},
{
name = topleft;
position = "{39, 623}";
}
);
layerId = "CC486EF6-6464-4B93-9956-4F2B932959EA";
paths = (
{
closed = 1;
nodes = (
"815 0 LINE",
"815 123 LINE",
"554 123 LINE",
"554 499 LINE",
"803 499 LINE",
"803 623 LINE",
"155 623 LINE",
"155 499 LINE",
"401 499 LINE",
"401 124 LINE",
"141 124 LINE",
"141 0 LINE"
);
}
);
width = 1000;
}
);
unicode = 0049;
},
{
glyphname = Iacute;
layers = (
{
components = (
{
name = I;
},
{
name = acutecomb.case;
transform = "{1, 0, 0, 1, -30, 0}";
}
);
layerId = "051EFAE4-8BBE-4FBB-A016-4335C3E52F59";
width = 500;
},
{
components = (
{
name = I;
},
{
name = acutecomb.case;
transform = "{1, 0, 0, 1, -30, 0}";
}
);
layerId = "4196E4A4-01D0-4BE0-B812-9D3AF152A0E4";
width = 500;
},
{
background = {
paths = (
{
closed = 1;
nodes = (
"88 564 LINE",
"204 564 LINE",
"204 58 LINE",
"81 58 LINE",
"81 -1 LINE",
"403 -1 LINE",
"403 57 LINE",
"274 57 LINE",
"274 564 LINE",
"397 564 LINE",
"397 623 LINE",
"88 623 LINE"
);
},
{
closed = 1;
nodes = (
"173 702 LINE",
"196 660 LINE",
"365 721 LINE",
"325 791 LINE"
);
}
);
};
components = (
{
name = I;
},
{
name = acutecomb.case;
transform = "{1, 0, 0, 1, -20, 0}";
}
);
layerId = "37FE174D-E85B-4C4C-A1AE-51D7E67A9FC9";
width = 500;
},
{
components = (
{
name = I;
},
{
name = acutecomb.case;
transform = "{1, 0, 0, 1, -149, 0}";
}
);
layerId = "7EB90DB1-9188-465D-93C7-E6C577A18003";
width = 250;
},
{
components = (
{
name = I;
},
{
name = acutecomb.case;
transform = "{1, 0, 0, 1, -149, 0}";
}
);
layerId = "0E826D2B-F2D1-4058-A5E0-936DF7ED7520";
width = 250;
},
{
components = (
{
name = I;
},
{
name = acutecomb.case;
transform = "{1, 0, 0, 1, 208, 0}";
}
);
layerId = "16CD5438-0A7A-495F-951A-DBB915DF0BEC";
width = 1000;
},
{
components = (
{
name = I;
},
{
name = acutecomb.case;
transform = "{1, 0, 0, 1, -149, 0}";
}
);
layerId = "E49A0581-9397-4BB7-ADB1-45D6EDC9C316";
width = 250;
},
{
components = (
{
name = I;
},
{
name = acutecomb.case;
transform = "{1, 0, 0, 1, 208, 0}";
}
);
layerId = "382F13D7-0CC9-4B85-A585-CBE12F4435D4";
width = 1000;
},
{
components = (
{
name = I;
},
{
name = acutecomb.case;
transform = "{1, 0, 0, 1, 208, 0}";
}
);
layerId = "CC486EF6-6464-4B93-9956-4F2B932959EA";
width = 1000;
}
);
unicode = 00CD;
},
{
glyphname = Icircumflex;
layers = (
{
components = (
{
name = I;
},
{
name = circumflexcomb.case;
transform = "{1, 0, 0, 1, -11, 0}";
}
);
layerId = "051EFAE4-8BBE-4FBB-A016-4335C3E52F59";
width = 500;
},
{
components = (
{
name = I;
},
{
name = circumflexcomb.case;
transform = "{1, 0, 0, 1, -11, 0}";
}
);
layerId = "4196E4A4-01D0-4BE0-B812-9D3AF152A0E4";
width = 500;
},
{
background = {
paths = (
{
closed = 1;
nodes = (
"88 564 LINE",
"204 564 LINE",
"204 58 LINE",
"81 58 LINE",
"81 -1 LINE",
"403 -1 LINE",
"403 57 LINE",
"274 57 LINE",
"274 564 LINE",
"397 564 LINE",
"397 623 LINE",
"88 623 LINE"
);
},
{
closed = 1;
nodes = (
"130 658 LINE",
"242 726 LINE",
"345 655 LINE",
"378 693 LINE",
"255 791 LINE",
"233 791 LINE",
"102 692 LINE"
);
}
);
};
components = (
{
name = I;
},
{
name = circumflexcomb.case;
transform = "{1, 0, 0, 1, -2, 0}";
}
);
layerId = "37FE174D-E85B-4C4C-A1AE-51D7E67A9FC9";
width = 500;
},
{
components = (
{
name = I;
},
{
name = circumflexcomb.case;
transform = "{1, 0, 0, 1, -130, 0}";
}
);
layerId = "7EB90DB1-9188-465D-93C7-E6C577A18003";
width = 250;
},
{
components = (
{
name = I;
},
{
name = circumflexcomb.case;
transform = "{1, 0, 0, 1, -130, 0}";
}
);
layerId = "0E826D2B-F2D1-4058-A5E0-936DF7ED7520";
width = 250;
},
{
components = (
{
name = I;
},
{
name = circumflexcomb.case;
transform = "{1, 0, 0, 1, 227, 0}";
}
);
layerId = "16CD5438-0A7A-495F-951A-DBB915DF0BEC";
width = 1000;
},
{
components = (
{
name = I;
},
{
name = circumflexcomb.case;
transform = "{1, 0, 0, 1, -130, 0}";
}
);
layerId = "E49A0581-9397-4BB7-ADB1-45D6EDC9C316";
width = 250;
},
{
components = (
{
name = I;
},
{
name = circumflexcomb.case;
transform = "{1, 0, 0, 1, 227, 0}";
}
);
layerId = "382F13D7-0CC9-4B85-A585-CBE12F4435D4";
width = 1000;
},
{
components = (
{
name = I;
},
{
name = circumflexcomb.case;
transform = "{1, 0, 0, 1, 227, 0}";
}
);
layerId = "CC486EF6-6464-4B93-9956-4F2B932959EA";
width = 1000;
}
);
unicode = 00CE;
},
{
glyphname = Idieresis;
layers = (
{
components = (
{
name = I;
},
{
name = dieresiscomb.case;
transform = "{1, 0, 0, 1, -12, 0}";
}
);
layerId = "051EFAE4-8BBE-4FBB-A016-4335C3E52F59";
width = 500;
},
{
components = (
{
name = I;
},
{
name = dieresiscomb.case;
transform = "{1, 0, 0, 1, -12, 0}";
}
);
layerId = "4196E4A4-01D0-4BE0-B812-9D3AF152A0E4";
width = 500;
},
{
background = {
paths = (
{
closed = 1;
nodes = (
"88 564 LINE",
"204 564 LINE",
"204 58 LINE",
"81 58 LINE",
"81 -1 LINE",
"403 -1 LINE",
"403 57 LINE",
"274 57 LINE",
"274 564 LINE",
"397 564 LINE",
"397 623 LINE",
"88 623 LINE"
);
},
{
closed = 1;
nodes = (
"180 784 OFFCURVE",
"168 789 OFFCURVE",
"154 789 CURVE SMOOTH",
"127 789 OFFCURVE",
"104 765 OFFCURVE",
"104 738 CURVE SMOOTH",
"104 711 OFFCURVE",
"127 688 OFFCURVE",
"154 688 CURVE SMOOTH",
"182 688 OFFCURVE",
"205 711 OFFCURVE",
"205 738 CURVE SMOOTH",
"205 752 OFFCURVE",
"200 764 OFFCURVE",
"190 774 CURVE SMOOTH"
);
},
{
closed = 1;
nodes = (
"358 784 OFFCURVE",
"346 789 OFFCURVE",
"332 789 CURVE SMOOTH",
"305 789 OFFCURVE",
"283 766 OFFCURVE",
"283 738 CURVE SMOOTH",
"283 710 OFFCURVE",
"305 688 OFFCURVE",
"332 688 CURVE SMOOTH",
"360 688 OFFCURVE",
"383 711 OFFCURVE",
"383 738 CURVE SMOOTH",
"383 752 OFFCURVE",
"378 764 OFFCURVE",
"368 774 CURVE SMOOTH"
);
}
);
};
components = (
{
name = I;
},
{
name = dieresiscomb.case;
}
);
layerId = "37FE174D-E85B-4C4C-A1AE-51D7E67A9FC9";
width = 500;
},
{
components = (
{
name = I;
},
{
name = dieresiscomb.case;
transform = "{1, 0, 0, 1, -131, 0}";
}
);
layerId = "7EB90DB1-9188-465D-93C7-E6C577A18003";
width = 250;
},
{
components = (
{
name = I;
},
{
name = dieresiscomb.case;
transform = "{1, 0, 0, 1, -131, 0}";
}
);
layerId = "0E826D2B-F2D1-4058-A5E0-936DF7ED7520";
width = 250;
},
{
components = (
{
name = I;
},
{
name = dieresiscomb.case;
transform = "{1, 0, 0, 1, 226, 0}";
}
);
layerId = "16CD5438-0A7A-495F-951A-DBB915DF0BEC";
width = 1000;
},
{
components = (
{
name = I;
},
{
name = dieresiscomb.case;
transform = "{1, 0, 0, 1, -131, 0}";
}
);
layerId = "E49A0581-9397-4BB7-ADB1-45D6EDC9C316";
width = 250;
},
{
components = (
{
name = I;
},
{
name = dieresiscomb.case;
transform = "{1, 0, 0, 1, 226, 0}";
}
);
layerId = "382F13D7-0CC9-4B85-A585-CBE12F4435D4";
width = 1000;
},
{
components = (
{
name = I;
},
{
name = dieresiscomb.case;
transform = "{1, 0, 0, 1, 226, 0}";
}
);
layerId = "CC486EF6-6464-4B93-9956-4F2B932959EA";
width = 1000;
}
);
unicode = 00CF;
},
{
glyphname = Idotaccent;
layers = (
{
components = (
{
name = I;
},
{
name = dotaccentcomb.case;
transform = "{1, 0, 0, 1, -12, 0}";
}
);
layerId = "051EFAE4-8BBE-4FBB-A016-4335C3E52F59";
width = 500;
},
{
components = (
{
name = I;
},
{
name = dotaccentcomb.case;
transform = "{1, 0, 0, 1, -12, 0}";
}
);
layerId = "4196E4A4-01D0-4BE0-B812-9D3AF152A0E4";
width = 500;
},
{
background = {
paths = (
{
closed = 1;
nodes = (
"88 564 LINE",
"204 564 LINE",
"204 58 LINE",
"81 58 LINE",
"81 -1 LINE",
"403 -1 LINE",
"403 57 LINE",
"274 57 LINE",
"274 564 LINE",
"397 564 LINE",
"397 623 LINE",
"88 623 LINE"
);
},
{
closed = 1;
nodes = (
"191 766 OFFCURVE",
"186 754 OFFCURVE",
"186 740 CURVE SMOOTH",
"186 712 OFFCURVE",
"210 689 OFFCURVE",
"237 689 CURVE SMOOTH",
"265 689 OFFCURVE",
"289 712 OFFCURVE",
"289 740 CURVE SMOOTH",
"289 768 OFFCURVE",
"265 791 OFFCURVE",
"237 791 CURVE SMOOTH",
"223 791 OFFCURVE",
"211 786 OFFCURVE",
"201 776 CURVE SMOOTH"
);
}
);
};
components = (
{
name = I;
},
{
name = dotaccentcomb.case;
transform = "{1, 0, 0, 1, -1, 0}";
}
);
layerId = "37FE174D-E85B-4C4C-A1AE-51D7E67A9FC9";
width = 500;
},
{
components = (
{
name = I;
},
{
name = dotaccentcomb.case;
transform = "{1, 0, 0, 1, -131, 0}";
}
);
layerId = "7EB90DB1-9188-465D-93C7-E6C577A18003";
width = 250;
},
{
components = (
{
name = I;
},
{
name = dotaccentcomb.case;
transform = "{1, 0, 0, 1, -131, 0}";
}
);
layerId = "0E826D2B-F2D1-4058-A5E0-936DF7ED7520";
width = 250;
},
{
components = (
{
name = I;
},
{
name = dotaccentcomb.case;
transform = "{1, 0, 0, 1, 226, 0}";
}
);
layerId = "16CD5438-0A7A-495F-951A-DBB915DF0BEC";
width = 1000;
},
{
components = (
{
name = I;
},
{
name = dotaccentcomb.case;
transform = "{1, 0, 0, 1, -131, 0}";
}
);
layerId = "E49A0581-9397-4BB7-ADB1-45D6EDC9C316";
width = 250;
},
{
components = (
{
name = I;
},
{
name = dotaccentcomb.case;
transform = "{1, 0, 0, 1, 226, 0}";
}
);
layerId = "382F13D7-0CC9-4B85-A585-CBE12F4435D4";
width = 1000;
},
{
components = (
{
name = I;
},
{
name = dotaccentcomb.case;
transform = "{1, 0, 0, 1, 226, 0}";
}
);
layerId = "CC486EF6-6464-4B93-9956-4F2B932959EA";
width = 1000;
}
);
unicode = 0130;
},
{
glyphname = Igrave;
layers = (
{
components = (
{
name = I;
},
{
name = gravecomb.case;
transform = "{1, 0, 0, 1, -25, 0}";
}
);
layerId = "051EFAE4-8BBE-4FBB-A016-4335C3E52F59";
width = 500;
},
{
components = (
{
name = I;
},
{
name = gravecomb.case;
transform = "{1, 0, 0, 1, -25, 0}";
}
);
layerId = "4196E4A4-01D0-4BE0-B812-9D3AF152A0E4";
width = 500;
},
{
background = {
paths = (
{
closed = 1;
nodes = (
"88 564 LINE",
"204 564 LINE",
"204 58 LINE",
"81 58 LINE",
"81 -1 LINE",
"403 -1 LINE",
"403 57 LINE",
"274 57 LINE",
"274 564 LINE",
"397 564 LINE",
"397 623 LINE",
"88 623 LINE"
);
},
{
closed = 1;
nodes = (
"143 721 LINE",
"313 660 LINE",
"336 702 LINE",
"183 791 LINE"
);
}
);
};
components = (
{
name = I;
},
{
name = gravecomb.case;
transform = "{1, 0, 0, 1, -23, 0}";
}
);
layerId = "37FE174D-E85B-4C4C-A1AE-51D7E67A9FC9";
width = 500;
},
{
components = (
{
name = I;
},
{
name = gravecomb.case;
transform = "{1, 0, 0, 1, -144, 0}";
}
);
layerId = "7EB90DB1-9188-465D-93C7-E6C577A18003";
width = 250;
},
{
components = (
{
name = I;
},
{
name = gravecomb.case;
transform = "{1, 0, 0, 1, -144, 0}";
}
);
layerId = "0E826D2B-F2D1-4058-A5E0-936DF7ED7520";
width = 250;
},
{
components = (
{
name = I;
},
{
name = gravecomb.case;
transform = "{1, 0, 0, 1, 213, 0}";
}
);
layerId = "16CD5438-0A7A-495F-951A-DBB915DF0BEC";
width = 1000;
},
{
components = (
{
name = I;
},
{
name = gravecomb.case;
transform = "{1, 0, 0, 1, -144, 0}";
}
);
layerId = "E49A0581-9397-4BB7-ADB1-45D6EDC9C316";
width = 250;
},
{
components = (
{
name = I;
},
{
name = gravecomb.case;
transform = "{1, 0, 0, 1, 213, 0}";
}
);
layerId = "382F13D7-0CC9-4B85-A585-CBE12F4435D4";
width = 1000;
},
{
components = (
{
name = I;
},
{
name = gravecomb.case;
transform = "{1, 0, 0, 1, 213, 0}";
}
);
layerId = "CC486EF6-6464-4B93-9956-4F2B932959EA";
width = 1000;
}
);
unicode = 00CC;
},
{
glyphname = J;
layers = (
{
anchors = (
{
name = bottom;
position = "{250, 0}";
},
{
name = top;
position = "{330, 623}";
}
);
hints = (
{
origin = "{0, 15}";
type = Corner;
name = _corner.rightSpur;
}
);
layerId = "051EFAE4-8BBE-4FBB-A016-4335C3E52F59";
paths = (
{
closed = 1;
nodes = (
"283 -12 OFFCURVE",
"366 49 OFFCURVE",
"361 209 CURVE",
"361 564 LINE",
"457 564 LINE",
"457 623 LINE",
"172 623 LINE",
"172 564 LINE",
"292 564 LINE",
"292 208 LINE SMOOTH",
"292 92 OFFCURVE",
"263 51 OFFCURVE",
"196 51 CURVE SMOOTH",
"154 51 OFFCURVE",
"125 70 OFFCURVE",
"90 109 CURVE",
"49 58 LINE",
"88 12 OFFCURVE",
"137 -11 OFFCURVE",
"196 -11 CURVE SMOOTH"
);
}
);
width = 500;
},
{
anchors = (
{
name = bottom;
position = "{250, 0}";
},
{
name = top;
position = "{330, 623}";
}
);
hints = (
{
origin = "{0, 15}";
type = Corner;
name = _corner.rightSpur;
}
);
layerId = "4196E4A4-01D0-4BE0-B812-9D3AF152A0E4";
paths = (
{
closed = 1;
nodes = (
"283 -12 OFFCURVE",
"343 49 OFFCURVE",
"340 209 CURVE",
"340 599 LINE",
"437 599 LINE",
"437 623 LINE",
"192 623 LINE",
"192 599 LINE",
"313 599 LINE",
"313 208 LINE SMOOTH",
"313 71 OFFCURVE",
"274 11 OFFCURVE",
"196 11 CURVE SMOOTH",
"151 11 OFFCURVE",
"100 34 OFFCURVE",
"67 75 CURVE",
"49 58 LINE",
"88 12 OFFCURVE",
"137 -11 OFFCURVE",
"196 -11 CURVE SMOOTH"
);
}
);
width = 500;
},
{
anchors = (
{
name = bottom;
position = "{193, 0}";
},
{
name = top;
position = "{310, 623}";
}
);
background = {
paths = (
{
closed = 1;
nodes = (
"172 564 LINE",
"292 564 LINE",
"292 208 LINE SMOOTH",
"292 92 OFFCURVE",
"263 51 OFFCURVE",
"196 51 CURVE SMOOTH",
"166 51 OFFCURVE",
"125 70 OFFCURVE",
"115 83 CURVE",
"103 95 LINE SMOOTH",
"99 100 OFFCURVE",
"100 111 OFFCURVE",
"96 115 CURVE",
"49 58 LINE",
"88 12 OFFCURVE",
"137 -11 OFFCURVE",
"196 -11 CURVE SMOOTH",
"283 -12 OFFCURVE",
"366 49 OFFCURVE",
"361 209 CURVE",
"361 564 LINE",
"457 564 LINE",
"457 623 LINE",
"172 623 LINE"
);
}
);
};
hints = (
{
origin = "{0, 15}";
type = Corner;
name = _corner.rightSpur;
}
);
layerId = "37FE174D-E85B-4C4C-A1AE-51D7E67A9FC9";
paths = (
{
closed = 1;
nodes = (
"289 -17 OFFCURVE",
"380 63 OFFCURVE",
"380 215 CURVE",
"380 510 LINE",
"474 510 LINE",
"474 623 LINE",
"132 623 LINE",
"132 510 LINE",
"248 510 LINE",
"248 230 LINE",
"248 159 OFFCURVE",
"220 114 OFFCURVE",
"176 114 CURVE SMOOTH",
"138 114 OFFCURVE",
"106 136 OFFCURVE",
"86 167 CURVE",
"19 52 LINE",
"58 3 OFFCURVE",
"125 -17 OFFCURVE",
"192 -17 CURVE"
);
}
);
width = 500;
},
{
anchors = (
{
name = bottom;
position = "{120, 0}";
},
{
name = top;
position = "{160, 623}";
}
);
hints = (
{
origin = "{0, 15}";
type = Corner;
name = _corner.rightSpur;
}
);
layerId = "7EB90DB1-9188-465D-93C7-E6C577A18003";
paths = (
{
closed = 1;
nodes = (
"145 -11 OFFCURVE",
"183 38 OFFCURVE",
"183 209 CURVE",
"183 567 LINE",
"227 567 LINE",
"227 623 LINE",
"75 623 LINE",
"75 567 LINE",
"132 567 LINE",
"132 208 LINE SMOOTH",
"132 92 OFFCURVE",
"115 48 OFFCURVE",
"93 48 CURVE SMOOTH",
"72 48 OFFCURVE",
"57 70 OFFCURVE",
"40 109 CURVE",
"19 40 LINE",
"37 5 OFFCURVE",
"63 -11 OFFCURVE",
"93 -11 CURVE SMOOTH"
);
}
);
width = 250;
},
{
anchors = (
{
name = bottom;
position = "{120, 0}";
},
{
name = top;
position = "{160, 623}";
}
);
hints = (
{
origin = "{0, 15}";
type = Corner;
name = _corner.rightSpur;
}
);
layerId = "0E826D2B-F2D1-4058-A5E0-936DF7ED7520";
paths = (
{
closed = 1;
nodes = (
"155 -11 OFFCURVE",
"168 38 OFFCURVE",
"168 209 CURVE",
"168 603 LINE",
"227 603 LINE",
"227 623 LINE",
"75 623 LINE",
"75 603 LINE",
"146 603 LINE",
"146 208 LINE SMOOTH",
"146 56 OFFCURVE",
"138 12 OFFCURVE",
"93 12 CURVE SMOOTH",
"72 12 OFFCURVE",
"48 27 OFFCURVE",
"35 54 CURVE",
"19 40 LINE",
"37 5 OFFCURVE",
"63 -11 OFFCURVE",
"93 -11 CURVE SMOOTH"
);
}
);
width = 250;
},
{
anchors = (
{
name = bottom;
position = "{299, 0}";
},
{
name = top;
position = "{379, 623}";
}
);
hints = (
{
origin = "{0, 15}";
type = Corner;
name = _corner.rightSpur;
}
);
layerId = "16CD5438-0A7A-495F-951A-DBB915DF0BEC";
paths = (
{
closed = 1;
nodes = (
"566 -11 OFFCURVE",
"670 49 OFFCURVE",
"669 209 CURVE",
"669 595 LINE",
"914 595 LINE",
"914 623 LINE",
"344 623 LINE",
"344 595 LINE",
"637 595 LINE",
"637 208 LINE SMOOTH",
"637 68 OFFCURVE",
"546 17 OFFCURVE",
"392 17 CURVE SMOOTH",
"290 17 OFFCURVE",
"197 35 OFFCURVE",
"120 81 CURVE",
"98 58 LINE",
"176 12 OFFCURVE",
"274 -11 OFFCURVE",
"392 -11 CURVE SMOOTH"
);
}
);
width = 1000;
},
{
anchors = (
{
name = bottom;
position = "{120, 0}";
},
{
name = top;
position = "{160, 623}";
}
);
hints = (
{
origin = "{0, 15}";
type = Corner;
name = _corner.rightSpur;
}
);
layerId = "E49A0581-9397-4BB7-ADB1-45D6EDC9C316";
paths = (
{
closed = 1;
nodes = (
"166 -11 OFFCURVE",
"200 38 OFFCURVE",
"200 209 CURVE",
"200 529 LINE",
"237 529 LINE",
"237 623 LINE",
"55 623 LINE",
"55 529 LINE",
"115 529 LINE",
"115 208 LINE SMOOTH",
"115 110 OFFCURVE",
"102 86 OFFCURVE",
"87 86 CURVE SMOOTH",
"66 86 OFFCURVE",
"51 95 OFFCURVE",
"34 134 CURVE",
"14 40 LINE",
"32 5 OFFCURVE",
"63 -11 OFFCURVE",
"93 -11 CURVE SMOOTH"
);
}
);
width = 250;
},
{
anchors = (
{
name = bottom;
position = "{299, 0}";
},
{
name = top;
position = "{379, 623}";
}
);
hints = (
{
origin = "{0, 15}";
type = Corner;
name = _corner.rightSpur;
}
);
layerId = "382F13D7-0CC9-4B85-A585-CBE12F4435D4";
paths = (
{
closed = 1;
nodes = (
"566 -11 OFFCURVE",
"703 49 OFFCURVE",
"699 209 CURVE",
"699 549 LINE",
"914 549 LINE",
"914 623 LINE",
"344 623 LINE",
"344 549 LINE",
"607 549 LINE",
"607 208 LINE SMOOTH",
"607 92 OFFCURVE",
"526 61 OFFCURVE",
"392 61 CURVE SMOOTH",
"308 61 OFFCURVE",
"217 83 OFFCURVE",
"147 122 CURVE",
"98 58 LINE",
"176 12 OFFCURVE",
"274 -11 OFFCURVE",
"392 -11 CURVE SMOOTH"
);
}
);
width = 1000;
},
{
anchors = (
{
name = bottom;
position = "{299, 0}";
},
{
name = top;
position = "{379, 623}";
}
);
hints = (
{
origin = "{0, 15}";
type = Corner;
name = _corner.rightSpur;
}
);
layerId = "CC486EF6-6464-4B93-9956-4F2B932959EA";
paths = (
{
closed = 1;
nodes = (
"556 -11 OFFCURVE",
"733 49 OFFCURVE",
"729 209 CURVE",
"729 503 LINE",
"924 503 LINE",
"924 623 LINE",
"334 623 LINE",
"334 503 LINE",
"577 503 LINE",
"577 208 LINE SMOOTH",
"577 142 OFFCURVE",
"516 109 OFFCURVE",
"382 109 CURVE SMOOTH",
"298 109 OFFCURVE",
"220 129 OFFCURVE",
"152 172 CURVE",
"88 58 LINE",
"166 12 OFFCURVE",
"264 -11 OFFCURVE",
"382 -11 CURVE SMOOTH"
);
}
);
width = 1000;
}
);
unicode = 004A;
},
{
glyphname = K;
layers = (
{
hints = (
{
origin = "{0, 8}";
type = Corner;
name = _corner.rightSpur;
}
);
layerId = "051EFAE4-8BBE-4FBB-A016-4335C3E52F59";
paths = (
{
closed = 1;
nodes = (
"471 0 LINE",
"219 354 LINE",
"455 623 LINE",
"429 623 LINE SMOOTH",
"409 623 OFFCURVE",
"392 625 OFFCURVE",
"377 628 CURVE",
"117 336 LINE",
"117 623 LINE",
"42 623 LINE",
"42 0 LINE",
"117 0 LINE",
"117 258 LINE",
"166 312 LINE",
"381 -4 LINE"
);
}
);
width = 500;
},
{
hints = (
{
origin = "{0, 8}";
type = Corner;
name = _corner.rightSpur;
}
);
layerId = "4196E4A4-01D0-4BE0-B812-9D3AF152A0E4";
paths = (
{
closed = 1;
nodes = (
"451 0 LINE",
"156 351 LINE",
"435 623 LINE",
"425 623 LINE SMOOTH",
"419 623 OFFCURVE",
"409 624 OFFCURVE",
"404 626 CURVE",
"89 320 LINE",
"89 623 LINE",
"62 623 LINE",
"62 0 LINE",
"89 0 LINE",
"89 290 LINE",
"136 333 LINE",
"420 -3 LINE"
);
}
);
width = 500;
},
{
background = {
paths = (
{
closed = 1;
nodes = (
"42 0 LINE",
"117 0 LINE",
"117 258 LINE",
"166 312 LINE",
"381 -4 LINE",
"471 0 LINE",
"219 354 LINE",
"455 623 LINE",
"429 623 LINE SMOOTH",
"409 623 OFFCURVE",
"392 625 OFFCURVE",
"377 628 CURVE",
"117 336 LINE",
"117 598 LINE SMOOTH",
"117 607 OFFCURVE",
"126 616 OFFCURVE",
"126 624 CURVE",
"42 624 LINE"
);
}
);
};
hints = (
{
origin = "{0, 8}";
type = Corner;
name = _corner.rightSpur;
}
);
layerId = "37FE174D-E85B-4C4C-A1AE-51D7E67A9FC9";
paths = (
{
closed = 1;
nodes = (
"506 1 LINE",
"302 367 LINE",
"497 623 LINE",
"428 623 LINE SMOOTH",
"413 623 OFFCURVE",
"363 624 OFFCURVE",
"341 629 CURVE",
"168 389 LINE",
"168 623 LINE",
"33 623 LINE",
"33 0 LINE",
"168 0 LINE",
"168 208 LINE",
"204 262 LINE",
"351 -4 LINE"
);
}
);
width = 500;
},
{
hints = (
{
origin = "{0, 8}";
type = Corner;
name = _corner.rightSpur;
}
);
layerId = "7EB90DB1-9188-465D-93C7-E6C577A18003";
paths = (
{
closed = 1;
nodes = (
"238 0 LINE",
"129 346 LINE",
"230 623 LINE",
"217 623 LINE SMOOTH",
"207 623 OFFCURVE",
"185 625 OFFCURVE",
"178 628 CURVE",
"74 340 LINE",
"74 623 LINE",
"23 623 LINE",
"23 0 LINE",
"74 0 LINE",
"74 245 LINE",
"94 297 LINE",
"182 -4 LINE"
);
}
);
width = 250;
},
{
hints = (
{
origin = "{0, 8}";
type = Corner;
name = _corner.rightSpur;
}
);
layerId = "0E826D2B-F2D1-4058-A5E0-936DF7ED7520";
paths = (
{
closed = 1;
nodes = (
"232 0 LINE",
"102 347 LINE",
"228 623 LINE",
"223 623 LINE SMOOTH",
"217 623 OFFCURVE",
"210 624 OFFCURVE",
"207 626 CURVE",
"49 286 LINE",
"49 623 LINE",
"27 623 LINE",
"27 0 LINE",
"49 0 LINE",
"49 246 LINE",
"87 327 LINE",
"208 -4 LINE"
);
}
);
width = 250;
},
{
hints = (
{
origin = "{0, 8}";
type = Corner;
name = _corner.rightSpur;
}
);
layerId = "16CD5438-0A7A-495F-951A-DBB915DF0BEC";
paths = (
{
closed = 1;
nodes = (
"942 0 LINE",
"368 376 LINE",
"910 623 LINE",
"894 623 LINE SMOOTH",
"884 623 OFFCURVE",
"858 624 OFFCURVE",
"847 626 CURVE",
"135 302 LINE",
"135 623 LINE",
"104 623 LINE",
"104 0 LINE",
"135 0 LINE",
"135 269 LINE",
"336 363 LINE",
"898 -7 LINE"
);
}
);
width = 1000;
},
{
hints = (
{
origin = "{0, 8}";
type = Corner;
name = _corner.rightSpur;
}
);
layerId = "E49A0581-9397-4BB7-ADB1-45D6EDC9C316";
paths = (
{
closed = 1;
nodes = (
"246 0 LINE",
"158 338 LINE",
"238 623 LINE",
"225 623 LINE SMOOTH",
"210 623 OFFCURVE",
"179 625 OFFCURVE",
"156 628 CURVE",
"105 415 LINE",
"105 623 LINE",
"19 623 LINE",
"19 0 LINE",
"105 0 LINE",
"103 221 LINE",
"107 240 LINE",
"161 -5 LINE"
);
}
);
width = 250;
},
{
hints = (
{
origin = "{0, 8}";
type = Corner;
name = _corner.rightSpur;
}
);
layerId = "382F13D7-0CC9-4B85-A585-CBE12F4435D4";
paths = (
{
closed = 1;
nodes = (
"952 0 LINE",
"428 374 LINE",
"920 623 LINE",
"868 623 LINE SMOOTH",
"849 623 OFFCURVE",
"814 625 OFFCURVE",
"784 628 CURVE",
"186 336 LINE",
"186 623 LINE",
"94 623 LINE",
"94 0 LINE",
"186 0 LINE",
"186 255 LINE",
"344 332 LINE",
"824 -7 LINE"
);
}
);
width = 1000;
},
{
hints = (
{
origin = "{0, 8}";
type = Corner;
name = _corner.rightSpur;
}
);
layerId = "CC486EF6-6464-4B93-9956-4F2B932959EA";
paths = (
{
closed = 1;
nodes = (
"962 0 LINE",
"454 346 LINE",
"930 623 LINE",
"878 623 LINE SMOOTH",
"859 623 OFFCURVE",
"744 625 OFFCURVE",
"714 628 CURVE",
"238 352 LINE",
"238 623 LINE",
"84 623 LINE",
"84 0 LINE",
"238 0 LINE",
"238 219 LINE",
"337 280 LINE",
"764 -7 LINE"
);
}
);
width = 1000;
}
);
unicode = 004B;
},
{
glyphname = Khook;
layers = (
{
background = {
hints = (
{
origin = "{0, 3}";
type = Corner;
name = _corner.rightSpur;
}
);
paths = (
{
closed = 1;
nodes = (
"349 502 LINE",
"385 553 OFFCURVE",
"419 569 OFFCURVE",
"475 559 CURVE",
"476 623 LINE",
"415 637 OFFCURVE",
"352 610 OFFCURVE",
"301 543 CURVE"
);
}
);
};
hints = (
{
origin = "{0, 7}";
type = Corner;
name = _corner.rightSpur;
},
{
origin = "{0, 15}";
type = Corner;
name = _corner.rightSpur;
}
);
layerId = "051EFAE4-8BBE-4FBB-A016-4335C3E52F59";
paths = (
{
closed = 1;
nodes = (
"117 0 LINE",
"117 238 LINE",
"312 535 OFFCURVE",
"383 556 OFFCURVE",
"418 556 CURVE SMOOTH",
"443 556 OFFCURVE",
"449 554 OFFCURVE",
"465 550 CURVE",
"466 623 LINE",
"455 626 OFFCURVE",
"443 627 OFFCURVE",
"431 627 CURVE SMOOTH",
"346 627 OFFCURVE",
"246 551 OFFCURVE",
"117 326 CURVE",
"117 623 LINE",
"42 623 LINE",
"42 0 LINE"
);
},
{
closed = 1;
nodes = (
"471 0 LINE",
"198 384 LINE",
"145 342 LINE",
"381 -4 LINE"
);
}
);
width = 500;
},
{
background = {
paths = (
{
closed = 1;
nodes = (
"349 502 LINE",
"385 553 OFFCURVE",
"419 569 OFFCURVE",
"475 559 CURVE",
"476 623 LINE",
"415 637 OFFCURVE",
"352 610 OFFCURVE",
"301 543 CURVE"
);
}
);
};
hints = (
{
origin = "{0, 7}";
type = Corner;
name = _corner.rightSpur;
},
{
origin = "{0, 15}";
type = Corner;
name = _corner.rightSpur;
}
);
layerId = "4196E4A4-01D0-4BE0-B812-9D3AF152A0E4";
paths = (
{
closed = 1;
nodes = (
"117 0 LINE",
"117 238 LINE",
"312 535 OFFCURVE",
"383 556 OFFCURVE",
"418 556 CURVE SMOOTH",
"443 556 OFFCURVE",
"449 554 OFFCURVE",
"465 550 CURVE",
"466 623 LINE",
"455 626 OFFCURVE",
"443 627 OFFCURVE",
"431 627 CURVE SMOOTH",
"346 627 OFFCURVE",
"246 551 OFFCURVE",
"117 326 CURVE",
"117 623 LINE",
"42 623 LINE",
"42 0 LINE"
);
},
{
closed = 1;
nodes = (
"471 0 LINE",
"198 384 LINE",
"145 342 LINE",
"381 -4 LINE"
);
}
);
width = 500;
},
{
background = {
paths = (
{
closed = 1;
nodes = (
"145 342 LINE",
"381 -4 LINE",
"471 0 LINE",
"198 384 LINE"
);
},
{
closed = 1;
nodes = (
"308 528 OFFCURVE",
"383 556 OFFCURVE",
"418 556 CURVE SMOOTH",
"443 556 OFFCURVE",
"449 554 OFFCURVE",
"465 550 CURVE",
"466 623 LINE",
"374 646 OFFCURVE",
"264 583 OFFCURVE",
"117 326 CURVE",
"117 579 LINE SMOOTH",
"117 601 OFFCURVE",
"118 608 OFFCURVE",
"126 616 CURVE",
"126 623 LINE",
"42 623 LINE",
"42 0 LINE",
"117 0 LINE",
"117 238 LINE"
);
},
{
closed = 1;
nodes = (
"153 333 LINE",
"370 -5 LINE",
"506 1 LINE",
"228 413 LINE"
);
}
);
};
hints = (
{
origin = "{0, 15}";
type = Corner;
name = _corner.rightSpur;
},
{
origin = "{0, 7}";
type = Corner;
name = _corner.rightSpur;
}
);
layerId = "37FE174D-E85B-4C4C-A1AE-51D7E67A9FC9";
paths = (
{
closed = 1;
nodes = (
"158 0 LINE",
"158 235 LINE",
"301 454 OFFCURVE",
"366 523 OFFCURVE",
"424 523 CURVE SMOOTH",
"450 523 OFFCURVE",
"459 521 OFFCURVE",
"480 508 CURVE",
"480 615 LINE",
"468 624 OFFCURVE",
"448 629 OFFCURVE",
"426 629 CURVE SMOOTH",
"341 629 OFFCURVE",
"282 554 OFFCURVE",
"158 385 CURVE",
"158 623 LINE",
"43 623 LINE",
"43 0 LINE"
);
},
{
closed = 1;
nodes = (
"506 1 LINE",
"228 413 LINE",
"153 333 LINE",
"370 -5 LINE"
);
}
);
width = 500;
},
{
background = {
paths = (
{
closed = 1;
nodes = (
"349 502 LINE",
"385 553 OFFCURVE",
"419 569 OFFCURVE",
"475 559 CURVE",
"476 623 LINE",
"415 637 OFFCURVE",
"352 610 OFFCURVE",
"301 543 CURVE"
);
}
);
};
hints = (
{
origin = "{0, 7}";
type = Corner;
name = _corner.rightSpur;
},
{
origin = "{0, 15}";
type = Corner;
name = _corner.rightSpur;
}
);
layerId = "7EB90DB1-9188-465D-93C7-E6C577A18003";
paths = (
{
closed = 1;
nodes = (
"117 0 LINE",
"117 238 LINE",
"312 535 OFFCURVE",
"383 556 OFFCURVE",
"418 556 CURVE SMOOTH",
"443 556 OFFCURVE",
"449 554 OFFCURVE",
"465 550 CURVE",
"466 623 LINE",
"455 626 OFFCURVE",
"443 627 OFFCURVE",
"431 627 CURVE SMOOTH",
"346 627 OFFCURVE",
"246 551 OFFCURVE",
"117 326 CURVE",
"117 623 LINE",
"42 623 LINE",
"42 0 LINE"
);
},
{
closed = 1;
nodes = (
"471 0 LINE",
"198 384 LINE",
"145 342 LINE",
"381 -4 LINE"
);
}
);
width = 500;
},
{
background = {
paths = (
{
closed = 1;
nodes = (
"349 502 LINE",
"385 553 OFFCURVE",
"419 569 OFFCURVE",
"475 559 CURVE",
"476 623 LINE",
"415 637 OFFCURVE",
"352 610 OFFCURVE",
"301 543 CURVE"
);
}
);
};
hints = (
{
origin = "{0, 7}";
type = Corner;
name = _corner.rightSpur;
},
{
origin = "{0, 15}";
type = Corner;
name = _corner.rightSpur;
}
);
layerId = "0E826D2B-F2D1-4058-A5E0-936DF7ED7520";
paths = (
{
closed = 1;
nodes = (
"117 0 LINE",
"117 238 LINE",
"312 535 OFFCURVE",
"383 556 OFFCURVE",
"418 556 CURVE SMOOTH",
"443 556 OFFCURVE",
"449 554 OFFCURVE",
"465 550 CURVE",
"466 623 LINE",
"455 626 OFFCURVE",
"443 627 OFFCURVE",
"431 627 CURVE SMOOTH",
"346 627 OFFCURVE",
"246 551 OFFCURVE",
"117 326 CURVE",
"117 623 LINE",
"42 623 LINE",
"42 0 LINE"
);
},
{
closed = 1;
nodes = (
"471 0 LINE",
"198 384 LINE",
"145 342 LINE",
"381 -4 LINE"
);
}
);
width = 500;
},
{
background = {
paths = (
{
closed = 1;
nodes = (
"349 502 LINE",
"385 553 OFFCURVE",
"419 569 OFFCURVE",
"475 559 CURVE",
"476 623 LINE",
"415 637 OFFCURVE",
"352 610 OFFCURVE",
"301 543 CURVE"
);
}
);
};
hints = (
{
origin = "{0, 7}";
type = Corner;
name = _corner.rightSpur;
},
{
origin = "{0, 15}";
type = Corner;
name = _corner.rightSpur;
}
);
layerId = "16CD5438-0A7A-495F-951A-DBB915DF0BEC";
paths = (
{
closed = 1;
nodes = (
"117 0 LINE",
"117 238 LINE",
"312 535 OFFCURVE",
"383 556 OFFCURVE",
"418 556 CURVE SMOOTH",
"443 556 OFFCURVE",
"449 554 OFFCURVE",
"465 550 CURVE",
"466 623 LINE",
"455 626 OFFCURVE",
"443 627 OFFCURVE",
"431 627 CURVE SMOOTH",
"346 627 OFFCURVE",
"246 551 OFFCURVE",
"117 326 CURVE",
"117 623 LINE",
"42 623 LINE",
"42 0 LINE"
);
},
{
closed = 1;
nodes = (
"471 0 LINE",
"198 384 LINE",
"145 342 LINE",
"381 -4 LINE"
);
}
);
width = 500;
},
{
background = {
paths = (
{
closed = 1;
nodes = (
"349 502 LINE",
"385 553 OFFCURVE",
"419 569 OFFCURVE",
"475 559 CURVE",
"476 623 LINE",
"415 637 OFFCURVE",
"352 610 OFFCURVE",
"301 543 CURVE"
);
}
);
};
hints = (
{
origin = "{0, 7}";
type = Corner;
name = _corner.rightSpur;
},
{
origin = "{0, 15}";
type = Corner;
name = _corner.rightSpur;
}
);
layerId = "E49A0581-9397-4BB7-ADB1-45D6EDC9C316";
paths = (
{
closed = 1;
nodes = (
"117 0 LINE",
"117 238 LINE",
"312 535 OFFCURVE",
"383 556 OFFCURVE",
"418 556 CURVE SMOOTH",
"443 556 OFFCURVE",
"449 554 OFFCURVE",
"465 550 CURVE",
"466 623 LINE",
"455 626 OFFCURVE",
"443 627 OFFCURVE",
"431 627 CURVE SMOOTH",
"346 627 OFFCURVE",
"246 551 OFFCURVE",
"117 326 CURVE",
"117 623 LINE",
"42 623 LINE",
"42 0 LINE"
);
},
{
closed = 1;
nodes = (
"471 0 LINE",
"198 384 LINE",
"145 342 LINE",
"381 -4 LINE"
);
}
);
width = 500;
},
{
background = {
paths = (
{
closed = 1;
nodes = (
"349 502 LINE",
"385 553 OFFCURVE",
"419 569 OFFCURVE",
"475 559 CURVE",
"476 623 LINE",
"415 637 OFFCURVE",
"352 610 OFFCURVE",
"301 543 CURVE"
);
}
);
};
hints = (
{
origin = "{0, 7}";
type = Corner;
name = _corner.rightSpur;
},
{
origin = "{0, 15}";
type = Corner;
name = _corner.rightSpur;
}
);
layerId = "382F13D7-0CC9-4B85-A585-CBE12F4435D4";
paths = (
{
closed = 1;
nodes = (
"117 0 LINE",
"117 238 LINE",
"312 535 OFFCURVE",
"383 556 OFFCURVE",
"418 556 CURVE SMOOTH",
"443 556 OFFCURVE",
"449 554 OFFCURVE",
"465 550 CURVE",
"466 623 LINE",
"455 626 OFFCURVE",
"443 627 OFFCURVE",
"431 627 CURVE SMOOTH",
"346 627 OFFCURVE",
"246 551 OFFCURVE",
"117 326 CURVE",
"117 623 LINE",
"42 623 LINE",
"42 0 LINE"
);
},
{
closed = 1;
nodes = (
"471 0 LINE",
"198 384 LINE",
"145 342 LINE",
"381 -4 LINE"
);
}
);
width = 500;
},
{
background = {
paths = (
{
closed = 1;
nodes = (
"349 502 LINE",
"385 553 OFFCURVE",
"419 569 OFFCURVE",
"475 559 CURVE",
"476 623 LINE",
"415 637 OFFCURVE",
"352 610 OFFCURVE",
"301 543 CURVE"
);
}
);
};
hints = (
{
origin = "{0, 7}";
type = Corner;
name = _corner.rightSpur;
},
{
origin = "{0, 15}";
type = Corner;
name = _corner.rightSpur;
}
);
layerId = "CC486EF6-6464-4B93-9956-4F2B932959EA";
paths = (
{
closed = 1;
nodes = (
"117 0 LINE",
"117 238 LINE",
"312 535 OFFCURVE",
"383 556 OFFCURVE",
"418 556 CURVE SMOOTH",
"443 556 OFFCURVE",
"449 554 OFFCURVE",
"465 550 CURVE",
"466 623 LINE",
"455 626 OFFCURVE",
"443 627 OFFCURVE",
"431 627 CURVE SMOOTH",
"346 627 OFFCURVE",
"246 551 OFFCURVE",
"117 326 CURVE",
"117 623 LINE",
"42 623 LINE",
"42 0 LINE"
);
},
{
closed = 1;
nodes = (
"471 0 LINE",
"198 384 LINE",
"145 342 LINE",
"381 -4 LINE"
);
}
);
width = 500;
}
);
unicode = 0198;
},
{
glyphname = L;
layers = (
{
anchors = (
{
name = bottom;
position = "{250, 0}";
},
{
name = center;
position = "{107, 312}";
},
{
name = top;
position = "{200, 623}";
},
{
name = topright;
position = "{180, 457}";
}
);
hints = (
{
origin = "{0, 3}";
type = Corner;
name = _corner.rightSpur;
}
);
layerId = "051EFAE4-8BBE-4FBB-A016-4335C3E52F59";
paths = (
{
closed = 1;
nodes = (
"439 0 LINE",
"439 60 LINE",
"139 60 LINE",
"139 623 LINE",
"66 623 LINE",
"66 0 LINE"
);
}
);
width = 500;
},
{
anchors = (
{
name = bottom;
position = "{250, 0}";
},
{
name = center;
position = "{107, 312}";
},
{
name = top;
position = "{200, 623}";
},
{
name = topright;
position = "{180, 457}";
}
);
hints = (
{
origin = "{0, 3}";
type = Corner;
name = _corner.rightSpur;
}
);
layerId = "4196E4A4-01D0-4BE0-B812-9D3AF152A0E4";
paths = (
{
closed = 1;
nodes = (
"419 0 LINE",
"419 24 LINE",
"113 24 LINE",
"113 623 LINE",
"86 623 LINE",
"86 0 LINE"
);
}
);
width = 500;
},
{
anchors = (
{
name = bottom;
position = "{250, 0}";
},
{
name = center;
position = "{129, 312}";
},
{
name = top;
position = "{250, 623}";
},
{
name = topright;
position = "{213, 467}";
}
);
background = {
paths = (
{
closed = 1;
nodes = (
"66 0 LINE",
"439 0 LINE",
"439 61 LINE",
"139 61 LINE",
"139 589 LINE SMOOTH",
"139 601 OFFCURVE",
"148 614 OFFCURVE",
"148 623 CURVE",
"66 623 LINE"
);
}
);
};
hints = (
{
origin = "{0, 3}";
type = Corner;
name = _corner.rightSpur;
}
);
layerId = "37FE174D-E85B-4C4C-A1AE-51D7E67A9FC9";
paths = (
{
closed = 1;
nodes = (
"469 0 LINE",
"469 114 LINE",
"186 114 LINE",
"186 623 LINE",
"51 623 LINE",
"51 0 LINE"
);
}
);
width = 500;
},
{
anchors = (
{
name = bottom;
position = "{125, 0}";
},
{
name = center;
position = "{54, 312}";
},
{
name = top;
position = "{100, 623}";
},
{
name = topright;
position = "{90, 457}";
}
);
hints = (
{
origin = "{0, 3}";
type = Corner;
name = _corner.rightSpur;
}
);
layerId = "7EB90DB1-9188-465D-93C7-E6C577A18003";
paths = (
{
closed = 1;
nodes = (
"224 0 LINE",
"224 62 LINE",
"80 62 LINE",
"80 623 LINE",
"29 623 LINE",
"29 0 LINE"
);
}
);
width = 250;
},
{
anchors = (
{
name = bottom;
position = "{125, 0}";
},
{
name = center;
position = "{50, 312}";
},
{
name = top;
position = "{100, 623}";
},
{
name = topright;
position = "{90, 457}";
}
);
hints = (
{
origin = "{0, 3}";
type = Corner;
name = _corner.rightSpur;
}
);
layerId = "0E826D2B-F2D1-4058-A5E0-936DF7ED7520";
paths = (
{
closed = 1;
nodes = (
"224 0 LINE",
"224 20 LINE",
"61 20 LINE",
"61 623 LINE",
"39 623 LINE",
"39 0 LINE"
);
}
);
width = 250;
},
{
anchors = (
{
name = bottom;
position = "{500, 0}";
},
{
name = center;
position = "{149, 312}";
},
{
name = top;
position = "{400, 623}";
},
{
name = topright;
position = "{360, 457}";
}
);
hints = (
{
origin = "{0, 3}";
type = Corner;
name = _corner.rightSpur;
}
);
layerId = "16CD5438-0A7A-495F-951A-DBB915DF0BEC";
paths = (
{
closed = 1;
nodes = (
"888 0 LINE",
"888 28 LINE",
"163 28 LINE",
"163 623 LINE",
"132 623 LINE",
"132 0 LINE"
);
}
);
width = 1000;
},
{
anchors = (
{
name = bottom;
position = "{125, 0}";
},
{
name = center;
position = "{54, 312}";
},
{
name = top;
position = "{100, 623}";
},
{
name = topright;
position = "{90, 457}";
}
);
hints = (
{
origin = "{0, 3}";
type = Corner;
name = _corner.rightSpur;
}
);
layerId = "E49A0581-9397-4BB7-ADB1-45D6EDC9C316";
paths = (
{
closed = 1;
nodes = (
"230 0 LINE",
"230 94 LINE",
"109 94 LINE",
"109 623 LINE",
"23 623 LINE",
"23 0 LINE"
);
}
);
width = 250;
},
{
anchors = (
{
name = bottom;
position = "{500, 0}";
},
{
name = center;
position = "{168, 312}";
},
{
name = top;
position = "{400, 623}";
},
{
name = topright;
position = "{360, 457}";
}
);
hints = (
{
origin = "{0, 3}";
type = Corner;
name = _corner.rightSpur;
}
);
layerId = "382F13D7-0CC9-4B85-A585-CBE12F4435D4";
paths = (
{
closed = 1;
nodes = (
"888 0 LINE",
"888 74 LINE",
"214 74 LINE",
"214 623 LINE",
"122 623 LINE",
"122 0 LINE"
);
}
);
width = 1000;
},
{
anchors = (
{
name = bottom;
position = "{500, 0}";
},
{
name = center;
position = "{168, 312}";
},
{
name = top;
position = "{400, 623}";
},
{
name = topright;
position = "{360, 457}";
}
);
hints = (
{
origin = "{0, 3}";
type = Corner;
name = _corner.rightSpur;
}
);
layerId = "CC486EF6-6464-4B93-9956-4F2B932959EA";
paths = (
{
closed = 1;
nodes = (
"908 0 LINE",
"908 120 LINE",
"265 120 LINE",
"265 623 LINE",
"102 623 LINE",
"102 0 LINE"
);
}
);
width = 1000;
}
);
unicode = 004C;
},
{
glyphname = LJ;
layers = (
{
background = {
paths = (
{
closed = 1;
nodes = (
"309 0 LINE",
"309 61 LINE",
"139 61 LINE",
"139 589 LINE SMOOTH",
"139 601 OFFCURVE",
"148 609 OFFCURVE",
"148 623 CURVE",
"66 623 LINE",
"66 0 LINE"
);
}
);
};
layerId = "051EFAE4-8BBE-4FBB-A016-4335C3E52F59";
paths = (
{
closed = 1;
nodes = (
"373 -151 OFFCURVE",
"456 -91 OFFCURVE",
"451 69 CURVE",
"451 564 LINE",
"451 564 LINE",
"451 623 LINE",
"252 623 LINE",
"252 564 LINE",
"382 564 LINE",
"382 68 LINE SMOOTH",
"382 -48 OFFCURVE",
"348 -89 OFFCURVE",
"285 -89 CURVE SMOOTH",
"245 -89 OFFCURVE",
"215 -70 OFFCURVE",
"205 -57 CURVE SMOOTH",
"193 -44 OFFCURVE",
"198 -34 OFFCURVE",
"186 -25 CURVE",
"139 -82 LINE",
"178 -128 OFFCURVE",
"227 -151 OFFCURVE",
"286 -151 CURVE SMOOTH"
);
},
{
closed = 1;
nodes = (
"309 0 LINE",
"309 61 LINE",
"139 61 LINE",
"139 589 LINE SMOOTH",
"139 601 OFFCURVE",
"148 609 OFFCURVE",
"148 623 CURVE",
"66 623 LINE",
"66 0 LINE"
);
}
);
width = 500;
},
{
background = {
paths = (
{
closed = 1;
nodes = (
"309 0 LINE",
"309 61 LINE",
"139 61 LINE",
"139 589 LINE SMOOTH",
"139 601 OFFCURVE",
"148 609 OFFCURVE",
"148 623 CURVE",
"66 623 LINE",
"66 0 LINE"
);
}
);
};
layerId = "4196E4A4-01D0-4BE0-B812-9D3AF152A0E4";
paths = (
{
closed = 1;
nodes = (
"373 -151 OFFCURVE",
"456 -91 OFFCURVE",
"451 69 CURVE",
"451 564 LINE",
"451 564 LINE",
"451 623 LINE",
"252 623 LINE",
"252 564 LINE",
"382 564 LINE",
"382 68 LINE SMOOTH",
"382 -48 OFFCURVE",
"348 -89 OFFCURVE",
"285 -89 CURVE SMOOTH",
"245 -89 OFFCURVE",
"215 -70 OFFCURVE",
"205 -57 CURVE SMOOTH",
"193 -44 OFFCURVE",
"198 -34 OFFCURVE",
"186 -25 CURVE",
"139 -82 LINE",
"178 -128 OFFCURVE",
"227 -151 OFFCURVE",
"286 -151 CURVE SMOOTH"
);
},
{
closed = 1;
nodes = (
"309 0 LINE",
"309 61 LINE",
"139 61 LINE",
"139 589 LINE SMOOTH",
"139 601 OFFCURVE",
"148 609 OFFCURVE",
"148 623 CURVE",
"66 623 LINE",
"66 0 LINE"
);
}
);
width = 500;
},
{
background = {
paths = (
{
closed = 1;
nodes = (
"299 0 LINE",
"299 94 LINE",
"176 94 LINE",
"176 588 LINE",
"178 611 OFFCURVE",
"183 609 OFFCURVE",
"183 623 CURVE",
"61 623 LINE",
"61 0 LINE"
);
}
);
};
layerId = "37FE174D-E85B-4C4C-A1AE-51D7E67A9FC9";
paths = (
{
closed = 1;
nodes = (
"394 -179 OFFCURVE",
"475 -113 OFFCURVE",
"475 39 CURVE",
"475 530 LINE",
"475 530 LINE",
"475 623 LINE",
"263 623 LINE",
"263 530 LINE",
"363 530 LINE",
"363 52 LINE",
"363 -44 OFFCURVE",
"341 -83 OFFCURVE",
"292 -83 CURVE SMOOTH",
"271 -83 OFFCURVE",
"260 -74 OFFCURVE",
"253 -64 CURVE SMOOTH",
"241 -47 OFFCURVE",
"246 -38 OFFCURVE",
"231 -26 CURVE",
"160 -112 LINE",
"195 -156 OFFCURVE",
"242 -179 OFFCURVE",
"297 -179 CURVE"
);
},
{
closed = 1;
nodes = (
"299 0 LINE",
"299 94 LINE",
"176 94 LINE",
"176 588 LINE",
"178 611 OFFCURVE",
"183 609 OFFCURVE",
"183 623 CURVE",
"61 623 LINE",
"61 0 LINE"
);
}
);
width = 500;
},
{
background = {
paths = (
{
closed = 1;
nodes = (
"309 0 LINE",
"309 61 LINE",
"139 61 LINE",
"139 589 LINE SMOOTH",
"139 601 OFFCURVE",
"148 609 OFFCURVE",
"148 623 CURVE",
"66 623 LINE",
"66 0 LINE"
);
}
);
};
layerId = "7EB90DB1-9188-465D-93C7-E6C577A18003";
paths = (
{
closed = 1;
nodes = (
"373 -151 OFFCURVE",
"456 -91 OFFCURVE",
"451 69 CURVE",
"451 564 LINE",
"451 564 LINE",
"451 623 LINE",
"252 623 LINE",
"252 564 LINE",
"382 564 LINE",
"382 68 LINE SMOOTH",
"382 -48 OFFCURVE",
"348 -89 OFFCURVE",
"285 -89 CURVE SMOOTH",
"245 -89 OFFCURVE",
"215 -70 OFFCURVE",
"205 -57 CURVE SMOOTH",
"193 -44 OFFCURVE",
"198 -34 OFFCURVE",
"186 -25 CURVE",
"139 -82 LINE",
"178 -128 OFFCURVE",
"227 -151 OFFCURVE",
"286 -151 CURVE SMOOTH"
);
},
{
closed = 1;
nodes = (
"309 0 LINE",
"309 61 LINE",
"139 61 LINE",
"139 589 LINE SMOOTH",
"139 601 OFFCURVE",
"148 609 OFFCURVE",
"148 623 CURVE",
"66 623 LINE",
"66 0 LINE"
);
}
);
width = 500;
},
{
background = {
paths = (
{
closed = 1;
nodes = (
"309 0 LINE",
"309 61 LINE",
"139 61 LINE",
"139 589 LINE SMOOTH",
"139 601 OFFCURVE",
"148 609 OFFCURVE",
"148 623 CURVE",
"66 623 LINE",
"66 0 LINE"
);
}
);
};
layerId = "0E826D2B-F2D1-4058-A5E0-936DF7ED7520";
paths = (
{
closed = 1;
nodes = (
"373 -151 OFFCURVE",
"456 -91 OFFCURVE",
"451 69 CURVE",
"451 564 LINE",
"451 564 LINE",
"451 623 LINE",
"252 623 LINE",
"252 564 LINE",
"382 564 LINE",
"382 68 LINE SMOOTH",
"382 -48 OFFCURVE",
"348 -89 OFFCURVE",
"285 -89 CURVE SMOOTH",
"245 -89 OFFCURVE",
"215 -70 OFFCURVE",
"205 -57 CURVE SMOOTH",
"193 -44 OFFCURVE",
"198 -34 OFFCURVE",
"186 -25 CURVE",
"139 -82 LINE",
"178 -128 OFFCURVE",
"227 -151 OFFCURVE",
"286 -151 CURVE SMOOTH"
);
},
{
closed = 1;
nodes = (
"309 0 LINE",
"309 61 LINE",
"139 61 LINE",
"139 589 LINE SMOOTH",
"139 601 OFFCURVE",
"148 609 OFFCURVE",
"148 623 CURVE",
"66 623 LINE",
"66 0 LINE"
);
}
);
width = 500;
},
{
background = {
paths = (
{
closed = 1;
nodes = (
"309 0 LINE",
"309 61 LINE",
"139 61 LINE",
"139 589 LINE SMOOTH",
"139 601 OFFCURVE",
"148 609 OFFCURVE",
"148 623 CURVE",
"66 623 LINE",
"66 0 LINE"
);
}
);
};
layerId = "16CD5438-0A7A-495F-951A-DBB915DF0BEC";
paths = (
{
closed = 1;
nodes = (
"373 -151 OFFCURVE",
"456 -91 OFFCURVE",
"451 69 CURVE",
"451 564 LINE",
"451 564 LINE",
"451 623 LINE",
"252 623 LINE",
"252 564 LINE",
"382 564 LINE",
"382 68 LINE SMOOTH",
"382 -48 OFFCURVE",
"348 -89 OFFCURVE",
"285 -89 CURVE SMOOTH",
"245 -89 OFFCURVE",
"215 -70 OFFCURVE",
"205 -57 CURVE SMOOTH",
"193 -44 OFFCURVE",
"198 -34 OFFCURVE",
"186 -25 CURVE",
"139 -82 LINE",
"178 -128 OFFCURVE",
"227 -151 OFFCURVE",
"286 -151 CURVE SMOOTH"
);
},
{
closed = 1;
nodes = (
"309 0 LINE",
"309 61 LINE",
"139 61 LINE",
"139 589 LINE SMOOTH",
"139 601 OFFCURVE",
"148 609 OFFCURVE",
"148 623 CURVE",
"66 623 LINE",
"66 0 LINE"
);
}
);
width = 500;
},
{
background = {
paths = (
{
closed = 1;
nodes = (
"309 0 LINE",
"309 61 LINE",
"139 61 LINE",
"139 589 LINE SMOOTH",
"139 601 OFFCURVE",
"148 609 OFFCURVE",
"148 623 CURVE",
"66 623 LINE",
"66 0 LINE"
);
}
);
};
layerId = "E49A0581-9397-4BB7-ADB1-45D6EDC9C316";
paths = (
{
closed = 1;
nodes = (
"373 -151 OFFCURVE",
"456 -91 OFFCURVE",
"451 69 CURVE",
"451 564 LINE",
"451 564 LINE",
"451 623 LINE",
"252 623 LINE",
"252 564 LINE",
"382 564 LINE",
"382 68 LINE SMOOTH",
"382 -48 OFFCURVE",
"348 -89 OFFCURVE",
"285 -89 CURVE SMOOTH",
"245 -89 OFFCURVE",
"215 -70 OFFCURVE",
"205 -57 CURVE SMOOTH",
"193 -44 OFFCURVE",
"198 -34 OFFCURVE",
"186 -25 CURVE",
"139 -82 LINE",
"178 -128 OFFCURVE",
"227 -151 OFFCURVE",
"286 -151 CURVE SMOOTH"
);
},
{
closed = 1;
nodes = (
"309 0 LINE",
"309 61 LINE",
"139 61 LINE",
"139 589 LINE SMOOTH",
"139 601 OFFCURVE",
"148 609 OFFCURVE",
"148 623 CURVE",
"66 623 LINE",
"66 0 LINE"
);
}
);
width = 500;
},
{
background = {
paths = (
{
closed = 1;
nodes = (
"309 0 LINE",
"309 61 LINE",
"139 61 LINE",
"139 589 LINE SMOOTH",
"139 601 OFFCURVE",
"148 609 OFFCURVE",
"148 623 CURVE",
"66 623 LINE",
"66 0 LINE"
);
}
);
};
layerId = "382F13D7-0CC9-4B85-A585-CBE12F4435D4";
paths = (
{
closed = 1;
nodes = (
"373 -151 OFFCURVE",
"456 -91 OFFCURVE",
"451 69 CURVE",
"451 564 LINE",
"451 564 LINE",
"451 623 LINE",
"252 623 LINE",
"252 564 LINE",
"382 564 LINE",
"382 68 LINE SMOOTH",
"382 -48 OFFCURVE",
"348 -89 OFFCURVE",
"285 -89 CURVE SMOOTH",
"245 -89 OFFCURVE",
"215 -70 OFFCURVE",
"205 -57 CURVE SMOOTH",
"193 -44 OFFCURVE",
"198 -34 OFFCURVE",
"186 -25 CURVE",
"139 -82 LINE",
"178 -128 OFFCURVE",
"227 -151 OFFCURVE",
"286 -151 CURVE SMOOTH"
);
},
{
closed = 1;
nodes = (
"309 0 LINE",
"309 61 LINE",
"139 61 LINE",
"139 589 LINE SMOOTH",
"139 601 OFFCURVE",
"148 609 OFFCURVE",
"148 623 CURVE",
"66 623 LINE",
"66 0 LINE"
);
}
);
width = 500;
},
{
background = {
paths = (
{
closed = 1;
nodes = (
"309 0 LINE",
"309 61 LINE",
"139 61 LINE",
"139 589 LINE SMOOTH",
"139 601 OFFCURVE",
"148 609 OFFCURVE",
"148 623 CURVE",
"66 623 LINE",
"66 0 LINE"
);
}
);
};
layerId = "CC486EF6-6464-4B93-9956-4F2B932959EA";
paths = (
{
closed = 1;
nodes = (
"373 -151 OFFCURVE",
"456 -91 OFFCURVE",
"451 69 CURVE",
"451 564 LINE",
"451 564 LINE",
"451 623 LINE",
"252 623 LINE",
"252 564 LINE",
"382 564 LINE",
"382 68 LINE SMOOTH",
"382 -48 OFFCURVE",
"348 -89 OFFCURVE",
"285 -89 CURVE SMOOTH",
"245 -89 OFFCURVE",
"215 -70 OFFCURVE",
"205 -57 CURVE SMOOTH",
"193 -44 OFFCURVE",
"198 -34 OFFCURVE",
"186 -25 CURVE",
"139 -82 LINE",
"178 -128 OFFCURVE",
"227 -151 OFFCURVE",
"286 -151 CURVE SMOOTH"
);
},
{
closed = 1;
nodes = (
"309 0 LINE",
"309 61 LINE",
"139 61 LINE",
"139 589 LINE SMOOTH",
"139 601 OFFCURVE",
"148 609 OFFCURVE",
"148 623 CURVE",
"66 623 LINE",
"66 0 LINE"
);
}
);
width = 500;
}
);
unicode = 01C7;
},
{
glyphname = Lacute;
layers = (
{
components = (
{
name = L;
},
{
name = acutecomb.case;
transform = "{1, 0, 0, 1, -69, 0}";
}
);
layerId = "051EFAE4-8BBE-4FBB-A016-4335C3E52F59";
width = 500;
},
{
components = (
{
name = L;
},
{
name = acutecomb.case;
transform = "{1, 0, 0, 1, -69, 0}";
}
);
layerId = "4196E4A4-01D0-4BE0-B812-9D3AF152A0E4";
width = 500;
},
{
background = {
paths = (
{
closed = 1;
nodes = (
"66 0 LINE",
"439 0 LINE",
"439 61 LINE",
"139 61 LINE",
"139 589 LINE SMOOTH",
"139 601 OFFCURVE",
"148 614 OFFCURVE",
"148 623 CURVE",
"66 623 LINE"
);
},
{
closed = 1;
nodes = (
"156 702 LINE",
"179 660 LINE",
"348 721 LINE",
"308 791 LINE"
);
}
);
};
components = (
{
name = L;
},
{
name = acutecomb.case;
transform = "{1, 0, 0, 1, -20, 0}";
}
);
layerId = "37FE174D-E85B-4C4C-A1AE-51D7E67A9FC9";
width = 500;
},
{
components = (
{
name = L;
},
{
name = acutecomb.case;
transform = "{1, 0, 0, 1, -169, 0}";
}
);
layerId = "7EB90DB1-9188-465D-93C7-E6C577A18003";
width = 250;
},
{
components = (
{
name = L;
},
{
name = acutecomb.case;
transform = "{1, 0, 0, 1, -169, 0}";
}
);
layerId = "0E826D2B-F2D1-4058-A5E0-936DF7ED7520";
width = 250;
},
{
components = (
{
name = L;
},
{
name = acutecomb.case;
transform = "{1, 0, 0, 1, 131, 0}";
}
);
layerId = "16CD5438-0A7A-495F-951A-DBB915DF0BEC";
width = 1000;
},
{
components = (
{
name = L;
},
{
name = acutecomb.case;
transform = "{1, 0, 0, 1, -169, 0}";
}
);
layerId = "E49A0581-9397-4BB7-ADB1-45D6EDC9C316";
width = 250;
},
{
components = (
{
name = L;
},
{
name = acutecomb.case;
transform = "{1, 0, 0, 1, 131, 0}";
}
);
layerId = "382F13D7-0CC9-4B85-A585-CBE12F4435D4";
width = 1000;
},
{
components = (
{
name = L;
},
{
name = acutecomb.case;
transform = "{1, 0, 0, 1, 131, 0}";
}
);
layerId = "CC486EF6-6464-4B93-9956-4F2B932959EA";
width = 1000;
}
);
unicode = 0139;
},
{
glyphname = Lcaron;
layers = (
{
components = (
{
name = L;
},
{
name = uniF40A;
transform = "{1, 0, 0, 1, 115, 0}";
}
);
layerId = "051EFAE4-8BBE-4FBB-A016-4335C3E52F59";
width = 500;
},
{
components = (
{
name = L;
},
{
name = uniF40A;
transform = "{1, 0, 0, 1, 115, 0}";
}
);
layerId = "4196E4A4-01D0-4BE0-B812-9D3AF152A0E4";
width = 500;
},
{
background = {
paths = (
{
closed = 1;
nodes = (
"66 0 LINE",
"439 0 LINE",
"439 61 LINE",
"139 61 LINE",
"139 589 LINE SMOOTH",
"139 601 OFFCURVE",
"148 614 OFFCURVE",
"148 623 CURVE",
"66 623 LINE"
);
},
{
closed = 1;
nodes = (
"424 601 OFFCURVE",
"398 628 OFFCURVE",
"370 628 CURVE SMOOTH",
"342 628 OFFCURVE",
"322 608 OFFCURVE",
"322 581 CURVE SMOOTH",
"322 554 OFFCURVE",
"363 541 OFFCURVE",
"363 519 CURVE SMOOTH",
"363 500 OFFCURVE",
"342 463 OFFCURVE",
"311 435 CURVE",
"339 411 LINE",
"396 468 OFFCURVE",
"424 518 OFFCURVE",
"424 562 CURVE SMOOTH"
);
}
);
};
components = (
{
name = L;
},
{
name = uniF40A;
transform = "{1, 0, 0, 1, 115, 0}";
}
);
layerId = "37FE174D-E85B-4C4C-A1AE-51D7E67A9FC9";
width = 500;
},
{
components = (
{
name = L;
},
{
name = uniF40A;
transform = "{1, 0, 0, 1, 115, 0}";
}
);
layerId = "7EB90DB1-9188-465D-93C7-E6C577A18003";
width = 500;
},
{
components = (
{
name = L;
},
{
name = uniF40A;
transform = "{1, 0, 0, 1, 115, 0}";
}
);
layerId = "0E826D2B-F2D1-4058-A5E0-936DF7ED7520";
width = 500;
},
{
components = (
{
name = L;
},
{
name = uniF40A;
transform = "{1, 0, 0, 1, 115, 0}";
}
);
layerId = "16CD5438-0A7A-495F-951A-DBB915DF0BEC";
width = 500;
},
{
components = (
{
name = L;
},
{
name = uniF40A;
transform = "{1, 0, 0, 1, 115, 0}";
}
);
layerId = "E49A0581-9397-4BB7-ADB1-45D6EDC9C316";
width = 500;
},
{
components = (
{
name = L;
},
{
name = uniF40A;
transform = "{1, 0, 0, 1, 115, 0}";
}
);
layerId = "382F13D7-0CC9-4B85-A585-CBE12F4435D4";
width = 500;
},
{
components = (
{
name = L;
},
{
name = uniF40A;
transform = "{1, 0, 0, 1, 115, 0}";
}
);
layerId = "CC486EF6-6464-4B93-9956-4F2B932959EA";
width = 500;
}
);
unicode = 013D;
},
{
glyphname = Lj;
layers = (
{
background = {
components = (
{
name = dotaccent;
transform = "{1, 0, 0, 1, 72, 0}";
}
);
paths = (
{
closed = 1;
nodes = (
"289 -169 OFFCURVE",
"369 -117 OFFCURVE",
"369 22 CURVE SMOOTH",
"369 457 LINE",
"126 457 LINE",
"126 398 LINE",
"296 398 LINE",
"296 18 LINE SMOOTH",
"296 -74 OFFCURVE",
"253 -112 OFFCURVE",
"193 -112 CURVE SMOOTH",
"176 -112 OFFCURVE",
"161 -108 OFFCURVE",
"146 -101 CURVE SMOOTH",
"88 -74 OFFCURVE",
"109 -62 OFFCURVE",
"95 -48 CURVE",
"48 -110 LINE",
"83 -153 OFFCURVE",
"129 -174 OFFCURVE",
"188 -174 CURVE"
);
}
);
};
components = (
{
name = dotaccent;
transform = "{1, 0, 0, 1, 129, -1}";
}
);
layerId = "051EFAE4-8BBE-4FBB-A016-4335C3E52F59";
paths = (
{
closed = 1;
nodes = (
"349 -169 OFFCURVE",
"429 -117 OFFCURVE",
"429 22 CURVE SMOOTH",
"429 457 LINE",
"216 457 LINE",
"216 398 LINE",
"356 398 LINE",
"356 18 LINE SMOOTH",
"356 -74 OFFCURVE",
"313 -112 OFFCURVE",
"253 -112 CURVE SMOOTH",
"236 -112 OFFCURVE",
"221 -108 OFFCURVE",
"206 -101 CURVE SMOOTH",
"156 -78 OFFCURVE",
"169 -62 OFFCURVE",
"155 -48 CURVE",
"108 -110 LINE",
"143 -153 OFFCURVE",
"189 -174 OFFCURVE",
"248 -174 CURVE SMOOTH"
);
},
{
closed = 1;
nodes = (
"299 0 LINE",
"299 61 LINE",
"139 61 LINE",
"139 589 LINE SMOOTH",
"139 601 OFFCURVE",
"148 609 OFFCURVE",
"148 623 CURVE",
"66 623 LINE",
"66 0 LINE"
);
}
);
width = 500;
},
{
background = {
components = (
{
name = dotaccent;
transform = "{1, 0, 0, 1, 72, 0}";
}
);
paths = (
{
closed = 1;
nodes = (
"289 -169 OFFCURVE",
"369 -117 OFFCURVE",
"369 22 CURVE SMOOTH",
"369 457 LINE",
"126 457 LINE",
"126 398 LINE",
"296 398 LINE",
"296 18 LINE SMOOTH",
"296 -74 OFFCURVE",
"253 -112 OFFCURVE",
"193 -112 CURVE SMOOTH",
"176 -112 OFFCURVE",
"161 -108 OFFCURVE",
"146 -101 CURVE SMOOTH",
"88 -74 OFFCURVE",
"109 -62 OFFCURVE",
"95 -48 CURVE",
"48 -110 LINE",
"83 -153 OFFCURVE",
"129 -174 OFFCURVE",
"188 -174 CURVE"
);
}
);
};
components = (
{
name = dotaccent;
transform = "{1, 0, 0, 1, 129, -1}";
}
);
layerId = "4196E4A4-01D0-4BE0-B812-9D3AF152A0E4";
paths = (
{
closed = 1;
nodes = (
"349 -169 OFFCURVE",
"429 -117 OFFCURVE",
"429 22 CURVE SMOOTH",
"429 457 LINE",
"216 457 LINE",
"216 398 LINE",
"356 398 LINE",
"356 18 LINE SMOOTH",
"356 -74 OFFCURVE",
"313 -112 OFFCURVE",
"253 -112 CURVE SMOOTH",
"236 -112 OFFCURVE",
"221 -108 OFFCURVE",
"206 -101 CURVE SMOOTH",
"156 -78 OFFCURVE",
"169 -62 OFFCURVE",
"155 -48 CURVE",
"108 -110 LINE",
"143 -153 OFFCURVE",
"189 -174 OFFCURVE",
"248 -174 CURVE SMOOTH"
);
},
{
closed = 1;
nodes = (
"299 0 LINE",
"299 61 LINE",
"139 61 LINE",
"139 589 LINE SMOOTH",
"139 601 OFFCURVE",
"148 609 OFFCURVE",
"148 623 CURVE",
"66 623 LINE",
"66 0 LINE"
);
}
);
width = 500;
},
{
background = {
components = (
{
name = dotaccentcomb;
transform = "{1, 0, 0, 1, 143, 0}";
}
);
};
components = (
{
name = dotaccent;
transform = "{1, 0, 0, 1, 144, 0}";
}
);
layerId = "37FE174D-E85B-4C4C-A1AE-51D7E67A9FC9";
paths = (
{
closed = 1;
nodes = (
"368 -177 OFFCURVE",
"452 -118 OFFCURVE",
"452 23 CURVE SMOOTH",
"452 467 LINE",
"237 467 LINE",
"237 376 LINE",
"339 376 LINE",
"339 19 LINE SMOOTH",
"339 -53 OFFCURVE",
"306 -82 OFFCURVE",
"265 -82 CURVE SMOOTH",
"252 -82 OFFCURVE",
"244 -80 OFFCURVE",
"235 -69 CURVE SMOOTH",
"222 -50 OFFCURVE",
"229 -42 OFFCURVE",
"216 -37 CURVE",
"147 -128 LINE",
"178 -160 OFFCURVE",
"216 -177 OFFCURVE",
"262 -177 CURVE SMOOTH"
);
},
{
closed = 1;
nodes = (
"279 0 LINE",
"279 94 LINE",
"176 94 LINE",
"176 588 LINE SMOOTH",
"176 606 OFFCURVE",
"183 609 OFFCURVE",
"183 623 CURVE",
"61 623 LINE",
"61 0 LINE"
);
}
);
width = 500;
},
{
background = {
components = (
{
name = dotaccent;
transform = "{1, 0, 0, 1, 72, 0}";
}
);
paths = (
{
closed = 1;
nodes = (
"289 -169 OFFCURVE",
"369 -117 OFFCURVE",
"369 22 CURVE SMOOTH",
"369 457 LINE",
"126 457 LINE",
"126 398 LINE",
"296 398 LINE",
"296 18 LINE SMOOTH",
"296 -74 OFFCURVE",
"253 -112 OFFCURVE",
"193 -112 CURVE SMOOTH",
"176 -112 OFFCURVE",
"161 -108 OFFCURVE",
"146 -101 CURVE SMOOTH",
"88 -74 OFFCURVE",
"109 -62 OFFCURVE",
"95 -48 CURVE",
"48 -110 LINE",
"83 -153 OFFCURVE",
"129 -174 OFFCURVE",
"188 -174 CURVE"
);
}
);
};
components = (
{
name = dotaccent;
transform = "{1, 0, 0, 1, 129, -1}";
}
);
layerId = "7EB90DB1-9188-465D-93C7-E6C577A18003";
paths = (
{
closed = 1;
nodes = (
"349 -169 OFFCURVE",
"429 -117 OFFCURVE",
"429 22 CURVE SMOOTH",
"429 457 LINE",
"216 457 LINE",
"216 398 LINE",
"356 398 LINE",
"356 18 LINE SMOOTH",
"356 -74 OFFCURVE",
"313 -112 OFFCURVE",
"253 -112 CURVE SMOOTH",
"236 -112 OFFCURVE",
"221 -108 OFFCURVE",
"206 -101 CURVE SMOOTH",
"156 -78 OFFCURVE",
"169 -62 OFFCURVE",
"155 -48 CURVE",
"108 -110 LINE",
"143 -153 OFFCURVE",
"189 -174 OFFCURVE",
"248 -174 CURVE SMOOTH"
);
},
{
closed = 1;
nodes = (
"299 0 LINE",
"299 61 LINE",
"139 61 LINE",
"139 589 LINE SMOOTH",
"139 601 OFFCURVE",
"148 609 OFFCURVE",
"148 623 CURVE",
"66 623 LINE",
"66 0 LINE"
);
}
);
width = 500;
},
{
background = {
components = (
{
name = dotaccent;
transform = "{1, 0, 0, 1, 72, 0}";
}
);
paths = (
{
closed = 1;
nodes = (
"289 -169 OFFCURVE",
"369 -117 OFFCURVE",
"369 22 CURVE SMOOTH",
"369 457 LINE",
"126 457 LINE",
"126 398 LINE",
"296 398 LINE",
"296 18 LINE SMOOTH",
"296 -74 OFFCURVE",
"253 -112 OFFCURVE",
"193 -112 CURVE SMOOTH",
"176 -112 OFFCURVE",
"161 -108 OFFCURVE",
"146 -101 CURVE SMOOTH",
"88 -74 OFFCURVE",
"109 -62 OFFCURVE",
"95 -48 CURVE",
"48 -110 LINE",
"83 -153 OFFCURVE",
"129 -174 OFFCURVE",
"188 -174 CURVE"
);
}
);
};
components = (
{
name = dotaccent;
transform = "{1, 0, 0, 1, 129, -1}";
}
);
layerId = "0E826D2B-F2D1-4058-A5E0-936DF7ED7520";
paths = (
{
closed = 1;
nodes = (
"349 -169 OFFCURVE",
"429 -117 OFFCURVE",
"429 22 CURVE SMOOTH",
"429 457 LINE",
"216 457 LINE",
"216 398 LINE",
"356 398 LINE",
"356 18 LINE SMOOTH",
"356 -74 OFFCURVE",
"313 -112 OFFCURVE",
"253 -112 CURVE SMOOTH",
"236 -112 OFFCURVE",
"221 -108 OFFCURVE",
"206 -101 CURVE SMOOTH",
"156 -78 OFFCURVE",
"169 -62 OFFCURVE",
"155 -48 CURVE",
"108 -110 LINE",
"143 -153 OFFCURVE",
"189 -174 OFFCURVE",
"248 -174 CURVE SMOOTH"
);
},
{
closed = 1;
nodes = (
"299 0 LINE",
"299 61 LINE",
"139 61 LINE",
"139 589 LINE SMOOTH",
"139 601 OFFCURVE",
"148 609 OFFCURVE",
"148 623 CURVE",
"66 623 LINE",
"66 0 LINE"
);
}
);
width = 500;
},
{
background = {
components = (
{
name = dotaccent;
transform = "{1, 0, 0, 1, 72, 0}";
}
);
paths = (
{
closed = 1;
nodes = (
"289 -169 OFFCURVE",
"369 -117 OFFCURVE",
"369 22 CURVE SMOOTH",
"369 457 LINE",
"126 457 LINE",
"126 398 LINE",
"296 398 LINE",
"296 18 LINE SMOOTH",
"296 -74 OFFCURVE",
"253 -112 OFFCURVE",
"193 -112 CURVE SMOOTH",
"176 -112 OFFCURVE",
"161 -108 OFFCURVE",
"146 -101 CURVE SMOOTH",
"88 -74 OFFCURVE",
"109 -62 OFFCURVE",
"95 -48 CURVE",
"48 -110 LINE",
"83 -153 OFFCURVE",
"129 -174 OFFCURVE",
"188 -174 CURVE"
);
}
);
};
components = (
{
name = dotaccent;
transform = "{1, 0, 0, 1, 129, -1}";
}
);
layerId = "16CD5438-0A7A-495F-951A-DBB915DF0BEC";
paths = (
{
closed = 1;
nodes = (
"349 -169 OFFCURVE",
"429 -117 OFFCURVE",
"429 22 CURVE SMOOTH",
"429 457 LINE",
"216 457 LINE",
"216 398 LINE",
"356 398 LINE",
"356 18 LINE SMOOTH",
"356 -74 OFFCURVE",
"313 -112 OFFCURVE",
"253 -112 CURVE SMOOTH",
"236 -112 OFFCURVE",
"221 -108 OFFCURVE",
"206 -101 CURVE SMOOTH",
"156 -78 OFFCURVE",
"169 -62 OFFCURVE",
"155 -48 CURVE",
"108 -110 LINE",
"143 -153 OFFCURVE",
"189 -174 OFFCURVE",
"248 -174 CURVE SMOOTH"
);
},
{
closed = 1;
nodes = (
"299 0 LINE",
"299 61 LINE",
"139 61 LINE",
"139 589 LINE SMOOTH",
"139 601 OFFCURVE",
"148 609 OFFCURVE",
"148 623 CURVE",
"66 623 LINE",
"66 0 LINE"
);
}
);
width = 500;
},
{
background = {
components = (
{
name = dotaccent;
transform = "{1, 0, 0, 1, 72, 0}";
}
);
paths = (
{
closed = 1;
nodes = (
"289 -169 OFFCURVE",
"369 -117 OFFCURVE",
"369 22 CURVE SMOOTH",
"369 457 LINE",
"126 457 LINE",
"126 398 LINE",
"296 398 LINE",
"296 18 LINE SMOOTH",
"296 -74 OFFCURVE",
"253 -112 OFFCURVE",
"193 -112 CURVE SMOOTH",
"176 -112 OFFCURVE",
"161 -108 OFFCURVE",
"146 -101 CURVE SMOOTH",
"88 -74 OFFCURVE",
"109 -62 OFFCURVE",
"95 -48 CURVE",
"48 -110 LINE",
"83 -153 OFFCURVE",
"129 -174 OFFCURVE",
"188 -174 CURVE"
);
}
);
};
components = (
{
name = dotaccent;
transform = "{1, 0, 0, 1, 129, -1}";
}
);
layerId = "E49A0581-9397-4BB7-ADB1-45D6EDC9C316";
paths = (
{
closed = 1;
nodes = (
"349 -169 OFFCURVE",
"429 -117 OFFCURVE",
"429 22 CURVE SMOOTH",
"429 457 LINE",
"216 457 LINE",
"216 398 LINE",
"356 398 LINE",
"356 18 LINE SMOOTH",
"356 -74 OFFCURVE",
"313 -112 OFFCURVE",
"253 -112 CURVE SMOOTH",
"236 -112 OFFCURVE",
"221 -108 OFFCURVE",
"206 -101 CURVE SMOOTH",
"156 -78 OFFCURVE",
"169 -62 OFFCURVE",
"155 -48 CURVE",
"108 -110 LINE",
"143 -153 OFFCURVE",
"189 -174 OFFCURVE",
"248 -174 CURVE SMOOTH"
);
},
{
closed = 1;
nodes = (
"299 0 LINE",
"299 61 LINE",
"139 61 LINE",
"139 589 LINE SMOOTH",
"139 601 OFFCURVE",
"148 609 OFFCURVE",
"148 623 CURVE",
"66 623 LINE",
"66 0 LINE"
);
}
);
width = 500;
},
{
background = {
components = (
{
name = dotaccent;
transform = "{1, 0, 0, 1, 72, 0}";
}
);
paths = (
{
closed = 1;
nodes = (
"289 -169 OFFCURVE",
"369 -117 OFFCURVE",
"369 22 CURVE SMOOTH",
"369 457 LINE",
"126 457 LINE",
"126 398 LINE",
"296 398 LINE",
"296 18 LINE SMOOTH",
"296 -74 OFFCURVE",
"253 -112 OFFCURVE",
"193 -112 CURVE SMOOTH",
"176 -112 OFFCURVE",
"161 -108 OFFCURVE",
"146 -101 CURVE SMOOTH",
"88 -74 OFFCURVE",
"109 -62 OFFCURVE",
"95 -48 CURVE",
"48 -110 LINE",
"83 -153 OFFCURVE",
"129 -174 OFFCURVE",
"188 -174 CURVE"
);
}
);
};
components = (
{
name = dotaccent;
transform = "{1, 0, 0, 1, 129, -1}";
}
);
layerId = "382F13D7-0CC9-4B85-A585-CBE12F4435D4";
paths = (
{
closed = 1;
nodes = (
"349 -169 OFFCURVE",
"429 -117 OFFCURVE",
"429 22 CURVE SMOOTH",
"429 457 LINE",
"216 457 LINE",
"216 398 LINE",
"356 398 LINE",
"356 18 LINE SMOOTH",
"356 -74 OFFCURVE",
"313 -112 OFFCURVE",
"253 -112 CURVE SMOOTH",
"236 -112 OFFCURVE",
"221 -108 OFFCURVE",
"206 -101 CURVE SMOOTH",
"156 -78 OFFCURVE",
"169 -62 OFFCURVE",
"155 -48 CURVE",
"108 -110 LINE",
"143 -153 OFFCURVE",
"189 -174 OFFCURVE",
"248 -174 CURVE SMOOTH"
);
},
{
closed = 1;
nodes = (
"299 0 LINE",
"299 61 LINE",
"139 61 LINE",
"139 589 LINE SMOOTH",
"139 601 OFFCURVE",
"148 609 OFFCURVE",
"148 623 CURVE",
"66 623 LINE",
"66 0 LINE"
);
}
);
width = 500;
},
{
background = {
components = (
{
name = dotaccent;
transform = "{1, 0, 0, 1, 72, 0}";
}
);
paths = (
{
closed = 1;
nodes = (
"289 -169 OFFCURVE",
"369 -117 OFFCURVE",
"369 22 CURVE SMOOTH",
"369 457 LINE",
"126 457 LINE",
"126 398 LINE",
"296 398 LINE",
"296 18 LINE SMOOTH",
"296 -74 OFFCURVE",
"253 -112 OFFCURVE",
"193 -112 CURVE SMOOTH",
"176 -112 OFFCURVE",
"161 -108 OFFCURVE",
"146 -101 CURVE SMOOTH",
"88 -74 OFFCURVE",
"109 -62 OFFCURVE",
"95 -48 CURVE",
"48 -110 LINE",
"83 -153 OFFCURVE",
"129 -174 OFFCURVE",
"188 -174 CURVE"
);
}
);
};
components = (
{
name = dotaccent;
transform = "{1, 0, 0, 1, 129, -1}";
}
);
layerId = "CC486EF6-6464-4B93-9956-4F2B932959EA";
paths = (
{
closed = 1;
nodes = (
"349 -169 OFFCURVE",
"429 -117 OFFCURVE",
"429 22 CURVE SMOOTH",
"429 457 LINE",
"216 457 LINE",
"216 398 LINE",
"356 398 LINE",
"356 18 LINE SMOOTH",
"356 -74 OFFCURVE",
"313 -112 OFFCURVE",
"253 -112 CURVE SMOOTH",
"236 -112 OFFCURVE",
"221 -108 OFFCURVE",
"206 -101 CURVE SMOOTH",
"156 -78 OFFCURVE",
"169 -62 OFFCURVE",
"155 -48 CURVE",
"108 -110 LINE",
"143 -153 OFFCURVE",
"189 -174 OFFCURVE",
"248 -174 CURVE SMOOTH"
);
},
{
closed = 1;
nodes = (
"299 0 LINE",
"299 61 LINE",
"139 61 LINE",
"139 589 LINE SMOOTH",
"139 601 OFFCURVE",
"148 609 OFFCURVE",
"148 623 CURVE",
"66 623 LINE",
"66 0 LINE"
);
}
);
width = 500;
}
);
unicode = 01C8;
},
{
glyphname = Lslash;
layers = (
{
layerId = "051EFAE4-8BBE-4FBB-A016-4335C3E52F59";
paths = (
{
closed = 1;
nodes = (
"446 -1 LINE",
"446 60 LINE",
"146 60 LINE",
"146 267 LINE",
"337 328 LINE",
"337 392 LINE",
"332 389 OFFCURVE",
"323 386 OFFCURVE",
"312 382 CURVE SMOOTH",
"146 328 LINE",
"146 589 LINE",
"149 604 OFFCURVE",
"156 616 OFFCURVE",
"156 621 CURVE SMOOTH",
"156 622 OFFCURVE",
"155 623 OFFCURVE",
"154 623 CURVE",
"73 623 LINE",
"73 305 LINE",
"20 287 LINE",
"20 226 LINE",
"73 243 LINE",
"73 -1 LINE"
);
}
);
width = 500;
},
{
layerId = "4196E4A4-01D0-4BE0-B812-9D3AF152A0E4";
paths = (
{
closed = 1;
nodes = (
"446 -1 LINE",
"446 60 LINE",
"146 60 LINE",
"146 267 LINE",
"337 328 LINE",
"337 392 LINE",
"332 389 OFFCURVE",
"323 386 OFFCURVE",
"312 382 CURVE SMOOTH",
"146 328 LINE",
"146 589 LINE",
"149 604 OFFCURVE",
"156 616 OFFCURVE",
"156 621 CURVE SMOOTH",
"156 622 OFFCURVE",
"155 623 OFFCURVE",
"154 623 CURVE",
"73 623 LINE",
"73 305 LINE",
"20 287 LINE",
"20 226 LINE",
"73 243 LINE",
"73 -1 LINE"
);
}
);
width = 500;
},
{
background = {
paths = (
{
closed = 1;
nodes = (
"73 305 LINE",
"20 287 LINE",
"20 226 LINE",
"73 243 LINE",
"73 -1 LINE",
"446 -1 LINE",
"446 60 LINE",
"146 60 LINE",
"146 267 LINE",
"337 328 LINE",
"337 392 LINE",
"332 389 OFFCURVE",
"323 386 OFFCURVE",
"312 382 CURVE SMOOTH",
"146 328 LINE",
"146 589 LINE",
"149 604 OFFCURVE",
"156 616 OFFCURVE",
"156 621 CURVE SMOOTH",
"156 622 OFFCURVE",
"155 623 OFFCURVE",
"154 623 CURVE",
"73 623 LINE"
);
}
);
};
layerId = "37FE174D-E85B-4C4C-A1AE-51D7E67A9FC9";
paths = (
{
closed = 1;
nodes = (
"459 1 LINE",
"459 95 LINE",
"176 95 LINE",
"176 258 LINE",
"350 315 LINE",
"350 422 LINE",
"339 413 OFFCURVE",
"327 405 OFFCURVE",
"314 399 CURVE",
"176 354 LINE",
"176 588 LINE",
"178 608 OFFCURVE",
"185 613 OFFCURVE",
"185 618 CURVE SMOOTH",
"185 620 OFFCURVE",
"185 621 OFFCURVE",
"183 623 CURVE",
"61 623 LINE",
"61 316 LINE",
"5 298 LINE",
"5 203 LINE",
"61 221 LINE",
"61 1 LINE"
);
}
);
width = 500;
},
{
layerId = "7EB90DB1-9188-465D-93C7-E6C577A18003";
paths = (
{
closed = 1;
nodes = (
"446 -1 LINE",
"446 60 LINE",
"146 60 LINE",
"146 267 LINE",
"337 328 LINE",
"337 392 LINE",
"332 389 OFFCURVE",
"323 386 OFFCURVE",
"312 382 CURVE SMOOTH",
"146 328 LINE",
"146 589 LINE",
"149 604 OFFCURVE",
"156 616 OFFCURVE",
"156 621 CURVE SMOOTH",
"156 622 OFFCURVE",
"155 623 OFFCURVE",
"154 623 CURVE",
"73 623 LINE",
"73 305 LINE",
"20 287 LINE",
"20 226 LINE",
"73 243 LINE",
"73 -1 LINE"
);
}
);
width = 500;
},
{
layerId = "0E826D2B-F2D1-4058-A5E0-936DF7ED7520";
paths = (
{
closed = 1;
nodes = (
"446 -1 LINE",
"446 60 LINE",
"146 60 LINE",
"146 267 LINE",
"337 328 LINE",
"337 392 LINE",
"332 389 OFFCURVE",
"323 386 OFFCURVE",
"312 382 CURVE SMOOTH",
"146 328 LINE",
"146 589 LINE",
"149 604 OFFCURVE",
"156 616 OFFCURVE",
"156 621 CURVE SMOOTH",
"156 622 OFFCURVE",
"155 623 OFFCURVE",
"154 623 CURVE",
"73 623 LINE",
"73 305 LINE",
"20 287 LINE",
"20 226 LINE",
"73 243 LINE",
"73 -1 LINE"
);
}
);
width = 500;
},
{
layerId = "16CD5438-0A7A-495F-951A-DBB915DF0BEC";
paths = (
{
closed = 1;
nodes = (
"446 -1 LINE",
"446 60 LINE",
"146 60 LINE",
"146 267 LINE",
"337 328 LINE",
"337 392 LINE",
"332 389 OFFCURVE",
"323 386 OFFCURVE",
"312 382 CURVE SMOOTH",
"146 328 LINE",
"146 589 LINE",
"149 604 OFFCURVE",
"156 616 OFFCURVE",
"156 621 CURVE SMOOTH",
"156 622 OFFCURVE",
"155 623 OFFCURVE",
"154 623 CURVE",
"73 623 LINE",
"73 305 LINE",
"20 287 LINE",
"20 226 LINE",
"73 243 LINE",
"73 -1 LINE"
);
}
);
width = 500;
},
{
layerId = "E49A0581-9397-4BB7-ADB1-45D6EDC9C316";
paths = (
{
closed = 1;
nodes = (
"446 -1 LINE",
"446 60 LINE",
"146 60 LINE",
"146 267 LINE",
"337 328 LINE",
"337 392 LINE",
"332 389 OFFCURVE",
"323 386 OFFCURVE",
"312 382 CURVE SMOOTH",
"146 328 LINE",
"146 589 LINE",
"149 604 OFFCURVE",
"156 616 OFFCURVE",
"156 621 CURVE SMOOTH",
"156 622 OFFCURVE",
"155 623 OFFCURVE",
"154 623 CURVE",
"73 623 LINE",
"73 305 LINE",
"20 287 LINE",
"20 226 LINE",
"73 243 LINE",
"73 -1 LINE"
);
}
);
width = 500;
},
{
layerId = "382F13D7-0CC9-4B85-A585-CBE12F4435D4";
paths = (
{
closed = 1;
nodes = (
"446 -1 LINE",
"446 60 LINE",
"146 60 LINE",
"146 267 LINE",
"337 328 LINE",
"337 392 LINE",
"332 389 OFFCURVE",
"323 386 OFFCURVE",
"312 382 CURVE SMOOTH",
"146 328 LINE",
"146 589 LINE",
"149 604 OFFCURVE",
"156 616 OFFCURVE",
"156 621 CURVE SMOOTH",
"156 622 OFFCURVE",
"155 623 OFFCURVE",
"154 623 CURVE",
"73 623 LINE",
"73 305 LINE",
"20 287 LINE",
"20 226 LINE",
"73 243 LINE",
"73 -1 LINE"
);
}
);
width = 500;
},
{
layerId = "CC486EF6-6464-4B93-9956-4F2B932959EA";
paths = (
{
closed = 1;
nodes = (
"446 -1 LINE",
"446 60 LINE",
"146 60 LINE",
"146 267 LINE",
"337 328 LINE",
"337 392 LINE",
"332 389 OFFCURVE",
"323 386 OFFCURVE",
"312 382 CURVE SMOOTH",
"146 328 LINE",
"146 589 LINE",
"149 604 OFFCURVE",
"156 616 OFFCURVE",
"156 621 CURVE SMOOTH",
"156 622 OFFCURVE",
"155 623 OFFCURVE",
"154 623 CURVE",
"73 623 LINE",
"73 305 LINE",
"20 287 LINE",
"20 226 LINE",
"73 243 LINE",
"73 -1 LINE"
);
}
);
width = 500;
}
);
unicode = 0141;
},
{
glyphname = M;
layers = (
{
anchors = (
{
name = bottom;
position = "{250, 0}";
},
{
name = top;
position = "{250, 623}";
}
);
layerId = "051EFAE4-8BBE-4FBB-A016-4335C3E52F59";
paths = (
{
closed = 1;
nodes = (
"106 0 LINE",
"106 467 LINE",
"232 219 LINE",
"259 219 LINE",
"394 470 LINE",
"394 0 LINE",
"460 0 LINE",
"460 624 LINE",
"407 624 LINE",
"250 318 LINE",
"96 623 LINE",
"41 623 LINE",
"41 0 LINE"
);
}
);
width = 500;
},
{
anchors = (
{
name = bottom;
position = "{250, 0}";
},
{
name = top;
position = "{250, 623}";
}
);
layerId = "4196E4A4-01D0-4BE0-B812-9D3AF152A0E4";
paths = (
{
closed = 1;
nodes = (
"87 0 LINE",
"87 551 LINE",
"240 274 LINE",
"258 274 LINE",
"414 549 LINE",
"414 0 LINE",
"440 0 LINE",
"440 624 LINE",
"427 624 LINE",
"250 306 LINE",
"76 623 LINE",
"61 623 LINE",
"61 0 LINE"
);
}
);
width = 500;
},
{
anchors = (
{
name = bottom;
position = "{250, 0}";
},
{
name = top;
position = "{250, 623}";
}
);
background = {
paths = (
{
closed = 1;
nodes = (
"41 0 LINE",
"106 0 LINE",
"106 467 LINE",
"232 219 LINE",
"259 219 LINE",
"394 470 LINE",
"394 0 LINE",
"460 0 LINE",
"460 624 LINE",
"407 624 LINE",
"250 318 LINE",
"96 623 LINE",
"41 623 LINE"
);
}
);
};
layerId = "37FE174D-E85B-4C4C-A1AE-51D7E67A9FC9";
paths = (
{
closed = 1;
nodes = (
"144 0 LINE",
"144 412 LINE",
"214 197 LINE",
"288 197 LINE",
"361 412 LINE",
"361 0 LINE",
"480 0 LINE",
"480 624 LINE",
"351 624 LINE",
"253 350 LINE",
"154 623 LINE",
"26 623 LINE",
"26 0 LINE"
);
}
);
width = 500;
},
{
anchors = (
{
name = bottom;
position = "{126, 0}";
},
{
name = top;
position = "{126, 623}";
}
);
layerId = "7EB90DB1-9188-465D-93C7-E6C577A18003";
paths = (
{
closed = 1;
nodes = (
"64 0 LINE",
"64 437 LINE",
"117 219 LINE",
"130 219 LINE",
"188 440 LINE",
"188 0 LINE",
"233 0 LINE",
"233 624 LINE",
"194 624 LINE",
"126 348 LINE",
"59 623 LINE",
"19 623 LINE",
"19 0 LINE"
);
}
);
width = 250;
},
{
anchors = (
{
name = bottom;
position = "{126, 0}";
},
{
name = top;
position = "{126, 623}";
}
);
layerId = "0E826D2B-F2D1-4058-A5E0-936DF7ED7520";
paths = (
{
closed = 1;
nodes = (
"46 0 LINE",
"46 532 LINE",
"117 258 LINE",
"130 258 LINE",
"206 535 LINE",
"206 0 LINE",
"227 0 LINE",
"227 624 LINE",
"207 624 LINE",
"125 306 LINE",
"46 623 LINE",
"25 623 LINE",
"25 0 LINE"
);
}
);
width = 250;
},
{
anchors = (
{
name = bottom;
position = "{500, 0}";
},
{
name = top;
position = "{500, 623}";
}
);
layerId = "16CD5438-0A7A-495F-951A-DBB915DF0BEC";
paths = (
{
closed = 1;
nodes = (
"123 0 LINE",
"123 572 LINE",
"491 233 LINE",
"510 233 LINE",
"879 575 LINE",
"879 0 LINE",
"910 0 LINE",
"910 624 LINE",
"889 624 LINE",
"500 262 LINE",
"113 623 LINE",
"92 623 LINE",
"92 0 LINE"
);
}
);
width = 1000;
},
{
anchors = (
{
name = bottom;
position = "{126, 0}";
},
{
name = top;
position = "{126, 623}";
}
);
layerId = "E49A0581-9397-4BB7-ADB1-45D6EDC9C316";
paths = (
{
closed = 1;
nodes = (
"84 0 LINE",
"81 407 LINE",
"117 239 LINE",
"130 239 LINE",
"171 410 LINE",
"168 0 LINE",
"239 0 LINE",
"239 624 LINE",
"174 624 LINE",
"126 428 LINE",
"79 623 LINE",
"13 623 LINE",
"13 0 LINE"
);
}
);
width = 250;
},
{
anchors = (
{
name = bottom;
position = "{500, 0}";
},
{
name = top;
position = "{500, 623}";
}
);
layerId = "382F13D7-0CC9-4B85-A585-CBE12F4435D4";
paths = (
{
closed = 1;
nodes = (
"174 0 LINE",
"174 501 LINE",
"464 223 LINE",
"518 223 LINE",
"826 504 LINE",
"826 0 LINE",
"920 0 LINE",
"920 624 LINE",
"842 624 LINE",
"500 308 LINE",
"164 623 LINE",
"82 623 LINE",
"82 0 LINE"
);
}
);
width = 1000;
},
{
anchors = (
{
name = bottom;
position = "{500, 0}";
},
{
name = top;
position = "{500, 623}";
}
);
layerId = "CC486EF6-6464-4B93-9956-4F2B932959EA";
paths = (
{
closed = 1;
nodes = (
"224 0 LINE",
"224 451 LINE",
"464 213 LINE",
"518 213 LINE",
"776 454 LINE",
"776 0 LINE",
"930 0 LINE",
"930 624 LINE",
"792 624 LINE",
"500 348 LINE",
"214 623 LINE",
"72 623 LINE",
"72 0 LINE"
);
}
);
width = 1000;
}
);
unicode = 004D;
},
{
glyphname = N;
layers = (
{
anchors = (
{
name = bottom;
position = "{250, 0}";
},
{
name = top;
position = "{250, 623}";
}
);
hints = (
{
origin = "{0, 4}";
type = Corner;
name = _corner.rightSpur;
}
);
layerId = "051EFAE4-8BBE-4FBB-A016-4335C3E52F59";
paths = (
{
closed = 1;
nodes = (
"117 0 LINE",
"117 490 LINE",
"392 0 LINE",
"447 0 LINE",
"447 623 LINE",
"380 623 LINE",
"380 161 LINE",
"118 623 LINE",
"50 623 LINE",
"50 0 LINE"
);
}
);
width = 500;
},
{
anchors = (
{
name = bottom;
position = "{250, 0}";
},
{
name = top;
position = "{250, 623}";
}
);
hints = (
{
origin = "{0, 4}";
type = Corner;
name = _corner.rightSpur;
}
);
layerId = "4196E4A4-01D0-4BE0-B812-9D3AF152A0E4";
paths = (
{
closed = 1;
nodes = (
"97 0 LINE",
"97 564 LINE",
"408 0 LINE",
"427 0 LINE",
"427 623 LINE",
"400 623 LINE",
"400 64 LINE",
"93 623 LINE",
"70 623 LINE",
"70 0 LINE"
);
}
);
width = 500;
},
{
anchors = (
{
name = bottom;
position = "{250, 0}";
},
{
name = top;
position = "{250, 623}";
}
);
background = {
paths = (
{
closed = 1;
nodes = (
"117 0 LINE",
"117 490 LINE",
"392 0 LINE",
"447 0 LINE",
"447 597 LINE SMOOTH",
"447 606 OFFCURVE",
"454 616 OFFCURVE",
"454 624 CURVE",
"380 624 LINE",
"380 161 LINE",
"118 623 LINE",
"50 623 LINE",
"50 0 LINE"
);
}
);
};
hints = (
{
origin = "{0, 4}";
type = Corner;
name = _corner.rightSpur;
}
);
layerId = "37FE174D-E85B-4C4C-A1AE-51D7E67A9FC9";
paths = (
{
closed = 1;
nodes = (
"153 0 LINE",
"153 401 LINE",
"334 0 LINE",
"472 0 LINE",
"472 623 LINE",
"347 623 LINE",
"357 247 LINE",
"179 623 LINE",
"28 623 LINE",
"28 0 LINE"
);
}
);
width = 500;
},
{
anchors = (
{
name = bottom;
position = "{125, 0}";
},
{
name = top;
position = "{125, 623}";
}
);
hints = (
{
origin = "{0, 4}";
type = Corner;
name = _corner.rightSpur;
}
);
layerId = "7EB90DB1-9188-465D-93C7-E6C577A18003";
paths = (
{
closed = 1;
nodes = (
"68 0 LINE",
"68 460 LINE",
"185 0 LINE",
"226 0 LINE",
"226 623 LINE",
"181 623 LINE",
"181 191 LINE",
"70 623 LINE",
"23 623 LINE",
"23 0 LINE"
);
}
);
width = 250;
},
{
anchors = (
{
name = bottom;
position = "{125, 0}";
},
{
name = top;
position = "{125, 623}";
}
);
hints = (
{
origin = "{0, 4}";
type = Corner;
name = _corner.rightSpur;
}
);
layerId = "0E826D2B-F2D1-4058-A5E0-936DF7ED7520";
paths = (
{
closed = 1;
nodes = (
"49 0 LINE",
"49 555 LINE",
"204 0 LINE",
"222 0 LINE",
"222 623 LINE",
"200 623 LINE",
"200 94 LINE",
"51 623 LINE",
"27 623 LINE",
"27 0 LINE"
);
}
);
width = 250;
},
{
anchors = (
{
name = bottom;
position = "{500, 0}";
},
{
name = top;
position = "{500, 623}";
}
);
hints = (
{
origin = "{0, 4}";
type = Corner;
name = _corner.rightSpur;
}
);
layerId = "16CD5438-0A7A-495F-951A-DBB915DF0BEC";
paths = (
{
closed = 1;
nodes = (
"137 0 LINE",
"137 586 LINE",
"861 0 LINE",
"888 0 LINE",
"888 623 LINE",
"857 623 LINE",
"857 40 LINE",
"139 623 LINE",
"106 623 LINE",
"106 0 LINE"
);
}
);
width = 1000;
},
{
anchors = (
{
name = bottom;
position = "{125, 0}";
},
{
name = top;
position = "{125, 623}";
}
);
hints = (
{
origin = "{0, 4}";
type = Corner;
name = _corner.rightSpur;
}
);
layerId = "E49A0581-9397-4BB7-ADB1-45D6EDC9C316";
paths = (
{
closed = 1;
nodes = (
"92 0 LINE",
"92 350 LINE",
"172 0 LINE",
"232 0 LINE",
"232 623 LINE",
"160 623 LINE",
"160 301 LINE",
"90 623 LINE",
"17 623 LINE",
"17 0 LINE"
);
}
);
width = 250;
},
{
anchors = (
{
name = bottom;
position = "{500, 0}";
},
{
name = top;
position = "{500, 623}";
}
);
hints = (
{
origin = "{0, 4}";
type = Corner;
name = _corner.rightSpur;
}
);
layerId = "382F13D7-0CC9-4B85-A585-CBE12F4435D4";
paths = (
{
closed = 1;
nodes = (
"188 0 LINE",
"188 526 LINE",
"830 0 LINE",
"898 0 LINE",
"898 623 LINE",
"806 623 LINE",
"806 124 LINE",
"190 623 LINE",
"96 623 LINE",
"96 0 LINE"
);
}
);
width = 1000;
},
{
anchors = (
{
name = bottom;
position = "{500, 0}";
},
{
name = top;
position = "{500, 623}";
}
);
hints = (
{
origin = "{0, 4}";
type = Corner;
name = _corner.rightSpur;
}
);
layerId = "CC486EF6-6464-4B93-9956-4F2B932959EA";
paths = (
{
closed = 1;
nodes = (
"238 0 LINE",
"238 452 LINE",
"780 0 LINE",
"908 0 LINE",
"908 623 LINE",
"756 623 LINE",
"756 193 LINE",
"240 623 LINE",
"86 623 LINE",
"86 0 LINE"
);
}
);
width = 1000;
}
);
unicode = 004E;
},
{
glyphname = Nacute;
layers = (
{
components = (
{
name = N;
},
{
name = acutecomb.case;
transform = "{1, 0, 0, 1, -19, 0}";
}
);
layerId = "051EFAE4-8BBE-4FBB-A016-4335C3E52F59";
width = 500;
},
{
components = (
{
name = N;
},
{
name = acutecomb.case;
transform = "{1, 0, 0, 1, -19, 0}";
}
);
layerId = "4196E4A4-01D0-4BE0-B812-9D3AF152A0E4";
width = 500;
},
{
background = {
paths = (
{
closed = 1;
nodes = (
"117 0 LINE",
"117 490 LINE",
"392 0 LINE",
"447 0 LINE",
"447 597 LINE SMOOTH",
"447 606 OFFCURVE",
"454 616 OFFCURVE",
"454 624 CURVE",
"380 624 LINE",
"380 161 LINE",
"118 623 LINE",
"50 623 LINE",
"50 0 LINE"
);
},
{
closed = 1;
nodes = (
"156 702 LINE",
"179 660 LINE",
"348 721 LINE",
"308 791 LINE"
);
}
);
};
components = (
{
name = N;
},
{
name = acutecomb.case;
transform = "{1, 0, 0, 1, -20, 0}";
}
);
layerId = "37FE174D-E85B-4C4C-A1AE-51D7E67A9FC9";
width = 500;
},
{
components = (
{
name = N;
},
{
name = acutecomb.case;
transform = "{1, 0, 0, 1, -144, 0}";
}
);
layerId = "7EB90DB1-9188-465D-93C7-E6C577A18003";
width = 250;
},
{
components = (
{
name = N;
},
{
name = acutecomb.case;
transform = "{1, 0, 0, 1, -144, 0}";
}
);
layerId = "0E826D2B-F2D1-4058-A5E0-936DF7ED7520";
width = 250;
},
{
components = (
{
name = N;
},
{
name = acutecomb.case;
transform = "{1, 0, 0, 1, 231, 0}";
}
);
layerId = "16CD5438-0A7A-495F-951A-DBB915DF0BEC";
width = 1000;
},
{
components = (
{
name = N;
},
{
name = acutecomb.case;
transform = "{1, 0, 0, 1, -144, 0}";
}
);
layerId = "E49A0581-9397-4BB7-ADB1-45D6EDC9C316";
width = 250;
},
{
components = (
{
name = N;
},
{
name = acutecomb.case;
transform = "{1, 0, 0, 1, 231, 0}";
}
);
layerId = "382F13D7-0CC9-4B85-A585-CBE12F4435D4";
width = 1000;
},
{
components = (
{
name = N;
},
{
name = acutecomb.case;
transform = "{1, 0, 0, 1, 231, 0}";
}
);
layerId = "CC486EF6-6464-4B93-9956-4F2B932959EA";
width = 1000;
}
);
unicode = 0143;
},
{
glyphname = Ncaron;
layers = (
{
components = (
{
name = N;
},
{
name = caroncomb.case;
}
);
layerId = "051EFAE4-8BBE-4FBB-A016-4335C3E52F59";
width = 500;
},
{
components = (
{
name = N;
},
{
name = caroncomb.case;
}
);
layerId = "4196E4A4-01D0-4BE0-B812-9D3AF152A0E4";
width = 500;
},
{
background = {
paths = (
{
closed = 1;
nodes = (
"117 0 LINE",
"117 490 LINE",
"392 0 LINE",
"447 0 LINE",
"447 597 LINE SMOOTH",
"447 606 OFFCURVE",
"454 616 OFFCURVE",
"454 624 CURVE",
"380 624 LINE",
"380 161 LINE",
"118 623 LINE",
"50 623 LINE",
"50 0 LINE"
);
},
{
closed = 1;
nodes = (
"369 788 LINE",
"257 720 LINE",
"154 791 LINE",
"121 753 LINE",
"244 655 LINE",
"266 655 LINE",
"397 755 LINE"
);
}
);
};
components = (
{
name = N;
},
{
name = caroncomb.case;
transform = "{1, 0, 0, 1, 2, 0}";
}
);
layerId = "37FE174D-E85B-4C4C-A1AE-51D7E67A9FC9";
width = 500;
},
{
components = (
{
name = N;
},
{
name = caroncomb.case;
transform = "{1, 0, 0, 1, -125, 0}";
}
);
layerId = "7EB90DB1-9188-465D-93C7-E6C577A18003";
width = 250;
},
{
components = (
{
name = N;
},
{
name = caroncomb.case;
transform = "{1, 0, 0, 1, -125, 0}";
}
);
layerId = "0E826D2B-F2D1-4058-A5E0-936DF7ED7520";
width = 250;
},
{
components = (
{
name = N;
},
{
name = caroncomb.case;
transform = "{1, 0, 0, 1, 250, 0}";
}
);
layerId = "16CD5438-0A7A-495F-951A-DBB915DF0BEC";
width = 1000;
},
{
components = (
{
name = N;
},
{
name = caroncomb.case;
transform = "{1, 0, 0, 1, -125, 0}";
}
);
layerId = "E49A0581-9397-4BB7-ADB1-45D6EDC9C316";
width = 250;
},
{
components = (
{
name = N;
},
{
name = caroncomb.case;
transform = "{1, 0, 0, 1, 250, 0}";
}
);
layerId = "382F13D7-0CC9-4B85-A585-CBE12F4435D4";
width = 1000;
},
{
components = (
{
name = N;
},
{
name = caroncomb.case;
transform = "{1, 0, 0, 1, 250, 0}";
}
);
layerId = "CC486EF6-6464-4B93-9956-4F2B932959EA";
width = 1000;
}
);
unicode = 0147;
},
